Paprika-Regular.otf.ufo
<glyph name="exclam" format="1">
  <advance width="388"/>
  <unicode hex="0021"/>
  <outline>
    <contour>
      <point x="247" y="83" type="curve" smooth="yes"/>
      <point x="247" y="119" smooth="yes"/>
      <point x="217" y="133" smooth="yes"/>
      <point x="181" y="133" type="curve" smooth="yes"/>
      <point x="156" y="133"/>
      <point x="130" y="124"/>
      <point x="101" y="106" type="curve"/>
      <point x="96" y="79" smooth="yes"/>
      <point x="93" y="57" smooth="yes"/>
      <point x="93" y="41" type="curve" smooth="yes"/>
      <point x="93" y="4" smooth="yes"/>
      <point x="110" y="-14" smooth="yes"/>
      <point x="156" y="-14" type="curve" smooth="yes"/>
      <point x="180" y="-14"/>
      <point x="207" y="-4"/>
      <point x="235" y="14" type="curve"/>
      <point x="243" y="42" smooth="yes"/>
      <point x="247" y="66" smooth="yes"/>
    </contour>
    <contour>
      <point x="315" y="781" type="curve" smooth="yes"/>
      <point x="315" y="860" smooth="yes"/>
      <point x="290" y="887" smooth="yes"/>
      <point x="243" y="887" type="curve" smooth="yes"/>
      <point x="223" y="887"/>
      <point x="188" y="877"/>
      <point x="173" y="864" type="curve"/>
      <point x="194" y="824" smooth="yes"/>
      <point x="195" y="777" smooth="yes"/>
      <point x="195" y="729" type="curve" smooth="yes"/>
      <point x="195" y="614" smooth="yes"/>
      <point x="153" y="311" smooth="yes"/>
      <point x="153" y="283" type="curve" smooth="yes" name="hr01"/>
      <point x="153" y="254" smooth="yes"/>
      <point x="169" y="242" smooth="yes"/>
      <point x="188" y="242" type="curve" smooth="yes"/>
      <point x="205" y="242"/>
      <point x="220" y="245"/>
      <point x="236" y="258" type="curve"/>
      <point x="234" y="264" smooth="yes"/>
      <point x="233" y="271" smooth="yes"/>
      <point x="233" y="277" type="curve" smooth="yes"/>
      <point x="233" y="370" smooth="yes"/>
      <point x="315" y="681" smooth="yes"/>
    </contour>
  </outline>
</glyph>
<glyph name="quotedbl" format="1">
  <advance width="396"/>
  <unicode hex="0022"/>
  <outline>
    <contour>
      <point x="232" y="863" type="curve" smooth="yes"/>
      <point x="232" y="897" smooth="yes"/>
      <point x="221" y="910" smooth="yes"/>
      <point x="200" y="910" type="curve" smooth="yes" name="hr01"/>
      <point x="163" y="910"/>
      <point x="139" y="898"/>
      <point x="126" y="887" type="curve"/>
      <point x="133" y="872" smooth="yes"/>
      <point x="134" y="854" smooth="yes"/>
      <point x="134" y="835" type="curve" smooth="yes"/>
      <point x="134" y="801" smooth="yes"/>
      <point x="115" y="748" smooth="yes"/>
      <point x="115" y="693" type="curve" smooth="yes" name="hr02"/>
      <point x="115" y="648" smooth="yes"/>
      <point x="136" y="633" smooth="yes"/>
      <point x="161" y="633" type="curve" smooth="yes"/>
      <point x="179" y="633"/>
      <point x="195" y="636"/>
      <point x="212" y="647" type="curve"/>
      <point x="203" y="664" smooth="yes"/>
      <point x="200" y="682" smooth="yes"/>
      <point x="200" y="703" type="curve" smooth="yes"/>
      <point x="200" y="745" smooth="yes"/>
      <point x="232" y="827" smooth="yes"/>
    </contour>
    <contour>
      <point x="401" y="863" type="curve" smooth="yes"/>
      <point x="401" y="897" smooth="yes"/>
      <point x="390" y="910" smooth="yes"/>
      <point x="369" y="910" type="curve" smooth="yes" name="hr04"/>
      <point x="333" y="910"/>
      <point x="308" y="898"/>
      <point x="295" y="887" type="curve"/>
      <point x="302" y="872" smooth="yes"/>
      <point x="304" y="854" smooth="yes"/>
      <point x="304" y="835" type="curve" smooth="yes"/>
      <point x="304" y="801" smooth="yes"/>
      <point x="284" y="748" smooth="yes"/>
      <point x="284" y="693" type="curve" smooth="yes" name="hr05"/>
      <point x="284" y="649" smooth="yes"/>
      <point x="305" y="633" smooth="yes"/>
      <point x="330" y="633" type="curve" smooth="yes"/>
      <point x="348" y="633"/>
      <point x="364" y="636"/>
      <point x="381" y="647" type="curve"/>
      <point x="373" y="664" smooth="yes"/>
      <point x="369" y="682" smooth="yes"/>
      <point x="369" y="703" type="curve" smooth="yes"/>
      <point x="369" y="745" smooth="yes"/>
      <point x="401" y="827" smooth="yes"/>
    </contour>
  </outline>
</glyph>
<glyph name="numbersign" format="1">
  <advance width="817"/>
  <unicode hex="0023"/>
  <outline>
    <contour>
      <point x="113" y="574" type="curve" smooth="yes"/>
      <point x="113" y="543"/>
      <point x="121" y="521"/>
      <point x="132" y="504" type="curve"/>
      <point x="152" y="519" smooth="yes"/>
      <point x="200" y="524" smooth="yes"/>
      <point x="223" y="524" type="curve" smooth="yes"/>
      <point x="229" y="524" type="line"/>
      <point x="199" y="344" type="line"/>
      <point x="171" y="345" smooth="yes"/>
      <point x="148" y="346" smooth="yes"/>
      <point x="134" y="346" type="curve" smooth="yes"/>
      <point x="103" y="346" smooth="yes"/>
      <point x="80" y="331" smooth="yes"/>
      <point x="80" y="300" type="curve" smooth="yes"/>
      <point x="80" y="269"/>
      <point x="88" y="247"/>
      <point x="99" y="230" type="curve"/>
      <point x="117" y="243"/>
      <point x="158" y="249"/>
      <point x="183" y="250" type="curve"/>
      <point x="175" y="197" smooth="yes"/>
      <point x="170" y="152" smooth="yes"/>
      <point x="170" y="121" type="curve" smooth="yes"/>
      <point x="170" y="24" smooth="yes"/>
      <point x="206" y="-6" smooth="yes"/>
      <point x="255" y="-6" type="curve" smooth="yes"/>
      <point x="275" y="-6"/>
      <point x="307" y="1"/>
      <point x="321" y="31" type="curve"/>
      <point x="285" y="65" smooth="yes"/>
      <point x="279" y="110" smooth="yes"/>
      <point x="279" y="158" type="curve" smooth="yes"/>
      <point x="279" y="186"/>
      <point x="280" y="217"/>
      <point x="283" y="249" type="curve"/>
      <point x="342" y="249"/>
      <point x="416" y="247"/>
      <point x="483" y="247" type="curve"/>
      <point x="475" y="196" smooth="yes"/>
      <point x="470" y="152" smooth="yes"/>
      <point x="470" y="121" type="curve" smooth="yes"/>
      <point x="470" y="24" smooth="yes"/>
      <point x="506" y="-6" smooth="yes"/>
      <point x="555" y="-6" type="curve" smooth="yes"/>
      <point x="575" y="-6"/>
      <point x="607" y="1"/>
      <point x="621" y="31" type="curve"/>
      <point x="585" y="65" smooth="yes"/>
      <point x="579" y="110" smooth="yes"/>
      <point x="579" y="158" type="curve" smooth="yes"/>
      <point x="579" y="185"/>
      <point x="580" y="215"/>
      <point x="583" y="246" type="curve"/>
      <point x="631" y="246" type="line" smooth="yes"/>
      <point x="707" y="246" smooth="yes"/>
      <point x="734" y="271" smooth="yes"/>
      <point x="734" y="306" type="curve" smooth="yes"/>
      <point x="734" y="324"/>
      <point x="731" y="341"/>
      <point x="719" y="359" type="curve"/>
      <point x="697" y="349"/>
      <point x="645" y="343"/>
      <point x="594" y="339" type="curve"/>
      <point x="603" y="399"/>
      <point x="614" y="461"/>
      <point x="625" y="520" type="curve"/>
      <point x="664" y="520" type="line" smooth="yes"/>
      <point x="740" y="520" smooth="yes"/>
      <point x="767" y="545" smooth="yes"/>
      <point x="767" y="580" type="curve" smooth="yes"/>
      <point x="767" y="598"/>
      <point x="764" y="615"/>
      <point x="752" y="633" type="curve"/>
      <point x="732" y="624"/>
      <point x="688" y="618"/>
      <point x="642" y="614" type="curve"/>
      <point x="655" y="687" smooth="yes"/>
      <point x="665" y="749" smooth="yes"/>
      <point x="665" y="790" type="curve" smooth="yes" name="hr01"/>
      <point x="665" y="862" smooth="yes"/>
      <point x="643" y="886" smooth="yes"/>
      <point x="601" y="886" type="curve" smooth="yes"/>
      <point x="581" y="886"/>
      <point x="544" y="876"/>
      <point x="529" y="863" type="curve"/>
      <point x="548" y="830" smooth="yes"/>
      <point x="552" y="792" smooth="yes"/>
      <point x="552" y="752" type="curve" smooth="yes"/>
      <point x="552" y="711"/>
      <point x="547" y="661"/>
      <point x="541" y="609" type="curve"/>
      <point x="529" y="609" type="line" smooth="yes"/>
      <point x="492" y="609"/>
      <point x="417" y="611"/>
      <point x="342" y="614" type="curve"/>
      <point x="355" y="687" smooth="yes"/>
      <point x="365" y="749" smooth="yes"/>
      <point x="365" y="790" type="curve" smooth="yes"/>
      <point x="365" y="862" smooth="yes"/>
      <point x="343" y="886" smooth="yes"/>
      <point x="301" y="886" type="curve" smooth="yes"/>
      <point x="281" y="886"/>
      <point x="244" y="876"/>
      <point x="229" y="863" type="curve"/>
      <point x="248" y="830" smooth="yes"/>
      <point x="252" y="792" smooth="yes"/>
      <point x="252" y="752" type="curve" smooth="yes"/>
      <point x="252" y="713"/>
      <point x="248" y="667"/>
      <point x="242" y="618" type="curve"/>
      <point x="210" y="619" smooth="yes"/>
      <point x="183" y="620" smooth="yes"/>
      <point x="167" y="620" type="curve" smooth="yes"/>
      <point x="136" y="620" smooth="yes"/>
      <point x="113" y="605" smooth="yes"/>
    </contour>
    <contour>
      <point x="325" y="523" type="curve"/>
      <point x="386" y="523"/>
      <point x="462" y="521"/>
      <point x="528" y="521" type="curve"/>
      <point x="497" y="335" type="line"/>
      <point x="457" y="335"/>
      <point x="374" y="338"/>
      <point x="295" y="341" type="curve"/>
      <point x="303" y="402"/>
      <point x="314" y="464"/>
    </contour>
  </outline>
</glyph>
<glyph name="percent" format="1">
  <advance width="901"/>
  <unicode hex="0025"/>
  <outline>
    <contour>
      <point x="371" y="147" type="curve" smooth="yes"/>
      <point x="437" y="333" smooth="yes"/>
      <point x="625" y="659" smooth="yes"/>
      <point x="668" y="781" type="curve" smooth="yes"/>
      <point x="678" y="809" smooth="yes"/>
      <point x="682" y="830" smooth="yes"/>
      <point x="682" y="845" type="curve" smooth="yes"/>
      <point x="682" y="875" smooth="yes"/>
      <point x="666" y="887" smooth="yes"/>
      <point x="637" y="887" type="curve" smooth="yes"/>
      <point x="617" y="887"/>
      <point x="596" y="877"/>
      <point x="577" y="864" type="curve"/>
      <point x="577" y="857" smooth="yes"/>
      <point x="578" y="851" smooth="yes"/>
      <point x="578" y="845" type="curve" smooth="yes"/>
      <point x="578" y="810" smooth="yes"/>
      <point x="564" y="770" smooth="yes"/>
      <point x="550" y="729" type="curve" smooth="yes"/>
      <point x="491" y="562" smooth="yes"/>
      <point x="306" y="226" smooth="yes"/>
      <point x="264" y="106" type="curve" smooth="yes"/>
      <point x="252" y="70" smooth="yes"/>
      <point x="246" y="43" smooth="yes"/>
      <point x="246" y="23" type="curve" smooth="yes"/>
      <point x="246" y="-13" smooth="yes"/>
      <point x="265" y="-26" smooth="yes"/>
      <point x="295" y="-26" type="curve" smooth="yes"/>
      <point x="311" y="-26"/>
      <point x="327" y="-19"/>
      <point x="362" y="10" type="curve"/>
      <point x="355" y="23" smooth="yes"/>
      <point x="351" y="39" smooth="yes"/>
      <point x="351" y="55" type="curve" smooth="yes"/>
      <point x="351" y="83" smooth="yes"/>
      <point x="360" y="114" smooth="yes"/>
    </contour>
    <contour>
      <point x="319" y="662" type="curve" smooth="yes" name="hr01"/>
      <point x="319" y="598" smooth="yes"/>
      <point x="297" y="442" smooth="yes"/>
      <point x="217" y="442" type="curve" smooth="yes"/>
      <point x="159" y="442" smooth="yes"/>
      <point x="125" y="497" smooth="yes"/>
      <point x="125" y="608" type="curve" smooth="yes"/>
      <point x="125" y="674" smooth="yes"/>
      <point x="148" y="826" smooth="yes"/>
      <point x="227" y="826" type="curve" smooth="yes"/>
      <point x="284" y="826" smooth="yes"/>
      <point x="319" y="770" smooth="yes"/>
    </contour>
    <contour>
      <point x="194" y="381" type="curve" smooth="yes"/>
      <point x="329" y="381" smooth="yes"/>
      <point x="395" y="541" smooth="yes"/>
      <point x="395" y="678" type="curve" smooth="yes"/>
      <point x="395" y="793" smooth="yes"/>
      <point x="344" y="886" smooth="yes"/>
      <point x="250" y="886" type="curve" smooth="yes"/>
      <point x="115" y="886" smooth="yes"/>
      <point x="49" y="725" smooth="yes"/>
      <point x="49" y="588" type="curve" smooth="yes"/>
      <point x="49" y="472" smooth="yes"/>
      <point x="100" y="381" smooth="yes"/>
    </contour>
    <contour>
      <point x="776" y="250" type="curve" smooth="yes"/>
      <point x="776" y="186" smooth="yes"/>
      <point x="754" y="30" smooth="yes"/>
      <point x="674" y="30" type="curve" smooth="yes"/>
      <point x="616" y="30" smooth="yes"/>
      <point x="582" y="85" smooth="yes"/>
      <point x="582" y="196" type="curve" smooth="yes"/>
      <point x="582" y="262" smooth="yes"/>
      <point x="605" y="414" smooth="yes"/>
      <point x="684" y="414" type="curve" smooth="yes" name="hr02"/>
      <point x="741" y="414" smooth="yes"/>
      <point x="776" y="358" smooth="yes"/>
    </contour>
    <contour>
      <point x="651" y="-31" type="curve" smooth="yes"/>
      <point x="786" y="-31" smooth="yes"/>
      <point x="852" y="129" smooth="yes"/>
      <point x="852" y="266" type="curve" smooth="yes"/>
      <point x="852" y="381" smooth="yes"/>
      <point x="801" y="474" smooth="yes"/>
      <point x="707" y="474" type="curve" smooth="yes"/>
      <point x="572" y="474" smooth="yes"/>
      <point x="506" y="313" smooth="yes"/>
      <point x="506" y="176" type="curve" smooth="yes"/>
      <point x="506" y="60" smooth="yes"/>
      <point x="557" y="-31" smooth="yes"/>
    </contour>
  </outline>
</glyph>
<glyph name="parenright" format="1">
  <advance width="407"/>
  <unicode hex="0029"/>
  <outline>
    <contour>
      <point x="-80" y="-76" type="curve" name="hr00"/>
      <point x="-71" y="-111" smooth="yes"/>
      <point x="-56" y="-128" smooth="yes"/>
      <point x="-35" y="-128" type="curve" smooth="yes"/>
      <point x="112" y="-128" smooth="yes"/>
      <point x="309" y="168" smooth="yes"/>
      <point x="309" y="495" type="curve" smooth="yes"/>
      <point x="309" y="724" smooth="yes"/>
      <point x="221" y="927" smooth="yes"/>
      <point x="85" y="927" type="curve" smooth="yes"/>
      <point x="41" y="927"/>
      <point x="9" y="913"/>
      <point x="-15" y="853" type="curve"/>
      <point x="129" y="840" smooth="yes"/>
      <point x="212" y="685" smooth="yes"/>
      <point x="212" y="449" type="curve" smooth="yes"/>
      <point x="212" y="252"/>
      <point x="125" y="0"/>
    </contour>
  </outline>
</glyph>
<glyph name="asterisk" format="1">
  <advance width="480"/>
  <unicode hex="002A"/>
  <outline>
    <contour>
      <point x="477" y="605" type="curve"/>
      <point x="435" y="611"/>
      <point x="379" y="645"/>
      <point x="348" y="669" type="curve"/>
      <point x="379" y="678" smooth="yes"/>
      <point x="505" y="703" smooth="yes"/>
      <point x="505" y="743" type="curve" smooth="yes"/>
      <point x="505" y="773"/>
      <point x="466" y="805"/>
      <point x="442" y="813" type="curve"/>
      <point x="415" y="779"/>
      <point x="357" y="750"/>
      <point x="321" y="734" type="curve"/>
      <point x="332" y="782" smooth="yes"/>
      <point x="350" y="828" smooth="yes"/>
      <point x="350" y="868" type="curve" smooth="yes"/>
      <point x="350" y="902" smooth="yes"/>
      <point x="339" y="911" smooth="yes"/>
      <point x="318" y="911" type="curve" smooth="yes"/>
      <point x="282" y="911"/>
      <point x="256" y="898"/>
      <point x="244" y="887" type="curve"/>
      <point x="252" y="858" smooth="yes"/>
      <point x="255" y="826" smooth="yes"/>
      <point x="255" y="794" type="curve" smooth="yes"/>
      <point x="255" y="776"/>
      <point x="254" y="759"/>
      <point x="253" y="743" type="curve"/>
      <point x="220" y="775" smooth="yes"/>
      <point x="166" y="845" smooth="yes"/>
      <point x="121" y="845" type="curve" smooth="yes"/>
      <point x="89" y="845"/>
      <point x="81" y="775"/>
      <point x="81" y="753" type="curve"/>
      <point x="125" y="746"/>
      <point x="175" y="713"/>
      <point x="210" y="689" type="curve"/>
      <point x="180" y="680" smooth="yes"/>
      <point x="53" y="656" smooth="yes"/>
      <point x="53" y="615" type="curve" smooth="yes"/>
      <point x="53" y="585"/>
      <point x="92" y="554"/>
      <point x="116" y="545" type="curve"/>
      <point x="143" y="579"/>
      <point x="201" y="608"/>
      <point x="236" y="624" type="curve"/>
      <point x="226" y="576" smooth="yes"/>
      <point x="208" y="529" smooth="yes"/>
      <point x="208" y="490" type="curve" smooth="yes" name="hr01"/>
      <point x="208" y="456" smooth="yes"/>
      <point x="219" y="447" smooth="yes"/>
      <point x="240" y="447" type="curve" smooth="yes"/>
      <point x="276" y="447"/>
      <point x="302" y="460"/>
      <point x="314" y="471" type="curve"/>
      <point x="304" y="493" smooth="yes"/>
      <point x="302" y="523" smooth="yes"/>
      <point x="302" y="553" type="curve" smooth="yes"/>
      <point x="302" y="575"/>
      <point x="303" y="597"/>
      <point x="304" y="614" type="curve"/>
      <point x="337" y="583" smooth="yes"/>
      <point x="393" y="513" smooth="yes"/>
      <point x="437" y="513" type="curve" smooth="yes"/>
      <point x="469" y="513"/>
      <point x="477" y="583"/>
    </contour>
  </outline>
</glyph>
<glyph name="hyphen" format="1">
  <advance width="351"/>
  <unicode hex="002D"/>
  <outline>
    <contour>
      <point x="38" y="402" type="curve" smooth="yes"/>
      <point x="38" y="376"/>
      <point x="50" y="345"/>
      <point x="62" y="329" type="curve"/>
      <point x="83" y="341" smooth="yes"/>
      <point x="126" y="347" smooth="yes"/>
      <point x="151" y="347" type="curve" smooth="yes" name="hr01"/>
      <point x="177" y="347" smooth="yes"/>
      <point x="207" y="343" smooth="yes"/>
      <point x="239" y="343" type="curve" smooth="yes"/>
      <point x="317" y="343" smooth="yes"/>
      <point x="344" y="368" smooth="yes"/>
      <point x="344" y="403" type="curve" smooth="yes"/>
      <point x="344" y="422"/>
      <point x="341" y="439"/>
      <point x="329" y="455" type="curve"/>
      <point x="307" y="440" smooth="yes"/>
      <point x="280" y="433" smooth="yes"/>
      <point x="250" y="433" type="curve" smooth="yes"/>
      <point x="210" y="433" smooth="yes"/>
      <point x="137" y="444" smooth="yes"/>
      <point x="101" y="444" type="curve" smooth="yes"/>
      <point x="69" y="444" smooth="yes"/>
      <point x="38" y="433" smooth="yes"/>
    </contour>
  </outline>
</glyph>
<glyph name="one" format="1">
  <advance width="581"/>
  <unicode hex="0031"/>
  <outline>
    <contour>
      <point x="350" y="166" type="curve" smooth="yes"/>
      <point x="350" y="352" smooth="yes"/>
      <point x="427" y="660" smooth="yes"/>
      <point x="427" y="782" type="curve" smooth="yes" name="hr01"/>
      <point x="427" y="861" smooth="yes"/>
      <point x="403" y="887" smooth="yes"/>
      <point x="358" y="887" type="curve" smooth="yes"/>
      <point x="293" y="887" smooth="yes"/>
      <point x="274" y="837" smooth="yes"/>
      <point x="232" y="799" type="curve" smooth="yes"/>
      <point x="154" y="727"/>
      <point x="124" y="705"/>
      <point x="66" y="690" type="curve"/>
      <point x="97" y="627" smooth="yes"/>
      <point x="120" y="622" smooth="yes"/>
      <point x="147" y="622" type="curve" smooth="yes"/>
      <point x="164" y="622"/>
      <point x="225" y="639"/>
      <point x="312" y="769" type="curve"/>
      <point x="312" y="531" smooth="yes"/>
      <point x="241" y="246" smooth="yes"/>
      <point x="241" y="125" type="curve" smooth="yes" name="hr02"/>
      <point x="241" y="24" smooth="yes"/>
      <point x="272" y="-7" smooth="yes"/>
      <point x="319" y="-7" type="curve" smooth="yes"/>
      <point x="335" y="-7"/>
      <point x="363" y="0"/>
      <point x="388" y="29" type="curve"/>
      <point x="355" y="65" smooth="yes"/>
      <point x="350" y="114" smooth="yes"/>
    </contour>
  </outline>
</glyph>
<glyph name="two" format="1">
  <advance width="669"/>
  <unicode hex="0032"/>
  <outline>
    <contour>
      <point x="576" y="692" type="curve" smooth="yes"/>
      <point x="576" y="805" smooth="yes"/>
      <point x="502" y="887" smooth="yes"/>
      <point x="322" y="887" type="curve" smooth="yes"/>
      <point x="155" y="887" smooth="yes"/>
      <point x="89" y="806" smooth="yes"/>
      <point x="89" y="733" type="curve" smooth="yes"/>
      <point x="89" y="699"/>
      <point x="109" y="683"/>
      <point x="160" y="663" type="curve"/>
      <point x="172" y="752" smooth="yes"/>
      <point x="217" y="817" smooth="yes"/>
      <point x="310" y="817" type="curve" smooth="yes"/>
      <point x="407" y="817" smooth="yes"/>
      <point x="458" y="749" smooth="yes"/>
      <point x="458" y="675" type="curve" smooth="yes"/>
      <point x="458" y="471"/>
      <point x="109" y="117"/>
      <point x="27" y="22" type="curve"/>
      <point x="38" y="-1" smooth="yes"/>
      <point x="56" y="-16" smooth="yes"/>
      <point x="82" y="-16" type="curve" smooth="yes"/>
      <point x="95" y="-16"/>
      <point x="107" y="-9"/>
      <point x="118" y="2" type="curve"/>
      <point x="179" y="17" smooth="yes"/>
      <point x="228" y="19" smooth="yes"/>
      <point x="312" y="19" type="curve" smooth="yes"/>
      <point x="445" y="19"/>
      <point x="500" y="11"/>
      <point x="562" y="-13" type="curve"/>
      <point x="562" y="-1" smooth="yes"/>
      <point x="563" y="11" smooth="yes"/>
      <point x="563" y="21" type="curve" smooth="yes"/>
      <point x="563" y="108" smooth="yes"/>
      <point x="504" y="116" smooth="yes"/>
      <point x="412" y="116" type="curve" smooth="yes"/>
      <point x="371" y="116"/>
      <point x="275" y="106"/>
      <point x="189" y="83" type="curve"/>
      <point x="357" y="267" smooth="yes"/>
      <point x="576" y="503" smooth="yes"/>
    </contour>
  </outline>
</glyph>
<glyph name="three" format="1">
  <advance width="679"/>
  <unicode hex="0033"/>
  <outline>
    <contour>
      <point x="170" y="409" type="curve"/>
      <point x="210" y="412"/>
      <point x="248" y="418"/>
      <point x="282" y="428" type="curve"/>
      <point x="401" y="415" smooth="yes"/>
      <point x="446" y="341" smooth="yes"/>
      <point x="446" y="263" type="curve" smooth="yes"/>
      <point x="446" y="166" smooth="yes"/>
      <point x="375" y="58" smooth="yes"/>
      <point x="246" y="58" type="curve" smooth="yes"/>
      <point x="154" y="58"/>
      <point x="111" y="113"/>
      <point x="95" y="189" type="curve"/>
      <point x="45" y="170" smooth="yes"/>
      <point x="26" y="147" smooth="yes"/>
      <point x="26" y="123" type="curve" smooth="yes"/>
      <point x="26" y="54" smooth="yes"/>
      <point x="109" y="-16" smooth="yes"/>
      <point x="221" y="-16" type="curve" smooth="yes"/>
      <point x="471" y="-16" smooth="yes"/>
      <point x="564" y="168" smooth="yes"/>
      <point x="564" y="280" type="curve" smooth="yes"/>
      <point x="564" y="378"/>
      <point x="508" y="447"/>
      <point x="393" y="473" type="curve"/>
      <point x="498" y="533" smooth="yes"/>
      <point x="550" y="621" smooth="yes"/>
      <point x="550" y="692" type="curve" smooth="yes" name="hr01"/>
      <point x="550" y="805" smooth="yes"/>
      <point x="481" y="887" smooth="yes"/>
      <point x="312" y="887" type="curve" smooth="yes"/>
      <point x="144" y="887" smooth="yes"/>
      <point x="88" y="808" smooth="yes"/>
      <point x="88" y="763" type="curve" smooth="yes"/>
      <point x="88" y="729"/>
      <point x="104" y="712"/>
      <point x="154" y="692" type="curve"/>
      <point x="176" y="757" smooth="yes"/>
      <point x="206" y="817" smooth="yes"/>
      <point x="299" y="817" type="curve" smooth="yes"/>
      <point x="386" y="817" smooth="yes"/>
      <point x="433" y="749" smooth="yes"/>
      <point x="433" y="675" type="curve" smooth="yes"/>
      <point x="433" y="596" smooth="yes"/>
      <point x="370" y="509" smooth="yes"/>
      <point x="212" y="492" type="curve" smooth="yes"/>
      <point x="176" y="488" smooth="yes"/>
      <point x="169" y="485" smooth="yes"/>
      <point x="169" y="446" type="curve" smooth="yes"/>
      <point x="169" y="441"/>
      <point x="169" y="416"/>
    </contour>
  </outline>
</glyph>
<glyph name="four" format="1">
  <advance width="595"/>
  <unicode hex="0034"/>
  <outline>
    <contour>
      <point x="376" y="820" type="curve" smooth="yes"/>
      <point x="376" y="875" smooth="yes"/>
      <point x="357" y="887" smooth="yes"/>
      <point x="328" y="887" type="curve" smooth="yes"/>
      <point x="311" y="887"/>
      <point x="281" y="880"/>
      <point x="246" y="851" type="curve"/>
      <point x="252" y="838" smooth="yes"/>
      <point x="255" y="824" smooth="yes"/>
      <point x="255" y="808" type="curve" smooth="yes"/>
      <point x="255" y="613"/>
      <point x="81" y="334"/>
      <point x="-47" y="194" type="curve"/>
      <point x="-36" y="171" smooth="yes"/>
      <point x="-18" y="157" smooth="yes"/>
      <point x="8" y="157" type="curve" smooth="yes"/>
      <point x="22" y="157"/>
      <point x="32" y="163"/>
      <point x="43" y="174" type="curve"/>
      <point x="101" y="188" smooth="yes"/>
      <point x="180" y="195" smooth="yes"/>
      <point x="259" y="195" type="curve" smooth="yes"/>
      <point x="289" y="195"/>
      <point x="318" y="194"/>
      <point x="347" y="192" type="curve"/>
      <point x="341" y="158" smooth="yes"/>
      <point x="337" y="125" smooth="yes"/>
      <point x="337" y="93" type="curve" smooth="yes" name="hr01"/>
      <point x="337" y="18" smooth="yes"/>
      <point x="366" y="-6" smooth="yes"/>
      <point x="413" y="-6" type="curve" smooth="yes"/>
      <point x="430" y="-6"/>
      <point x="459" y="0"/>
      <point x="485" y="24" type="curve"/>
      <point x="457" y="51" smooth="yes"/>
      <point x="449" y="75" smooth="yes"/>
      <point x="449" y="109" type="curve" smooth="yes"/>
      <point x="449" y="128"/>
      <point x="452" y="153"/>
      <point x="456" y="180" type="curve"/>
      <point x="487" y="174"/>
      <point x="514" y="167"/>
      <point x="532" y="159" type="curve"/>
      <point x="533" y="171" smooth="yes"/>
      <point x="534" y="183" smooth="yes"/>
      <point x="534" y="194" type="curve" smooth="yes"/>
      <point x="534" y="235"/>
      <point x="509" y="257"/>
      <point x="471" y="268" type="curve"/>
      <point x="479" y="312" smooth="yes"/>
      <point x="486" y="353" smooth="yes"/>
      <point x="486" y="378" type="curve" smooth="yes" name="hr02"/>
      <point x="486" y="433" smooth="yes"/>
      <point x="464" y="452" smooth="yes"/>
      <point x="424" y="452" type="curve" smooth="yes"/>
      <point x="404" y="452"/>
      <point x="371" y="443"/>
      <point x="357" y="433" type="curve"/>
      <point x="371" y="408" smooth="yes"/>
      <point x="374" y="381" smooth="yes"/>
      <point x="374" y="352" type="curve" smooth="yes"/>
      <point x="374" y="333"/>
      <point x="370" y="307"/>
      <point x="364" y="279" type="curve"/>
      <point x="293" y="278"/>
      <point x="192" y="266"/>
      <point x="100" y="242" type="curve"/>
      <point x="248" y="434" smooth="yes"/>
      <point x="376" y="693" smooth="yes"/>
    </contour>
  </outline>
</glyph>
<glyph name="five" format="1">
  <advance width="679"/>
  <unicode hex="0035"/>
  <outline>
    <contour>
      <point x="250" y="58" type="curve" smooth="yes" name="hr00"/>
      <point x="159" y="58"/>
      <point x="116" y="113"/>
      <point x="100" y="189" type="curve"/>
      <point x="50" y="170" smooth="yes"/>
      <point x="31" y="147" smooth="yes"/>
      <point x="31" y="123" type="curve" smooth="yes"/>
      <point x="31" y="54" smooth="yes"/>
      <point x="114" y="-16" smooth="yes"/>
      <point x="226" y="-16" type="curve" smooth="yes"/>
      <point x="476" y="-16" smooth="yes"/>
      <point x="569" y="168" smooth="yes"/>
      <point x="569" y="280" type="curve" smooth="yes"/>
      <point x="569" y="385" smooth="yes"/>
      <point x="501" y="491" smooth="yes"/>
      <point x="281" y="491" type="curve" smooth="yes"/>
      <point x="256" y="491"/>
      <point x="229" y="490"/>
      <point x="200" y="487" type="curve"/>
      <point x="220" y="603"/>
      <point x="241" y="713"/>
      <point x="242" y="777" type="curve"/>
      <point x="310" y="761" smooth="yes"/>
      <point x="378" y="755" smooth="yes"/>
      <point x="411" y="755" type="curve" smooth="yes"/>
      <point x="504" y="755" smooth="yes"/>
      <point x="563" y="763" smooth="yes"/>
      <point x="563" y="850" type="curve" smooth="yes"/>
      <point x="563" y="860"/>
      <point x="562" y="873"/>
      <point x="561" y="884" type="curve"/>
      <point x="500" y="860" smooth="yes"/>
      <point x="445" y="852" smooth="yes"/>
      <point x="311" y="852" type="curve" smooth="yes"/>
      <point x="278" y="852"/>
      <point x="253" y="852"/>
      <point x="231" y="853" type="curve"/>
      <point x="220" y="879" smooth="yes"/>
      <point x="200" y="889" smooth="yes"/>
      <point x="173" y="889" type="curve" smooth="yes"/>
      <point x="153" y="889"/>
      <point x="121" y="879"/>
      <point x="106" y="866" type="curve"/>
      <point x="126" y="826" smooth="yes"/>
      <point x="127" y="779" smooth="yes"/>
      <point x="127" y="731" type="curve" smooth="yes"/>
      <point x="127" y="594" smooth="yes"/>
      <point x="93" y="441" smooth="yes"/>
      <point x="93" y="422" type="curve" smooth="yes"/>
      <point x="93" y="414" smooth="yes"/>
      <point x="96" y="407" smooth="yes"/>
      <point x="106" y="407" type="curve" smooth="yes"/>
      <point x="118" y="407" smooth="yes"/>
      <point x="177" y="430" smooth="yes"/>
      <point x="262" y="430" type="curve" smooth="yes"/>
      <point x="416" y="430" smooth="yes"/>
      <point x="451" y="331" smooth="yes"/>
      <point x="451" y="263" type="curve" smooth="yes"/>
      <point x="451" y="166" smooth="yes"/>
      <point x="379" y="58" smooth="yes"/>
    </contour>
  </outline>
</glyph>
<glyph name="eight" format="1">
  <advance width="688"/>
  <unicode hex="0038"/>
  <outline>
    <contour>
      <point x="444" y="483" type="curve"/>
      <point x="506" y="518" smooth="yes"/>
      <point x="597" y="588" smooth="yes"/>
      <point x="597" y="711" type="curve" smooth="yes"/>
      <point x="597" y="798" smooth="yes"/>
      <point x="534" y="887" smooth="yes"/>
      <point x="378" y="887" type="curve" smooth="yes"/>
      <point x="204" y="887" smooth="yes"/>
      <point x="95" y="797" smooth="yes"/>
      <point x="95" y="660" type="curve" smooth="yes"/>
      <point x="95" y="561"/>
      <point x="159" y="492"/>
      <point x="235" y="434" type="curve"/>
      <point x="96" y="386" smooth="yes"/>
      <point x="33" y="291" smooth="yes"/>
      <point x="33" y="189" type="curve" smooth="yes" name="hr01"/>
      <point x="33" y="85" smooth="yes"/>
      <point x="106" y="-16" smooth="yes"/>
      <point x="287" y="-16" type="curve" smooth="yes"/>
      <point x="463" y="-16" smooth="yes"/>
      <point x="577" y="79" smooth="yes"/>
      <point x="577" y="209" type="curve" smooth="yes"/>
      <point x="577" y="439" smooth="yes"/>
      <point x="204" y="485" smooth="yes"/>
      <point x="204" y="673" type="curve" smooth="yes" name="hr02"/>
      <point x="204" y="759" smooth="yes"/>
      <point x="271" y="812" smooth="yes"/>
      <point x="354" y="812" type="curve" smooth="yes"/>
      <point x="447" y="812" smooth="yes"/>
      <point x="492" y="754" smooth="yes"/>
      <point x="492" y="692" type="curve" smooth="yes"/>
      <point x="492" y="568" smooth="yes"/>
      <point x="402" y="529" smooth="yes"/>
      <point x="402" y="514" type="curve" smooth="yes"/>
      <point x="402" y="500"/>
      <point x="427" y="486"/>
    </contour>
    <contour>
      <point x="466" y="202" type="curve" smooth="yes" name="hr03"/>
      <point x="466" y="105" smooth="yes"/>
      <point x="366" y="59" smooth="yes"/>
      <point x="292" y="59" type="curve" smooth="yes"/>
      <point x="200" y="59" smooth="yes"/>
      <point x="137" y="118" smooth="yes"/>
      <point x="137" y="194" type="curve" smooth="yes"/>
      <point x="137" y="270"/>
      <point x="204" y="344"/>
      <point x="277" y="402" type="curve"/>
      <point x="371" y="336" smooth="yes"/>
      <point x="466" y="281" smooth="yes"/>
    </contour>
  </outline>
</glyph>
<glyph name="nine" format="1">
  <advance width="655"/>
  <unicode hex="0039"/>
  <outline>
    <contour>
      <point x="326" y="887" type="curve" smooth="yes" name="hr00"/>
      <point x="107" y="887" smooth="yes"/>
      <point x="28" y="702" smooth="yes"/>
      <point x="28" y="591" type="curve" smooth="yes"/>
      <point x="28" y="439" smooth="yes"/>
      <point x="131" y="365" smooth="yes"/>
      <point x="256" y="365" type="curve" smooth="yes"/>
      <point x="305" y="365"/>
      <point x="357" y="376"/>
      <point x="409" y="399" type="curve"/>
      <point x="417" y="415" smooth="yes"/>
      <point x="421" y="434" smooth="yes"/>
      <point x="421" y="450" type="curve" smooth="yes"/>
      <point x="421" y="462" smooth="yes"/>
      <point x="414" y="466" smooth="yes"/>
      <point x="407" y="466" type="curve" smooth="yes"/>
      <point x="398" y="466" smooth="yes"/>
      <point x="350" y="434" smooth="yes"/>
      <point x="284" y="434" type="curve" smooth="yes"/>
      <point x="207" y="434" smooth="yes"/>
      <point x="146" y="482" smooth="yes"/>
      <point x="146" y="608" type="curve" smooth="yes"/>
      <point x="146" y="705" smooth="yes"/>
      <point x="203" y="810" smooth="yes"/>
      <point x="310" y="810" type="curve" smooth="yes"/>
      <point x="424" y="810" smooth="yes"/>
      <point x="464" y="704" smooth="yes"/>
      <point x="464" y="488" type="curve" smooth="yes"/>
      <point x="464" y="366" smooth="yes"/>
      <point x="400" y="70" smooth="yes"/>
      <point x="228" y="70" type="curve" smooth="yes"/>
      <point x="164" y="70"/>
      <point x="121" y="79"/>
      <point x="82" y="130" type="curve"/>
      <point x="62" y="117" smooth="yes"/>
      <point x="44" y="88" smooth="yes"/>
      <point x="44" y="65" type="curve" smooth="yes"/>
      <point x="44" y="8" smooth="yes"/>
      <point x="97" y="-16" smooth="yes"/>
      <point x="179" y="-16" type="curve" smooth="yes"/>
      <point x="434" y="-16" smooth="yes"/>
      <point x="572" y="285" smooth="yes"/>
      <point x="572" y="534" type="curve" smooth="yes"/>
      <point x="572" y="733" smooth="yes"/>
      <point x="486" y="887" smooth="yes"/>
    </contour>
  </outline>
</glyph>
<glyph name="colon" format="1">
  <advance width="295"/>
  <unicode hex="003A"/>
  <outline>
    <contour>
      <point x="225" y="83" type="curve" smooth="yes" name="hr00"/>
      <point x="225" y="119" smooth="yes"/>
      <point x="194" y="133" smooth="yes"/>
      <point x="159" y="133" type="curve" smooth="yes"/>
      <point x="133" y="133"/>
      <point x="107" y="124"/>
      <point x="79" y="106" type="curve"/>
      <point x="74" y="79" smooth="yes"/>
      <point x="71" y="57" smooth="yes"/>
      <point x="71" y="41" type="curve" smooth="yes"/>
      <point x="71" y="4" smooth="yes"/>
      <point x="87" y="-14" smooth="yes"/>
      <point x="133" y="-14" type="curve" smooth="yes"/>
      <point x="157" y="-14"/>
      <point x="184" y="-4"/>
      <point x="212" y="14" type="curve"/>
      <point x="221" y="42" smooth="yes"/>
      <point x="225" y="66" smooth="yes"/>
    </contour>
    <contour>
      <point x="250" y="599" type="curve" smooth="yes"/>
      <point x="250" y="635" smooth="yes"/>
      <point x="219" y="649" smooth="yes"/>
      <point x="184" y="649" type="curve" smooth="yes"/>
      <point x="158" y="649"/>
      <point x="132" y="640"/>
      <point x="104" y="622" type="curve"/>
      <point x="99" y="595" smooth="yes"/>
      <point x="96" y="573" smooth="yes"/>
      <point x="96" y="557" type="curve" smooth="yes"/>
      <point x="96" y="520" smooth="yes"/>
      <point x="112" y="502" smooth="yes"/>
      <point x="158" y="502" type="curve" smooth="yes"/>
      <point x="182" y="502"/>
      <point x="209" y="512"/>
      <point x="237" y="530" type="curve"/>
      <point x="246" y="558" smooth="yes"/>
      <point x="250" y="582" smooth="yes"/>
    </contour>
  </outline>
</glyph>
<glyph name="less" format="1">
  <advance width="544"/>
  <unicode hex="003C"/>
  <outline>
    <contour>
      <point x="458" y="292" type="curve" name="hr00"/>
      <point x="393" y="297"/>
      <point x="268" y="391"/>
      <point x="162" y="463" type="curve"/>
      <point x="243" y="503" smooth="yes"/>
      <point x="366" y="535" smooth="yes"/>
      <point x="422" y="562" type="curve" smooth="yes"/>
      <point x="446" y="574" smooth="yes"/>
      <point x="460" y="591" smooth="yes"/>
      <point x="460" y="610" type="curve" smooth="yes"/>
      <point x="460" y="639"/>
      <point x="431" y="666"/>
      <point x="411" y="679" type="curve"/>
      <point x="374" y="627" smooth="yes"/>
      <point x="230" y="584" smooth="yes"/>
      <point x="113" y="530" type="curve" smooth="yes"/>
      <point x="69" y="510"/>
      <point x="25" y="479"/>
      <point x="25" y="428" type="curve"/>
      <point x="123" y="411" smooth="yes"/>
      <point x="282" y="278" smooth="yes"/>
      <point x="362" y="224" type="curve" smooth="yes"/>
      <point x="376" y="215" smooth="yes"/>
      <point x="389" y="210" smooth="yes"/>
      <point x="402" y="210" type="curve" smooth="yes"/>
      <point x="443" y="210"/>
      <point x="456" y="261"/>
    </contour>
  </outline>
</glyph>
<glyph name="at" format="1">
  <advance width="1116"/>
  <unicode hex="0040"/>
  <outline>
    <contour>
      <point x="788" y="198" type="curve" smooth="yes"/>
      <point x="721" y="198" smooth="yes"/>
      <point x="721" y="286" smooth="yes"/>
      <point x="721" y="373" type="curve" smooth="yes"/>
      <point x="721" y="476"/>
      <point x="736" y="606"/>
      <point x="754" y="654" type="curve"/>
      <point x="738" y="673" smooth="yes"/>
      <point x="724" y="680" smooth="yes"/>
      <point x="706" y="680" type="curve" smooth="yes"/>
      <point x="683" y="680"/>
      <point x="670" y="670"/>
      <point x="662" y="645" type="curve"/>
      <point x="635" y="672" smooth="yes"/>
      <point x="600" y="687" smooth="yes"/>
      <point x="561" y="687" type="curve" smooth="yes" name="hr01"/>
      <point x="436" y="687" smooth="yes"/>
      <point x="329" y="539" smooth="yes"/>
      <point x="329" y="350" type="curve" smooth="yes"/>
      <point x="329" y="230" smooth="yes"/>
      <point x="382" y="158" smooth="yes"/>
      <point x="454" y="158" type="curve" smooth="yes"/>
      <point x="506" y="158"/>
      <point x="577" y="244"/>
      <point x="628" y="364" type="curve"/>
      <point x="628" y="226" smooth="yes"/>
      <point x="645" y="130" smooth="yes"/>
      <point x="783" y="130" type="curve" smooth="yes" name="hr02"/>
      <point x="948" y="130" smooth="yes"/>
      <point x="1042" y="326" smooth="yes"/>
      <point x="1042" y="510" type="curve" smooth="yes"/>
      <point x="1042" y="778" smooth="yes"/>
      <point x="889" y="929" smooth="yes"/>
      <point x="613" y="929" type="curve" smooth="yes"/>
      <point x="301" y="929" smooth="yes"/>
      <point x="73" y="662" smooth="yes"/>
      <point x="73" y="354" type="curve" smooth="yes"/>
      <point x="73" y="51" smooth="yes"/>
      <point x="219" y="-101" smooth="yes"/>
      <point x="504" y="-101" type="curve" smooth="yes"/>
      <point x="655" y="-101" smooth="yes"/>
      <point x="839" y="-60" smooth="yes"/>
      <point x="839" y="-12" type="curve" smooth="yes"/>
      <point x="839" y="15"/>
      <point x="826" y="40"/>
      <point x="809" y="63" type="curve"/>
      <point x="720" y="8" smooth="yes"/>
      <point x="618" y="-33" smooth="yes"/>
      <point x="504" y="-33" type="curve" smooth="yes"/>
      <point x="283" y="-33" smooth="yes"/>
      <point x="176" y="98" smooth="yes"/>
      <point x="176" y="358" type="curve" smooth="yes"/>
      <point x="176" y="625" smooth="yes"/>
      <point x="338" y="861" smooth="yes"/>
      <point x="591" y="861" type="curve" smooth="yes"/>
      <point x="830" y="861" smooth="yes"/>
      <point x="940" y="732" smooth="yes"/>
      <point x="940" y="479" type="curve" smooth="yes"/>
      <point x="940" y="300" smooth="yes"/>
      <point x="872" y="198" smooth="yes"/>
    </contour>
    <contour>
      <point x="479" y="250" type="curve" smooth="yes" name="hr03"/>
      <point x="448" y="250" smooth="yes"/>
      <point x="430" y="295" smooth="yes"/>
      <point x="430" y="368" type="curve" smooth="yes"/>
      <point x="430" y="517" smooth="yes"/>
      <point x="485" y="622" smooth="yes"/>
      <point x="564" y="622" type="curve" smooth="yes"/>
      <point x="591" y="622"/>
      <point x="621" y="610"/>
      <point x="651" y="587" type="curve"/>
      <point x="635" y="452" smooth="yes"/>
      <point x="531" y="250" smooth="yes"/>
    </contour>
  </outline>
</glyph>
<glyph name="B" format="1">
  <advance width="663"/>
  <unicode hex="0042"/>
  <outline>
    <contour>
      <point x="612" y="711" type="curve" smooth="yes"/>
      <point x="612" y="805" smooth="yes"/>
      <point x="531" y="887" smooth="yes"/>
      <point x="361" y="887" type="curve" smooth="yes"/>
      <point x="294" y="887"/>
      <point x="223" y="876"/>
      <point x="159" y="864" type="curve"/>
      <point x="167" y="839" smooth="yes"/>
      <point x="174" y="793" smooth="yes"/>
      <point x="174" y="765" type="curve" smooth="yes"/>
      <point x="174" y="598" smooth="yes"/>
      <point x="98" y="237" smooth="yes"/>
      <point x="98" y="116" type="curve" smooth="yes" name="hr01"/>
      <point x="98" y="27" smooth="yes"/>
      <point x="150" y="-11" smooth="yes"/>
      <point x="283" y="-11" type="curve" smooth="yes"/>
      <point x="533" y="-11" smooth="yes"/>
      <point x="626" y="178" smooth="yes"/>
      <point x="626" y="290" type="curve" smooth="yes"/>
      <point x="626" y="395"/>
      <point x="563" y="459"/>
      <point x="432" y="479" type="curve"/>
      <point x="550" y="536" smooth="yes"/>
      <point x="612" y="627" smooth="yes"/>
    </contour>
    <contour>
      <point x="207" y="160" type="curve" smooth="yes"/>
      <point x="207" y="231"/>
      <point x="219" y="328"/>
      <point x="234" y="427" type="curve"/>
      <point x="264" y="430"/>
      <point x="293" y="435"/>
      <point x="320" y="441" type="curve"/>
      <point x="465" y="437" smooth="yes"/>
      <point x="519" y="354" smooth="yes"/>
      <point x="519" y="267" type="curve" smooth="yes" name="hr03"/>
      <point x="519" y="166" smooth="yes"/>
      <point x="444" y="59" smooth="yes"/>
      <point x="310" y="59" type="curve" smooth="yes"/>
      <point x="268" y="59"/>
      <point x="238" y="69"/>
      <point x="215" y="84" type="curve"/>
      <point x="210" y="103" smooth="yes"/>
      <point x="207" y="127" smooth="yes"/>
    </contour>
    <contour>
      <point x="287" y="822" type="curve" name="hr04"/>
      <point x="309" y="826" smooth="yes"/>
      <point x="330" y="829" smooth="yes"/>
      <point x="350" y="829" type="curve" smooth="yes"/>
      <point x="464" y="829" smooth="yes"/>
      <point x="507" y="757" smooth="yes"/>
      <point x="507" y="678" type="curve" smooth="yes"/>
      <point x="507" y="589"/>
      <point x="430" y="493"/>
      <point x="242" y="482" type="curve"/>
      <point x="263" y="616"/>
      <point x="286" y="748"/>
    </contour>
  </outline>
</glyph>
<glyph name="H" format="1">
  <advance width="782"/>
  <unicode hex="0048"/>
  <outline>
    <contour>
      <point x="631" y="166" type="curve" smooth="yes"/>
      <point x="631" y="352" smooth="yes"/>
      <point x="708" y="661" smooth="yes"/>
      <point x="708" y="783" type="curve" smooth="yes" name="hr01"/>
      <point x="708" y="862" smooth="yes"/>
      <point x="685" y="889" smooth="yes"/>
      <point x="640" y="889" type="curve" smooth="yes"/>
      <point x="620" y="889"/>
      <point x="587" y="879"/>
      <point x="573" y="866" type="curve"/>
      <point x="593" y="826" smooth="yes"/>
      <point x="594" y="779" smooth="yes"/>
      <point x="594" y="731" type="curve" smooth="yes"/>
      <point x="594" y="661"/>
      <point x="581" y="565"/>
      <point x="567" y="468" type="curve"/>
      <point x="240" y="468" type="line"/>
      <point x="261" y="595" smooth="yes"/>
      <point x="284" y="716" smooth="yes"/>
      <point x="284" y="783" type="curve" smooth="yes"/>
      <point x="284" y="862" smooth="yes"/>
      <point x="260" y="889" smooth="yes"/>
      <point x="215" y="889" type="curve" smooth="yes"/>
      <point x="196" y="889"/>
      <point x="163" y="879"/>
      <point x="148" y="866" type="curve"/>
      <point x="168" y="826" smooth="yes"/>
      <point x="169" y="779" smooth="yes"/>
      <point x="169" y="731" type="curve" smooth="yes"/>
      <point x="169" y="563" smooth="yes"/>
      <point x="98" y="246" smooth="yes"/>
      <point x="98" y="125" type="curve" smooth="yes" name="hr02"/>
      <point x="98" y="24" smooth="yes"/>
      <point x="129" y="-7" smooth="yes"/>
      <point x="176" y="-7" type="curve" smooth="yes"/>
      <point x="192" y="-7"/>
      <point x="220" y="0"/>
      <point x="245" y="29" type="curve"/>
      <point x="212" y="65" smooth="yes"/>
      <point x="207" y="114" smooth="yes"/>
      <point x="207" y="166" type="curve" smooth="yes"/>
      <point x="207" y="231"/>
      <point x="216" y="312"/>
      <point x="229" y="395" type="curve"/>
      <point x="556" y="395" type="line"/>
      <point x="539" y="285" smooth="yes"/>
      <point x="522" y="183" smooth="yes"/>
      <point x="522" y="125" type="curve" smooth="yes"/>
      <point x="522" y="24" smooth="yes"/>
      <point x="553" y="-7" smooth="yes"/>
      <point x="600" y="-7" type="curve" smooth="yes"/>
      <point x="617" y="-7"/>
      <point x="645" y="0"/>
      <point x="669" y="29" type="curve"/>
      <point x="637" y="65" smooth="yes"/>
      <point x="631" y="114" smooth="yes"/>
    </contour>
  </outline>
</glyph>
<glyph name="J" format="1">
  <advance width="336"/>
  <unicode hex="004A"/>
  <outline>
    <contour>
      <point x="276" y="783" type="curve" smooth="yes" name="hr00"/>
      <point x="276" y="862" smooth="yes"/>
      <point x="252" y="889" smooth="yes"/>
      <point x="208" y="889" type="curve" smooth="yes"/>
      <point x="188" y="889"/>
      <point x="155" y="879"/>
      <point x="141" y="866" type="curve"/>
      <point x="161" y="826" smooth="yes"/>
      <point x="162" y="779" smooth="yes"/>
      <point x="162" y="731" type="curve" smooth="yes"/>
      <point x="162" y="438" smooth="yes"/>
      <point x="123" y="-149" smooth="yes"/>
      <point x="-64" y="-149" type="curve" smooth="yes"/>
      <point x="-132" y="-149"/>
      <point x="-156" y="-108"/>
      <point x="-176" y="-51" type="curve"/>
      <point x="-191" y="-65" smooth="yes"/>
      <point x="-212" y="-91" smooth="yes"/>
      <point x="-212" y="-130" type="curve" smooth="yes"/>
      <point x="-212" y="-208" smooth="yes"/>
      <point x="-142" y="-229" smooth="yes"/>
      <point x="-92" y="-229" type="curve" smooth="yes"/>
      <point x="202" y="-229" smooth="yes"/>
      <point x="276" y="404" smooth="yes"/>
    </contour>
  </outline>
</glyph>
<glyph name="L" format="1">
  <advance width="562"/>
  <unicode hex="004C"/>
  <outline>
    <contour>
      <point x="284" y="783" type="curve" smooth="yes"/>
      <point x="284" y="862" smooth="yes"/>
      <point x="260" y="889" smooth="yes"/>
      <point x="215" y="889" type="curve" smooth="yes"/>
      <point x="196" y="889"/>
      <point x="163" y="879"/>
      <point x="148" y="866" type="curve"/>
      <point x="168" y="826" smooth="yes"/>
      <point x="169" y="779" smooth="yes"/>
      <point x="169" y="731" type="curve" smooth="yes"/>
      <point x="169" y="539" smooth="yes"/>
      <point x="86" y="230" smooth="yes"/>
      <point x="86" y="89" type="curve" smooth="yes" name="hr01"/>
      <point x="86" y="20" smooth="yes"/>
      <point x="115" y="-8" smooth="yes"/>
      <point x="158" y="-8" type="curve" smooth="yes"/>
      <point x="172" y="-8"/>
      <point x="193" y="-4"/>
      <point x="214" y="11" type="curve" name="hr02"/>
      <point x="282" y="1" smooth="yes"/>
      <point x="368" y="-10" smooth="yes"/>
      <point x="410" y="-10" type="curve" smooth="yes"/>
      <point x="502" y="-10"/>
      <point x="554" y="-5"/>
      <point x="562" y="105" type="curve"/>
      <point x="526" y="85" smooth="yes"/>
      <point x="426" y="79" smooth="yes"/>
      <point x="329" y="79" type="curve" smooth="yes" name="hr03"/>
      <point x="283" y="79"/>
      <point x="238" y="80"/>
      <point x="200" y="82" type="curve"/>
      <point x="199" y="92" smooth="yes"/>
      <point x="199" y="102" smooth="yes"/>
      <point x="199" y="112" type="curve" smooth="yes"/>
      <point x="199" y="304" smooth="yes"/>
      <point x="284" y="647" smooth="yes"/>
    </contour>
  </outline>
</glyph>
<glyph name="M" format="1">
  <advance width="886"/>
  <unicode hex="004D"/>
  <outline>
    <contour>
      <point x="761" y="166" type="curve" smooth="yes"/>
      <point x="761" y="352" smooth="yes"/>
      <point x="838" y="661" smooth="yes"/>
      <point x="838" y="783" type="curve" smooth="yes" name="hr01"/>
      <point x="838" y="862" smooth="yes"/>
      <point x="814" y="889" smooth="yes"/>
      <point x="770" y="889" type="curve" smooth="yes"/>
      <point x="726" y="889"/>
      <point x="693" y="874"/>
      <point x="678" y="861" type="curve"/>
      <point x="678" y="768"/>
      <point x="521" y="493"/>
      <point x="460" y="330" type="curve"/>
      <point x="405" y="507" smooth="yes"/>
      <point x="390" y="646" smooth="yes"/>
      <point x="353" y="766" type="curve" smooth="yes"/>
      <point x="323" y="864" smooth="yes"/>
      <point x="277" y="888" smooth="yes"/>
      <point x="213" y="889" type="curve" smooth="yes"/>
      <point x="185" y="889"/>
      <point x="161" y="879"/>
      <point x="148" y="866" type="curve"/>
      <point x="168" y="826" smooth="yes"/>
      <point x="169" y="779" smooth="yes"/>
      <point x="169" y="731" type="curve" smooth="yes"/>
      <point x="169" y="563" smooth="yes"/>
      <point x="98" y="246" smooth="yes"/>
      <point x="98" y="125" type="curve" smooth="yes"/>
      <point x="98" y="24" smooth="yes"/>
      <point x="129" y="-7" smooth="yes"/>
      <point x="171" y="-7" type="curve" smooth="yes"/>
      <point x="188" y="-7"/>
      <point x="215" y="0"/>
      <point x="226" y="29" type="curve"/>
      <point x="193" y="65" smooth="yes"/>
      <point x="187" y="114" smooth="yes"/>
      <point x="187" y="166" type="curve" smooth="yes"/>
      <point x="187" y="324"/>
      <point x="243" y="571"/>
      <point x="260" y="716" type="curve"/>
      <point x="298" y="580" smooth="yes"/>
      <point x="307" y="515" smooth="yes"/>
      <point x="345" y="362" type="curve" smooth="yes"/>
      <point x="379" y="226" smooth="yes"/>
      <point x="404" y="207" smooth="yes"/>
      <point x="460" y="207" type="curve" smooth="yes"/>
      <point x="489" y="207"/>
      <point x="520" y="218"/>
      <point x="529" y="230" type="curve"/>
      <point x="528" y="238" smooth="yes"/>
      <point x="527" y="246" smooth="yes"/>
      <point x="527" y="254" type="curve" smooth="yes"/>
      <point x="527" y="288" smooth="yes"/>
      <point x="539" y="326" smooth="yes"/>
      <point x="552" y="365" type="curve" smooth="yes"/>
      <point x="583" y="462"/>
      <point x="659" y="609"/>
      <point x="724" y="740" type="curve"/>
      <point x="724" y="563" smooth="yes"/>
      <point x="652" y="246" smooth="yes"/>
      <point x="652" y="125" type="curve" smooth="yes" name="hr02"/>
      <point x="652" y="24" smooth="yes"/>
      <point x="683" y="-7" smooth="yes"/>
      <point x="730" y="-7" type="curve" smooth="yes"/>
      <point x="747" y="-7"/>
      <point x="774" y="0"/>
      <point x="799" y="29" type="curve"/>
      <point x="767" y="65" smooth="yes"/>
      <point x="761" y="114" smooth="yes"/>
    </contour>
  </outline>
</glyph>
<glyph name="O" format="1">
  <advance width="782"/>
  <unicode hex="004F"/>
  <outline>
    <contour>
      <point x="630" y="487" type="curve" smooth="yes" name="hr00"/>
      <point x="630" y="364" smooth="yes"/>
      <point x="587" y="57" smooth="yes"/>
      <point x="405" y="57" type="curve" smooth="yes"/>
      <point x="271" y="57" smooth="yes"/>
      <point x="186" y="167" smooth="yes"/>
      <point x="186" y="380" type="curve" smooth="yes"/>
      <point x="186" y="503" smooth="yes"/>
      <point x="229" y="810" smooth="yes"/>
      <point x="411" y="810" type="curve" smooth="yes"/>
      <point x="545" y="810" smooth="yes"/>
      <point x="630" y="700" smooth="yes"/>
    </contour>
    <contour>
      <point x="344" y="-21" type="curve" smooth="yes"/>
      <point x="606" y="-21" smooth="yes"/>
      <point x="738" y="281" smooth="yes"/>
      <point x="738" y="531" type="curve" smooth="yes"/>
      <point x="738" y="729" smooth="yes"/>
      <point x="645" y="889" smooth="yes"/>
      <point x="472" y="889" type="curve" smooth="yes"/>
      <point x="209" y="889" smooth="yes"/>
      <point x="78" y="586" smooth="yes"/>
      <point x="78" y="336" type="curve" smooth="yes"/>
      <point x="78" y="138" smooth="yes"/>
      <point x="171" y="-21" smooth="yes"/>
    </contour>
  </outline>
</glyph>
<glyph name="Q" format="1">
  <advance width="772"/>
  <unicode hex="0051"/>
  <outline>
    <contour>
      <point x="339" y="-21" type="curve" smooth="yes" name="hr00"/>
      <point x="351" y="-21"/>
      <point x="363" y="-20"/>
      <point x="375" y="-19" type="curve"/>
      <point x="482" y="-98" smooth="yes"/>
      <point x="573" y="-205" smooth="yes"/>
      <point x="667" y="-205" type="curve" smooth="yes"/>
      <point x="733" y="-205"/>
      <point x="773" y="-159"/>
      <point x="773" y="-100" type="curve"/>
      <point x="759" y="-103" smooth="yes"/>
      <point x="744" y="-104" smooth="yes"/>
      <point x="730" y="-104" type="curve" smooth="yes"/>
      <point x="637" y="-104"/>
      <point x="540" y="-54"/>
      <point x="446" y="-2" type="curve"/>
      <point x="637" y="67" smooth="yes"/>
      <point x="733" y="318" smooth="yes"/>
      <point x="733" y="531" type="curve" smooth="yes"/>
      <point x="733" y="729" smooth="yes"/>
      <point x="640" y="889" smooth="yes"/>
      <point x="467" y="889" type="curve" smooth="yes"/>
      <point x="204" y="889" smooth="yes"/>
      <point x="73" y="586" smooth="yes"/>
      <point x="73" y="336" type="curve" smooth="yes"/>
      <point x="73" y="138" smooth="yes"/>
      <point x="166" y="-21" smooth="yes"/>
    </contour>
    <contour>
      <point x="625" y="487" type="curve" smooth="yes"/>
      <point x="625" y="364" smooth="yes"/>
      <point x="582" y="57" smooth="yes"/>
      <point x="400" y="57" type="curve" smooth="yes"/>
      <point x="266" y="57" smooth="yes"/>
      <point x="181" y="167" smooth="yes"/>
      <point x="181" y="380" type="curve" smooth="yes"/>
      <point x="181" y="503" smooth="yes"/>
      <point x="224" y="810" smooth="yes"/>
      <point x="406" y="810" type="curve" smooth="yes"/>
      <point x="540" y="810" smooth="yes"/>
      <point x="625" y="700" smooth="yes"/>
    </contour>
  </outline>
</glyph>
<glyph name="S" format="1">
  <advance width="563"/>
  <unicode hex="0053"/>
  <outline>
    <contour>
      <point x="315" y="815" type="curve" smooth="yes" name="hr00"/>
      <point x="402" y="815"/>
      <point x="465" y="756"/>
      <point x="490" y="695" type="curve"/>
      <point x="508" y="711" smooth="yes"/>
      <point x="535" y="743" smooth="yes"/>
      <point x="535" y="780" type="curve" smooth="yes"/>
      <point x="535" y="855" smooth="yes"/>
      <point x="453" y="889" smooth="yes"/>
      <point x="365" y="889" type="curve" smooth="yes"/>
      <point x="207" y="889" smooth="yes"/>
      <point x="94" y="805" smooth="yes"/>
      <point x="94" y="654" type="curve" smooth="yes"/>
      <point x="94" y="559" smooth="yes"/>
      <point x="146" y="501" smooth="yes"/>
      <point x="213" y="447" type="curve" smooth="yes"/>
      <point x="364" y="325" smooth="yes"/>
      <point x="434" y="282" smooth="yes"/>
      <point x="434" y="180" type="curve" smooth="yes"/>
      <point x="434" y="86" smooth="yes"/>
      <point x="355" y="49" smooth="yes"/>
      <point x="288" y="49" type="curve" smooth="yes"/>
      <point x="187" y="49"/>
      <point x="113" y="105"/>
      <point x="83" y="227" type="curve"/>
      <point x="56" y="196" smooth="yes"/>
      <point x="32" y="166" smooth="yes"/>
      <point x="32" y="123" type="curve" smooth="yes"/>
      <point x="32" y="27" smooth="yes"/>
      <point x="151" y="-17" smooth="yes"/>
      <point x="262" y="-17" type="curve" smooth="yes"/>
      <point x="421" y="-17" smooth="yes"/>
      <point x="533" y="84" smooth="yes"/>
      <point x="533" y="211" type="curve" smooth="yes"/>
      <point x="533" y="317" smooth="yes"/>
      <point x="487" y="369" smooth="yes"/>
      <point x="416" y="430" type="curve" smooth="yes"/>
      <point x="230" y="588" smooth="yes"/>
      <point x="187" y="590" smooth="yes"/>
      <point x="187" y="684" type="curve" smooth="yes"/>
      <point x="187" y="770" smooth="yes"/>
      <point x="247" y="815" smooth="yes"/>
    </contour>
  </outline>
</glyph>
<glyph name="U" format="1">
  <advance width="742"/>
  <unicode hex="0055"/>
  <outline>
    <contour>
      <point x="252" y="80" type="curve" smooth="yes"/>
      <point x="214" y="80" smooth="yes"/>
      <point x="202" y="112" smooth="yes"/>
      <point x="202" y="158" type="curve" smooth="yes"/>
      <point x="202" y="344" smooth="yes"/>
      <point x="280" y="661" smooth="yes"/>
      <point x="280" y="783" type="curve" smooth="yes" name="hr01"/>
      <point x="280" y="862" smooth="yes"/>
      <point x="256" y="889" smooth="yes"/>
      <point x="211" y="889" type="curve" smooth="yes"/>
      <point x="191" y="889"/>
      <point x="159" y="879"/>
      <point x="144" y="866" type="curve"/>
      <point x="164" y="826" smooth="yes"/>
      <point x="165" y="779" smooth="yes"/>
      <point x="165" y="731" type="curve" smooth="yes"/>
      <point x="165" y="563" smooth="yes"/>
      <point x="98" y="273" smooth="yes"/>
      <point x="98" y="153" type="curve" smooth="yes" name="hr02"/>
      <point x="98" y="68" smooth="yes"/>
      <point x="122" y="-16" smooth="yes"/>
      <point x="223" y="-16" type="curve" smooth="yes"/>
      <point x="301" y="-16"/>
      <point x="431" y="106"/>
      <point x="519" y="243" type="curve"/>
      <point x="512" y="196" smooth="yes"/>
      <point x="508" y="154" smooth="yes"/>
      <point x="508" y="125" type="curve" smooth="yes"/>
      <point x="508" y="24" smooth="yes"/>
      <point x="539" y="-7" smooth="yes"/>
      <point x="586" y="-7" type="curve" smooth="yes" name="hr03"/>
      <point x="603" y="-7"/>
      <point x="630" y="0"/>
      <point x="655" y="29" type="curve"/>
      <point x="623" y="65" smooth="yes"/>
      <point x="617" y="114" smooth="yes"/>
      <point x="617" y="166" type="curve" smooth="yes"/>
      <point x="617" y="352" smooth="yes"/>
      <point x="694" y="661" smooth="yes"/>
      <point x="694" y="783" type="curve" smooth="yes" name="hr04"/>
      <point x="694" y="862" smooth="yes"/>
      <point x="670" y="889" smooth="yes"/>
      <point x="625" y="889" type="curve" smooth="yes"/>
      <point x="606" y="889"/>
      <point x="573" y="879"/>
      <point x="559" y="866" type="curve"/>
      <point x="579" y="826" smooth="yes"/>
      <point x="580" y="779" smooth="yes"/>
      <point x="580" y="731" type="curve" smooth="yes"/>
      <point x="580" y="636"/>
      <point x="556" y="495"/>
      <point x="537" y="367" type="curve"/>
      <point x="458" y="228" smooth="yes"/>
      <point x="315" y="80" smooth="yes"/>
    </contour>
  </outline>
</glyph>
<glyph name="V" format="1">
  <advance width="642"/>
  <unicode hex="0056"/>
  <outline>
    <contour>
      <point x="110" y="725" type="curve" smooth="yes" name="hr00"/>
      <point x="164" y="538" smooth="yes"/>
      <point x="163" y="210" smooth="yes"/>
      <point x="201" y="88" type="curve" smooth="yes"/>
      <point x="224" y="11" smooth="yes"/>
      <point x="251" y="-7" smooth="yes"/>
      <point x="307" y="-7" type="curve" smooth="yes"/>
      <point x="336" y="-7"/>
      <point x="367" y="3"/>
      <point x="376" y="16" type="curve"/>
      <point x="375" y="23" smooth="yes"/>
      <point x="374" y="31" smooth="yes"/>
      <point x="374" y="40" type="curve" smooth="yes"/>
      <point x="374" y="216" smooth="yes"/>
      <point x="686" y="695" smooth="yes"/>
      <point x="686" y="838" type="curve" smooth="yes"/>
      <point x="686" y="875" smooth="yes"/>
      <point x="667" y="889" smooth="yes"/>
      <point x="640" y="889" type="curve" smooth="yes"/>
      <point x="623" y="889"/>
      <point x="591" y="881"/>
      <point x="572" y="853" type="curve"/>
      <point x="581" y="838" smooth="yes"/>
      <point x="584" y="822" smooth="yes"/>
      <point x="584" y="804" type="curve" smooth="yes"/>
      <point x="584" y="667"/>
      <point x="387" y="336"/>
      <point x="307" y="146" type="curve"/>
      <point x="257" y="314" smooth="yes"/>
      <point x="254" y="647" smooth="yes"/>
      <point x="218" y="766" type="curve" smooth="yes"/>
      <point x="187" y="867" smooth="yes"/>
      <point x="148" y="889" smooth="yes"/>
      <point x="90" y="889" type="curve" smooth="yes"/>
      <point x="71" y="889"/>
      <point x="37" y="878"/>
      <point x="24" y="853" type="curve"/>
      <point x="68" y="816" smooth="yes"/>
      <point x="95" y="777" smooth="yes"/>
    </contour>
  </outline>
</glyph>
<glyph name="W" format="1">
  <advance width="948"/>
  <unicode hex="0057"/>
  <outline>
    <contour>
      <point x="106" y="725" type="curve" smooth="yes" name="hr00"/>
      <point x="153" y="538" smooth="yes"/>
      <point x="141" y="210" smooth="yes"/>
      <point x="174" y="88" type="curve" smooth="yes"/>
      <point x="196" y="9" smooth="yes"/>
      <point x="224" y="-7" smooth="yes"/>
      <point x="283" y="-7" type="curve" smooth="yes"/>
      <point x="307" y="-7"/>
      <point x="335" y="3"/>
      <point x="347" y="16" type="curve"/>
      <point x="346" y="23" smooth="yes"/>
      <point x="345" y="31" smooth="yes"/>
      <point x="345" y="40" type="curve" smooth="yes"/>
      <point x="345" y="136"/>
      <point x="428" y="321"/>
      <point x="504" y="493" type="curve"/>
      <point x="516" y="335" smooth="yes"/>
      <point x="517" y="168" smooth="yes"/>
      <point x="539" y="88" type="curve" smooth="yes"/>
      <point x="561" y="9" smooth="yes"/>
      <point x="588" y="-7" smooth="yes"/>
      <point x="648" y="-7" type="curve" smooth="yes"/>
      <point x="667" y="-7"/>
      <point x="699" y="2"/>
      <point x="712" y="16" type="curve"/>
      <point x="710" y="23" smooth="yes"/>
      <point x="709" y="31" smooth="yes"/>
      <point x="709" y="40" type="curve" smooth="yes"/>
      <point x="709" y="216" smooth="yes"/>
      <point x="992" y="695" smooth="yes"/>
      <point x="992" y="838" type="curve" smooth="yes"/>
      <point x="992" y="875" smooth="yes"/>
      <point x="974" y="889" smooth="yes"/>
      <point x="946" y="889" type="curve" smooth="yes"/>
      <point x="929" y="889"/>
      <point x="897" y="881"/>
      <point x="878" y="853" type="curve"/>
      <point x="887" y="838" smooth="yes"/>
      <point x="890" y="822" smooth="yes"/>
      <point x="890" y="804" type="curve" smooth="yes"/>
      <point x="890" y="670"/>
      <point x="720" y="351"/>
      <point x="644" y="159" type="curve"/>
      <point x="603" y="331" smooth="yes"/>
      <point x="611" y="650" smooth="yes"/>
      <point x="580" y="766" type="curve" smooth="yes"/>
      <point x="571" y="799" smooth="yes"/>
      <point x="548" y="812" smooth="yes"/>
      <point x="522" y="812" type="curve" smooth="yes"/>
      <point x="489" y="812"/>
      <point x="452" y="791"/>
      <point x="435" y="763" type="curve"/>
      <point x="463" y="748"/>
      <point x="478" y="695"/>
      <point x="487" y="645" type="curve"/>
      <point x="433" y="492"/>
      <point x="333" y="293"/>
      <point x="280" y="158" type="curve"/>
      <point x="238" y="330" smooth="yes"/>
      <point x="247" y="650" smooth="yes"/>
      <point x="215" y="766" type="curve" smooth="yes"/>
      <point x="187" y="867" smooth="yes"/>
      <point x="150" y="889" smooth="yes"/>
      <point x="92" y="889" type="curve" smooth="yes"/>
      <point x="73" y="889"/>
      <point x="38" y="878"/>
      <point x="24" y="853" type="curve"/>
      <point x="67" y="816" smooth="yes"/>
      <point x="93" y="777" smooth="yes"/>
    </contour>
  </outline>
</glyph>
<glyph name="X" format="1">
  <advance width="638"/>
  <unicode hex="0058"/>
  <outline>
    <contour>
      <point x="514" y="803" type="curve" smooth="yes" name="hr00"/>
      <point x="514" y="745"/>
      <point x="415" y="580"/>
      <point x="333" y="472" type="curve"/>
      <point x="263" y="617"/>
      <point x="210" y="768"/>
      <point x="200" y="871" type="curve"/>
      <point x="132" y="850" smooth="yes"/>
      <point x="116" y="825" smooth="yes"/>
      <point x="116" y="777" type="curve" smooth="yes"/>
      <point x="116" y="721"/>
      <point x="173" y="556"/>
      <point x="251" y="392" type="curve"/>
      <point x="141" y="247" smooth="yes"/>
      <point x="41" y="85" smooth="yes"/>
      <point x="41" y="43" type="curve" smooth="yes"/>
      <point x="41" y="0" smooth="yes"/>
      <point x="59" y="-13" smooth="yes"/>
      <point x="86" y="-13" type="curve" smooth="yes"/>
      <point x="104" y="-13"/>
      <point x="134" y="-5"/>
      <point x="154" y="18" type="curve"/>
      <point x="149" y="26" smooth="yes"/>
      <point x="145" y="37" smooth="yes"/>
      <point x="145" y="53" type="curve" smooth="yes"/>
      <point x="145" y="101"/>
      <point x="213" y="224"/>
      <point x="284" y="326" type="curve"/>
      <point x="375" y="148" smooth="yes"/>
      <point x="486" y="-13" smooth="yes"/>
      <point x="570" y="-13" type="curve" smooth="yes"/>
      <point x="608" y="-13"/>
      <point x="629" y="8"/>
      <point x="638" y="51" type="curve"/>
      <point x="564" y="79"/>
      <point x="456" y="233"/>
      <point x="365" y="409" type="curve"/>
      <point x="490" y="565" smooth="yes"/>
      <point x="618" y="765" smooth="yes"/>
      <point x="618" y="812" type="curve" smooth="yes"/>
      <point x="618" y="855" smooth="yes"/>
      <point x="600" y="869" smooth="yes"/>
      <point x="572" y="869" type="curve" smooth="yes"/>
      <point x="555" y="869"/>
      <point x="524" y="861"/>
      <point x="505" y="838" type="curve"/>
      <point x="510" y="830" smooth="yes"/>
      <point x="514" y="819" smooth="yes"/>
    </contour>
  </outline>
</glyph>
<glyph name="Y" format="1">
  <advance width="552"/>
  <unicode hex="0059"/>
  <outline>
    <contour>
      <point x="484" y="800" type="curve" smooth="yes" name="hr00"/>
      <point x="484" y="701"/>
      <point x="381" y="581"/>
      <point x="302" y="419" type="curve"/>
      <point x="273" y="555" smooth="yes"/>
      <point x="227" y="729" smooth="yes"/>
      <point x="208" y="785" type="curve" smooth="yes"/>
      <point x="181" y="861" smooth="yes"/>
      <point x="145" y="889" smooth="yes"/>
      <point x="111" y="889" type="curve" smooth="yes"/>
      <point x="87" y="889"/>
      <point x="44" y="874"/>
      <point x="27" y="823" type="curve"/>
      <point x="113" y="823"/>
      <point x="181" y="544"/>
      <point x="228" y="309" type="curve"/>
      <point x="215" y="228" smooth="yes"/>
      <point x="205" y="159" smooth="yes"/>
      <point x="205" y="118" type="curve" smooth="yes"/>
      <point x="205" y="23" smooth="yes"/>
      <point x="234" y="-7" smooth="yes"/>
      <point x="280" y="-7" type="curve" smooth="yes"/>
      <point x="296" y="-7"/>
      <point x="325" y="0"/>
      <point x="350" y="29" type="curve"/>
      <point x="320" y="62" smooth="yes"/>
      <point x="314" y="107" smooth="yes"/>
      <point x="314" y="155" type="curve" smooth="yes"/>
      <point x="314" y="198"/>
      <point x="319" y="250"/>
      <point x="326" y="306" type="curve"/>
      <point x="333" y="344" smooth="yes"/>
      <point x="342" y="367" smooth="yes"/>
      <point x="370" y="414" type="curve" smooth="yes"/>
      <point x="454" y="556" smooth="yes"/>
      <point x="591" y="774" smooth="yes"/>
      <point x="591" y="837" type="curve" smooth="yes"/>
      <point x="591" y="872" smooth="yes"/>
      <point x="573" y="885" smooth="yes"/>
      <point x="546" y="885" type="curve" smooth="yes"/>
      <point x="529" y="885"/>
      <point x="494" y="877"/>
      <point x="474" y="849" type="curve"/>
      <point x="482" y="834" smooth="yes"/>
      <point x="484" y="818" smooth="yes"/>
    </contour>
  </outline>
</glyph>
<glyph name="bracketleft" format="1">
  <advance width="392"/>
  <unicode hex="005B"/>
  <outline>
    <contour>
      <point x="47" y="-49" type="curve" smooth="yes"/>
      <point x="47" y="-121" smooth="yes"/>
      <point x="111" y="-126" smooth="yes"/>
      <point x="172" y="-126" type="curve" smooth="yes"/>
      <point x="217" y="-126" smooth="yes"/>
      <point x="285" y="-119" smooth="yes"/>
      <point x="310" y="-100" type="curve" smooth="yes"/>
      <point x="334" y="-81"/>
      <point x="335" y="-63"/>
      <point x="335" y="-11" type="curve"/>
      <point x="297" y="-31"/>
      <point x="193" y="-53"/>
      <point x="159" y="-53" type="curve"/>
      <point x="159" y="210"/>
      <point x="264" y="746"/>
      <point x="264" y="882" type="curve" name="hr01"/>
      <point x="287" y="870" smooth="yes"/>
      <point x="318" y="861" smooth="yes"/>
      <point x="348" y="861" type="curve" smooth="yes"/>
      <point x="401" y="861"/>
      <point x="452" y="888"/>
      <point x="452" y="970" type="curve" name="hr02"/>
      <point x="418" y="954" smooth="yes"/>
      <point x="359" y="951" smooth="yes"/>
      <point x="292" y="951" type="curve" smooth="yes" name="hr03"/>
      <point x="233" y="951"/>
      <point x="167" y="948"/>
      <point x="136" y="923" type="curve"/>
      <point x="144" y="899" smooth="yes"/>
      <point x="151" y="853" smooth="yes"/>
      <point x="151" y="825" type="curve" smooth="yes"/>
      <point x="151" y="633" smooth="yes"/>
      <point x="47" y="92" smooth="yes"/>
    </contour>
  </outline>
</glyph>
<glyph name="bracketright" format="1">
  <advance width="392"/>
  <unicode hex="005D"/>
  <outline>
    <contour>
      <point x="127" y="-47" type="curve"/>
      <point x="76" y="-40"/>
      <point x="-4" y="-24"/>
      <point x="-33" y="-9" type="curve"/>
      <point x="-33" y="-61" smooth="yes"/>
      <point x="-32" y="-79" smooth="yes"/>
      <point x="-8" y="-98" type="curve" smooth="yes"/>
      <point x="17" y="-117" smooth="yes"/>
      <point x="63" y="-124" smooth="yes"/>
      <point x="151" y="-124" type="curve" smooth="yes"/>
      <point x="244" y="-124" smooth="yes"/>
      <point x="269" y="76" smooth="yes"/>
      <point x="278" y="295" type="curve" smooth="yes"/>
      <point x="291" y="638"/>
      <point x="320" y="864"/>
      <point x="360" y="923" type="curve"/>
      <point x="333" y="948" smooth="yes"/>
      <point x="267" y="951" smooth="yes"/>
      <point x="208" y="951" type="curve" smooth="yes"/>
      <point x="141" y="951"/>
      <point x="82" y="954"/>
      <point x="56" y="970" type="curve" name="hr01"/>
      <point x="53" y="960" smooth="yes"/>
      <point x="51" y="950" smooth="yes"/>
      <point x="51" y="942" type="curve" smooth="yes"/>
      <point x="51" y="882" smooth="yes"/>
      <point x="89" y="861" smooth="yes"/>
      <point x="136" y="861" type="curve" smooth="yes" name="hr02"/>
      <point x="166" y="861"/>
      <point x="201" y="870"/>
      <point x="228" y="882" type="curve"/>
      <point x="184" y="729"/>
      <point x="196" y="134"/>
    </contour>
  </outline>
</glyph>
<glyph name="asciicircum" format="1">
  <advance width="544"/>
  <unicode hex="005E"/>
  <outline>
    <contour>
      <point x="138" y="499" type="curve" smooth="yes" name="hr00"/>
      <point x="138" y="568"/>
      <point x="188" y="648"/>
      <point x="260" y="812" type="curve"/>
      <point x="298" y="673" smooth="yes"/>
      <point x="317" y="574" smooth="yes"/>
      <point x="335" y="522" type="curve" smooth="yes"/>
      <point x="362" y="445" smooth="yes"/>
      <point x="402" y="419" smooth="yes"/>
      <point x="437" y="419" type="curve" smooth="yes"/>
      <point x="461" y="419"/>
      <point x="502" y="434"/>
      <point x="519" y="485" type="curve"/>
      <point x="438" y="487" smooth="yes"/>
      <point x="395" y="636" smooth="yes"/>
      <point x="339" y="873" type="curve" smooth="yes"/>
      <point x="333" y="900" smooth="yes"/>
      <point x="319" y="916" smooth="yes"/>
      <point x="288" y="916" type="curve" smooth="yes"/>
      <point x="272" y="916"/>
      <point x="254" y="912"/>
      <point x="232" y="904" type="curve"/>
      <point x="232" y="899" smooth="yes"/>
      <point x="233" y="895" smooth="yes"/>
      <point x="233" y="891" type="curve" smooth="yes"/>
      <point x="233" y="835" smooth="yes"/>
      <point x="40" y="553" smooth="yes"/>
      <point x="40" y="473" type="curve" smooth="yes"/>
      <point x="40" y="436" smooth="yes"/>
      <point x="58" y="422" smooth="yes"/>
      <point x="86" y="422" type="curve" smooth="yes"/>
      <point x="103" y="422"/>
      <point x="133" y="431"/>
      <point x="149" y="451" type="curve"/>
      <point x="141" y="465" smooth="yes"/>
      <point x="138" y="481" smooth="yes"/>
    </contour>
  </outline>
</glyph>
<glyph name="b" format="1">
  <advance width="682"/>
  <unicode hex="0062"/>
  <outline>
    <contour>
      <point x="205" y="106" type="curve"/>
      <point x="216" y="294" smooth="yes"/>
      <point x="350" y="578" smooth="yes"/>
      <point x="425" y="578" type="curve" smooth="yes"/>
      <point x="485" y="578" smooth="yes"/>
      <point x="510" y="479" smooth="yes"/>
      <point x="510" y="367" type="curve" smooth="yes"/>
      <point x="510" y="193" smooth="yes"/>
      <point x="448" y="54" smooth="yes"/>
      <point x="336" y="54" type="curve" smooth="yes"/>
      <point x="298" y="54"/>
      <point x="254" y="70"/>
    </contour>
    <contour>
      <point x="169" y="751" type="curve" smooth="yes"/>
      <point x="169" y="648"/>
      <point x="117" y="183"/>
      <point x="91" y="18" type="curve"/>
      <point x="109" y="0" smooth="yes"/>
      <point x="125" y="-8" smooth="yes"/>
      <point x="147" y="-8" type="curve" smooth="yes" name="hr01"/>
      <point x="175" y="-8"/>
      <point x="190" y="8"/>
      <point x="198" y="53" type="curve"/>
      <point x="232" y="15" smooth="yes"/>
      <point x="282" y="-14" smooth="yes"/>
      <point x="344" y="-14" type="curve" smooth="yes" name="hr02"/>
      <point x="530" y="-14" smooth="yes"/>
      <point x="614" y="205" smooth="yes"/>
      <point x="614" y="398" type="curve" smooth="yes"/>
      <point x="614" y="601" smooth="yes"/>
      <point x="535" y="684" smooth="yes"/>
      <point x="453" y="684" type="curve" smooth="yes"/>
      <point x="379" y="684"/>
      <point x="278" y="543"/>
      <point x="218" y="346" type="curve"/>
      <point x="235" y="457" smooth="yes"/>
      <point x="284" y="753" smooth="yes"/>
      <point x="284" y="832" type="curve" smooth="yes"/>
      <point x="284" y="911" smooth="yes"/>
      <point x="261" y="937" smooth="yes"/>
      <point x="216" y="937" type="curve" smooth="yes"/>
      <point x="196" y="937"/>
      <point x="163" y="928"/>
      <point x="148" y="915" type="curve"/>
      <point x="167" y="879" smooth="yes"/>
      <point x="169" y="839" smooth="yes"/>
    </contour>
  </outline>
</glyph>
<glyph name="f" format="1">
  <advance width="363"/>
  <unicode hex="0066"/>
  <outline>
    <contour>
      <point x="165" y="630" type="curve" name="hr00"/>
      <point x="45" y="630"/>
      <point x="39" y="589"/>
      <point x="39" y="520" type="curve"/>
      <point x="69" y="539"/>
      <point x="113" y="545"/>
      <point x="152" y="546" type="curve"/>
      <point x="125" y="345" smooth="yes"/>
      <point x="83" y="23" smooth="yes"/>
      <point x="83" y="-91" type="curve" smooth="yes"/>
      <point x="83" y="-191" smooth="yes"/>
      <point x="114" y="-223" smooth="yes"/>
      <point x="161" y="-223" type="curve" smooth="yes"/>
      <point x="178" y="-223"/>
      <point x="206" y="-216"/>
      <point x="230" y="-187" type="curve"/>
      <point x="198" y="-151" smooth="yes"/>
      <point x="192" y="-102" smooth="yes"/>
      <point x="192" y="-50" type="curve" smooth="yes"/>
      <point x="192" y="108"/>
      <point x="227" y="391"/>
      <point x="249" y="547" type="curve"/>
      <point x="382" y="550"/>
      <point x="412" y="564"/>
      <point x="423" y="659" type="curve"/>
      <point x="388" y="635"/>
      <point x="343" y="630"/>
      <point x="262" y="630" type="curve"/>
      <point x="294" y="826" smooth="yes"/>
      <point x="349" y="893" smooth="yes"/>
      <point x="425" y="893" type="curve" smooth="yes"/>
      <point x="485" y="893"/>
      <point x="518" y="862"/>
      <point x="534" y="794" type="curve"/>
      <point x="564" y="815" smooth="yes"/>
      <point x="580" y="843" smooth="yes"/>
      <point x="580" y="877" type="curve" smooth="yes"/>
      <point x="580" y="935" smooth="yes"/>
      <point x="533" y="967" smooth="yes"/>
      <point x="439" y="967" type="curve" smooth="yes"/>
      <point x="297" y="967"/>
      <point x="200" y="803"/>
    </contour>
  </outline>
</glyph>
<glyph name="g" format="1">
  <advance width="676"/>
  <unicode hex="0067"/>
  <outline>
    <contour>
      <point x="626" y="653" type="curve"/>
      <point x="609" y="666" smooth="yes"/>
      <point x="580" y="674" smooth="yes"/>
      <point x="557" y="674" type="curve" smooth="yes"/>
      <point x="529" y="674"/>
      <point x="513" y="661"/>
      <point x="502" y="617" type="curve"/>
      <point x="470" y="655" smooth="yes"/>
      <point x="423" y="684" smooth="yes"/>
      <point x="361" y="684" type="curve" smooth="yes" name="hr01"/>
      <point x="163" y="684" smooth="yes"/>
      <point x="68" y="437" smooth="yes"/>
      <point x="68" y="237" type="curve" smooth="yes"/>
      <point x="68" y="59" smooth="yes"/>
      <point x="136" y="-14" smooth="yes"/>
      <point x="215" y="-14" type="curve" smooth="yes"/>
      <point x="289" y="-14"/>
      <point x="397" y="125"/>
      <point x="467" y="322" type="curve"/>
      <point x="459" y="-32" smooth="yes"/>
      <point x="451" y="-180" smooth="yes"/>
      <point x="318" y="-180" type="curve" smooth="yes"/>
      <point x="244" y="-180"/>
      <point x="187" y="-139"/>
      <point x="153" y="-81" type="curve"/>
      <point x="138" y="-95" smooth="yes"/>
      <point x="117" y="-121" smooth="yes"/>
      <point x="117" y="-161" type="curve" smooth="yes"/>
      <point x="117" y="-238" smooth="yes"/>
      <point x="212" y="-254" smooth="yes"/>
      <point x="279" y="-254" type="curve" smooth="yes"/>
      <point x="453" y="-254" smooth="yes"/>
      <point x="566" y="-98" smooth="yes"/>
      <point x="566" y="151" type="curve" smooth="yes"/>
      <point x="566" y="368"/>
      <point x="572" y="481"/>
      <point x="581" y="556" type="curve"/>
      <point x="596" y="594"/>
      <point x="612" y="629"/>
    </contour>
    <contour>
      <point x="494" y="563" type="curve"/>
      <point x="473" y="375" smooth="yes"/>
      <point x="323" y="92" smooth="yes"/>
      <point x="249" y="92" type="curve" smooth="yes"/>
      <point x="196" y="92" smooth="yes"/>
      <point x="173" y="168" smooth="yes"/>
      <point x="173" y="262" type="curve" smooth="yes"/>
      <point x="173" y="454" smooth="yes"/>
      <point x="244" y="615" smooth="yes"/>
      <point x="365" y="615" type="curve" smooth="yes"/>
      <point x="403" y="615"/>
      <point x="446" y="599"/>
    </contour>
  </outline>
</glyph>
<glyph name="j" format="1">
  <advance width="328"/>
  <unicode hex="006A"/>
  <outline>
    <contour>
      <point x="255" y="841" type="curve" smooth="yes"/>
      <point x="255" y="872" smooth="yes"/>
      <point x="229" y="884" smooth="yes"/>
      <point x="198" y="884" type="curve" smooth="yes"/>
      <point x="176" y="884"/>
      <point x="153" y="876"/>
      <point x="128" y="861" type="curve"/>
      <point x="124" y="837" smooth="yes"/>
      <point x="122" y="818" smooth="yes"/>
      <point x="122" y="804" type="curve" smooth="yes"/>
      <point x="122" y="772" smooth="yes"/>
      <point x="136" y="757" smooth="yes"/>
      <point x="176" y="757" type="curve" smooth="yes"/>
      <point x="197" y="757"/>
      <point x="220" y="765"/>
      <point x="245" y="780" type="curve"/>
      <point x="252" y="806" smooth="yes"/>
      <point x="255" y="826" smooth="yes"/>
    </contour>
    <contour>
      <point x="238" y="597" type="curve" smooth="yes" name="hr01"/>
      <point x="238" y="653" smooth="yes"/>
      <point x="205" y="673" smooth="yes"/>
      <point x="170" y="673" type="curve" smooth="yes"/>
      <point x="151" y="673"/>
      <point x="114" y="662"/>
      <point x="104" y="650" type="curve"/>
      <point x="122" y="619" smooth="yes"/>
      <point x="125" y="563" smooth="yes"/>
      <point x="125" y="521" type="curve" smooth="yes"/>
      <point x="124" y="82" smooth="yes"/>
      <point x="101" y="-180" smooth="yes"/>
      <point x="-39" y="-180" type="curve" smooth="yes"/>
      <point x="-95" y="-180"/>
      <point x="-139" y="-139"/>
      <point x="-165" y="-81" type="curve"/>
      <point x="-180" y="-95" smooth="yes"/>
      <point x="-201" y="-121" smooth="yes"/>
      <point x="-201" y="-161" type="curve" smooth="yes"/>
      <point x="-201" y="-217" smooth="yes"/>
      <point x="-138" y="-263" smooth="yes"/>
      <point x="-62" y="-263" type="curve" smooth="yes"/>
      <point x="27" y="-263" smooth="yes"/>
      <point x="133" y="-201" smooth="yes"/>
      <point x="180" y="-23" type="curve" smooth="yes"/>
      <point x="223" y="139" smooth="yes"/>
      <point x="238" y="386" smooth="yes"/>
    </contour>
  </outline>
</glyph>
<glyph name="k" format="1">
  <advance width="600"/>
  <unicode hex="006B"/>
  <outline>
    <contour>
      <point x="202" y="166" type="curve" smooth="yes"/>
      <point x="202" y="196"/>
      <point x="204" y="232"/>
      <point x="207" y="270" type="curve"/>
      <point x="252" y="310" type="line"/>
      <point x="315" y="204" smooth="yes"/>
      <point x="368" y="107" smooth="yes"/>
      <point x="407" y="60" type="curve" smooth="yes"/>
      <point x="447" y="11" smooth="yes"/>
      <point x="484" y="-10" smooth="yes"/>
      <point x="511" y="-10" type="curve" smooth="yes"/>
      <point x="532" y="-10"/>
      <point x="583" y="3"/>
      <point x="585" y="78" type="curve"/>
      <point x="538" y="85" smooth="yes"/>
      <point x="497" y="120" smooth="yes"/>
      <point x="464" y="160" type="curve" smooth="yes"/>
      <point x="420" y="213"/>
      <point x="373" y="293"/>
      <point x="324" y="376" type="curve"/>
      <point x="449" y="492" smooth="yes"/>
      <point x="553" y="600" smooth="yes"/>
      <point x="553" y="622" type="curve" smooth="yes"/>
      <point x="553" y="649"/>
      <point x="518" y="668"/>
      <point x="463" y="668" type="curve"/>
      <point x="451" y="620"/>
      <point x="349" y="491"/>
      <point x="218" y="366" type="curve"/>
      <point x="240" y="544" smooth="yes"/>
      <point x="279" y="746" smooth="yes"/>
      <point x="279" y="832" type="curve" smooth="yes" name="hr01"/>
      <point x="279" y="911" smooth="yes"/>
      <point x="255" y="937" smooth="yes"/>
      <point x="210" y="937" type="curve" smooth="yes"/>
      <point x="191" y="937"/>
      <point x="158" y="928"/>
      <point x="144" y="915" type="curve"/>
      <point x="164" y="875" smooth="yes"/>
      <point x="165" y="828" smooth="yes"/>
      <point x="165" y="780" type="curve" smooth="yes"/>
      <point x="165" y="563" smooth="yes"/>
      <point x="93" y="246" smooth="yes"/>
      <point x="93" y="125" type="curve" smooth="yes" name="hr02"/>
      <point x="93" y="24" smooth="yes"/>
      <point x="124" y="-7" smooth="yes"/>
      <point x="171" y="-7" type="curve" smooth="yes"/>
      <point x="187" y="-7"/>
      <point x="215" y="0"/>
      <point x="240" y="29" type="curve"/>
      <point x="208" y="65" smooth="yes"/>
      <point x="202" y="114" smooth="yes"/>
    </contour>
  </outline>
</glyph>
<glyph name="m" format="1">
  <advance width="982"/>
  <unicode hex="006D"/>
  <outline>
    <contour>
      <point x="547" y="7" type="curve"/>
      <point x="539" y="19" smooth="yes"/>
      <point x="530" y="54" smooth="yes"/>
      <point x="530" y="95" type="curve" smooth="yes"/>
      <point x="530" y="229" smooth="yes"/>
      <point x="664" y="574" smooth="yes"/>
      <point x="743" y="574" type="curve" smooth="yes"/>
      <point x="783" y="574" smooth="yes"/>
      <point x="793" y="549" smooth="yes"/>
      <point x="793" y="501" type="curve" smooth="yes"/>
      <point x="793" y="438" smooth="yes"/>
      <point x="761" y="315" smooth="yes"/>
      <point x="761" y="187" type="curve" smooth="yes" name="hr01"/>
      <point x="761" y="63" smooth="yes"/>
      <point x="789" y="-7" smooth="yes"/>
      <point x="844" y="-7" type="curve" smooth="yes"/>
      <point x="866" y="-7"/>
      <point x="890" y="4"/>
      <point x="913" y="29" type="curve"/>
      <point x="877" y="70" smooth="yes"/>
      <point x="869" y="162" smooth="yes"/>
      <point x="869" y="220" type="curve" smooth="yes"/>
      <point x="869" y="318" smooth="yes"/>
      <point x="892" y="408" smooth="yes"/>
      <point x="892" y="507" type="curve" smooth="yes" name="hr02"/>
      <point x="892" y="591" smooth="yes"/>
      <point x="874" y="680" smooth="yes"/>
      <point x="782" y="680" type="curve" smooth="yes"/>
      <point x="690" y="680"/>
      <point x="604" y="496"/>
      <point x="544" y="330" type="curve"/>
      <point x="555" y="408" smooth="yes"/>
      <point x="557" y="439" smooth="yes"/>
      <point x="557" y="507" type="curve" smooth="yes"/>
      <point x="557" y="591" smooth="yes"/>
      <point x="539" y="680" smooth="yes"/>
      <point x="447" y="680" type="curve" smooth="yes"/>
      <point x="355" y="680"/>
      <point x="273" y="491"/>
      <point x="209" y="330" type="curve"/>
      <point x="223" y="408" smooth="yes"/>
      <point x="238" y="500" smooth="yes"/>
      <point x="238" y="568" type="curve" smooth="yes"/>
      <point x="238" y="647" smooth="yes"/>
      <point x="214" y="673" smooth="yes"/>
      <point x="169" y="673" type="curve" smooth="yes" name="hr03"/>
      <point x="150" y="673"/>
      <point x="117" y="664"/>
      <point x="103" y="650" type="curve"/>
      <point x="123" y="611" smooth="yes"/>
      <point x="124" y="564" smooth="yes"/>
      <point x="124" y="516" type="curve" smooth="yes"/>
      <point x="124" y="357" smooth="yes"/>
      <point x="86" y="199" smooth="yes"/>
      <point x="86" y="93" type="curve" smooth="yes" name="hr04"/>
      <point x="86" y="34" smooth="yes"/>
      <point x="97" y="-7" smooth="yes"/>
      <point x="150" y="-7" type="curve" smooth="yes"/>
      <point x="167" y="-7"/>
      <point x="187" y="-3"/>
      <point x="212" y="7" type="curve"/>
      <point x="204" y="19" smooth="yes"/>
      <point x="195" y="54" smooth="yes"/>
      <point x="195" y="95" type="curve" smooth="yes"/>
      <point x="195" y="229" smooth="yes"/>
      <point x="330" y="574" smooth="yes"/>
      <point x="409" y="574" type="curve" smooth="yes"/>
      <point x="448" y="574" smooth="yes"/>
      <point x="458" y="549" smooth="yes"/>
      <point x="458" y="501" type="curve" smooth="yes"/>
      <point x="458" y="343" smooth="yes"/>
      <point x="421" y="199" smooth="yes"/>
      <point x="421" y="93" type="curve" smooth="yes" name="hr05"/>
      <point x="421" y="34" smooth="yes"/>
      <point x="432" y="-7" smooth="yes"/>
      <point x="485" y="-7" type="curve" smooth="yes"/>
      <point x="502" y="-7"/>
      <point x="522" y="-3"/>
    </contour>
  </outline>
</glyph>
<glyph name="n" format="1">
  <advance width="667"/>
  <unicode hex="006E"/>
  <outline>
    <contour>
      <point x="150" y="-7" type="curve"/>
      <point x="167" y="-7"/>
      <point x="187" y="-3"/>
      <point x="212" y="7" type="curve"/>
      <point x="204" y="19" smooth="yes"/>
      <point x="195" y="54" smooth="yes"/>
      <point x="195" y="95" type="curve" smooth="yes"/>
      <point x="195" y="229" smooth="yes"/>
      <point x="338" y="574" smooth="yes"/>
      <point x="432" y="574" type="curve" smooth="yes"/>
      <point x="461" y="574" smooth="yes"/>
      <point x="478" y="549" smooth="yes"/>
      <point x="478" y="507" type="curve" smooth="yes"/>
      <point x="478" y="438" smooth="yes"/>
      <point x="445" y="315" smooth="yes"/>
      <point x="445" y="187" type="curve" smooth="yes" name="hr01"/>
      <point x="445" y="63" smooth="yes"/>
      <point x="473" y="-7" smooth="yes"/>
      <point x="528" y="-7" type="curve" smooth="yes"/>
      <point x="550" y="-7"/>
      <point x="574" y="4"/>
      <point x="598" y="29" type="curve"/>
      <point x="562" y="70" smooth="yes"/>
      <point x="554" y="162" smooth="yes"/>
      <point x="554" y="220" type="curve" smooth="yes"/>
      <point x="554" y="318" smooth="yes"/>
      <point x="577" y="408" smooth="yes"/>
      <point x="577" y="507" type="curve" smooth="yes" name="hr02"/>
      <point x="577" y="621" smooth="yes"/>
      <point x="537" y="680" smooth="yes"/>
      <point x="460" y="680" type="curve" smooth="yes"/>
      <point x="364" y="680"/>
      <point x="277" y="491"/>
      <point x="209" y="330" type="curve"/>
      <point x="223" y="408" smooth="yes"/>
      <point x="238" y="500" smooth="yes"/>
      <point x="238" y="568" type="curve" smooth="yes"/>
      <point x="238" y="647" smooth="yes"/>
      <point x="214" y="673" smooth="yes"/>
      <point x="169" y="673" type="curve" smooth="yes" name="hr03"/>
      <point x="150" y="673"/>
      <point x="117" y="664"/>
      <point x="103" y="650" type="curve"/>
      <point x="123" y="611" smooth="yes"/>
      <point x="124" y="564" smooth="yes"/>
      <point x="124" y="516" type="curve" smooth="yes"/>
      <point x="124" y="357" smooth="yes"/>
      <point x="86" y="199" smooth="yes"/>
      <point x="86" y="93" type="curve" smooth="yes" name="hr04"/>
      <point x="86" y="34" smooth="yes"/>
      <point x="97" y="-7" smooth="yes"/>
    </contour>
  </outline>
</glyph>
<glyph name="o" format="1">
  <advance width="678"/>
  <unicode hex="006F"/>
  <outline>
    <contour>
      <point x="341" y="609" type="curve" smooth="yes" name="hr00"/>
      <point x="440" y="609" smooth="yes"/>
      <point x="502" y="529" smooth="yes"/>
      <point x="502" y="373" type="curve" smooth="yes"/>
      <point x="502" y="283" smooth="yes"/>
      <point x="471" y="57" smooth="yes"/>
      <point x="335" y="57" type="curve" smooth="yes"/>
      <point x="237" y="57" smooth="yes"/>
      <point x="176" y="138" smooth="yes"/>
      <point x="176" y="294" type="curve" smooth="yes"/>
      <point x="176" y="385" smooth="yes"/>
      <point x="208" y="609" smooth="yes"/>
    </contour>
    <contour>
      <point x="286" y="-17" type="curve" smooth="yes"/>
      <point x="488" y="-17" smooth="yes"/>
      <point x="610" y="216" smooth="yes"/>
      <point x="610" y="408" type="curve" smooth="yes"/>
      <point x="610" y="561" smooth="yes"/>
      <point x="537" y="684" smooth="yes"/>
      <point x="393" y="684" type="curve" smooth="yes"/>
      <point x="190" y="684" smooth="yes"/>
      <point x="68" y="451" smooth="yes"/>
      <point x="68" y="259" type="curve" smooth="yes"/>
      <point x="68" y="106" smooth="yes"/>
      <point x="142" y="-17" smooth="yes"/>
    </contour>
  </outline>
</glyph>
<glyph name="r" format="1">
  <advance width="482"/>
  <unicode hex="0072"/>
  <outline>
    <contour>
      <point x="245" y="29" type="curve"/>
      <point x="212" y="65" smooth="yes"/>
      <point x="207" y="114" smooth="yes"/>
      <point x="207" y="174" type="curve" smooth="yes"/>
      <point x="207" y="285" smooth="yes"/>
      <point x="335" y="563" smooth="yes"/>
      <point x="473" y="563" type="curve" smooth="yes"/>
      <point x="482" y="563"/>
      <point x="491" y="562"/>
      <point x="501" y="560" type="curve"/>
      <point x="504" y="573" smooth="yes"/>
      <point x="507" y="594" smooth="yes"/>
      <point x="507" y="610" type="curve" smooth="yes"/>
      <point x="507" y="637" smooth="yes"/>
      <point x="495" y="684" smooth="yes"/>
      <point x="457" y="684" type="curve" smooth="yes"/>
      <point x="403" y="684"/>
      <point x="300" y="573"/>
      <point x="224" y="371" type="curve"/>
      <point x="237" y="468" smooth="yes"/>
      <point x="253" y="558" smooth="yes"/>
      <point x="253" y="597" type="curve" smooth="yes" name="hr01"/>
      <point x="253" y="653" smooth="yes"/>
      <point x="221" y="673" smooth="yes"/>
      <point x="186" y="673" type="curve" smooth="yes"/>
      <point x="167" y="673"/>
      <point x="134" y="664"/>
      <point x="119" y="650" type="curve"/>
      <point x="139" y="612" smooth="yes"/>
      <point x="140" y="563" smooth="yes"/>
      <point x="140" y="521" type="curve" smooth="yes"/>
      <point x="140" y="371" smooth="yes"/>
      <point x="98" y="243" smooth="yes"/>
      <point x="98" y="125" type="curve" smooth="yes" name="hr02"/>
      <point x="98" y="24" smooth="yes"/>
      <point x="129" y="-7" smooth="yes"/>
      <point x="176" y="-7" type="curve" smooth="yes"/>
      <point x="192" y="-7"/>
      <point x="220" y="0"/>
    </contour>
  </outline>
</glyph>
<glyph name="u" format="1">
  <advance width="677"/>
  <unicode hex="0075"/>
  <outline>
    <contour>
      <point x="90" y="153" type="curve" smooth="yes"/>
      <point x="90" y="68" smooth="yes"/>
      <point x="112" y="-16" smooth="yes"/>
      <point x="209" y="-16" type="curve" smooth="yes"/>
      <point x="306" y="-16"/>
      <point x="393" y="173"/>
      <point x="462" y="335" type="curve"/>
      <point x="458" y="298" smooth="yes"/>
      <point x="450" y="250" smooth="yes"/>
      <point x="450" y="204" type="curve" smooth="yes"/>
      <point x="450" y="71" smooth="yes"/>
      <point x="478" y="-7" smooth="yes"/>
      <point x="536" y="-7" type="curve" smooth="yes" name="hr01"/>
      <point x="559" y="-7"/>
      <point x="583" y="4"/>
      <point x="604" y="30" type="curve"/>
      <point x="566" y="92" smooth="yes"/>
      <point x="557" y="162" smooth="yes"/>
      <point x="557" y="269" type="curve" smooth="yes"/>
      <point x="557" y="362" smooth="yes"/>
      <point x="595" y="491" smooth="yes"/>
      <point x="595" y="597" type="curve" smooth="yes" name="hr02"/>
      <point x="595" y="653" smooth="yes"/>
      <point x="562" y="673" smooth="yes"/>
      <point x="527" y="673" type="curve" smooth="yes"/>
      <point x="508" y="673"/>
      <point x="476" y="664"/>
      <point x="460" y="650" type="curve"/>
      <point x="470" y="627" smooth="yes"/>
      <point x="475" y="600" smooth="yes"/>
      <point x="475" y="569" type="curve" smooth="yes"/>
      <point x="475" y="435" smooth="yes"/>
      <point x="326" y="80" smooth="yes"/>
      <point x="241" y="80" type="curve" smooth="yes"/>
      <point x="206" y="80" smooth="yes"/>
      <point x="193" y="112" smooth="yes"/>
      <point x="193" y="158" type="curve" smooth="yes"/>
      <point x="193" y="300" smooth="yes"/>
      <point x="240" y="529" smooth="yes"/>
      <point x="240" y="597" type="curve" smooth="yes" name="hr03"/>
      <point x="240" y="653" smooth="yes"/>
      <point x="208" y="673" smooth="yes"/>
      <point x="173" y="673" type="curve" smooth="yes"/>
      <point x="153" y="673"/>
      <point x="121" y="664"/>
      <point x="106" y="650" type="curve"/>
      <point x="126" y="612" smooth="yes"/>
      <point x="127" y="563" smooth="yes"/>
      <point x="127" y="521" type="curve" smooth="yes"/>
      <point x="127" y="371" smooth="yes"/>
      <point x="90" y="271" smooth="yes"/>
    </contour>
  </outline>
</glyph>
<glyph name="y" format="1">
  <advance width="563"/>
  <unicode hex="0079"/>
  <outline>
    <contour>
      <point x="421" y="582" type="curve" smooth="yes" name="hr00"/>
      <point x="421" y="485"/>
      <point x="378" y="279"/>
      <point x="303" y="94" type="curve"/>
      <point x="268" y="250" smooth="yes"/>
      <point x="208" y="509" smooth="yes"/>
      <point x="186" y="567" type="curve" smooth="yes"/>
      <point x="156" y="643" smooth="yes"/>
      <point x="119" y="670" smooth="yes"/>
      <point x="84" y="670" type="curve" smooth="yes"/>
      <point x="60" y="670"/>
      <point x="19" y="655"/>
      <point x="2" y="604" type="curve"/>
      <point x="83" y="602" smooth="yes"/>
      <point x="153" y="303" smooth="yes"/>
      <point x="209" y="66" type="curve" smooth="yes"/>
      <point x="216" y="39"/>
      <point x="229" y="22"/>
      <point x="271" y="22" type="curve"/>
      <point x="215" y="-93" smooth="yes"/>
      <point x="145" y="-170" smooth="yes"/>
      <point x="68" y="-170" type="curve" smooth="yes"/>
      <point x="0" y="-170"/>
      <point x="-34" y="-138"/>
      <point x="-51" y="-81" type="curve"/>
      <point x="-63" y="-95" smooth="yes"/>
      <point x="-83" y="-121" smooth="yes"/>
      <point x="-83" y="-161" type="curve" smooth="yes"/>
      <point x="-83" y="-238" smooth="yes"/>
      <point x="-9" y="-254" smooth="yes"/>
      <point x="55" y="-254" type="curve" smooth="yes"/>
      <point x="354" y="-254" smooth="yes"/>
      <point x="527" y="544" smooth="yes"/>
      <point x="527" y="616" type="curve" smooth="yes"/>
      <point x="527" y="653" smooth="yes"/>
      <point x="509" y="667" smooth="yes"/>
      <point x="481" y="667" type="curve" smooth="yes"/>
      <point x="464" y="667"/>
      <point x="428" y="659"/>
      <point x="410" y="630" type="curve"/>
      <point x="418" y="616" smooth="yes"/>
      <point x="421" y="600" smooth="yes"/>
    </contour>
  </outline>
</glyph>
<glyph name="z" format="1">
  <advance width="523"/>
  <unicode hex="007A"/>
  <outline>
    <contour>
      <point x="18" y="13" type="curve"/>
      <point x="27" y="-4" smooth="yes"/>
      <point x="42" y="-16" smooth="yes"/>
      <point x="63" y="-16" type="curve" smooth="yes"/>
      <point x="80" y="-16"/>
      <point x="105" y="-8"/>
      <point x="119" y="9" type="curve"/>
      <point x="160" y="16" smooth="yes"/>
      <point x="205" y="19" smooth="yes"/>
      <point x="258" y="19" type="curve" smooth="yes"/>
      <point x="375" y="19"/>
      <point x="422" y="3"/>
      <point x="476" y="-18" type="curve" name="hr01"/>
      <point x="477" y="-7" smooth="yes"/>
      <point x="477" y="3" smooth="yes"/>
      <point x="477" y="13" type="curve" smooth="yes"/>
      <point x="477" y="97" smooth="yes"/>
      <point x="426" y="105" smooth="yes"/>
      <point x="345" y="105" type="curve" smooth="yes"/>
      <point x="311" y="105"/>
      <point x="239" y="100"/>
      <point x="157" y="81" type="curve"/>
      <point x="268" y="297"/>
      <point x="436" y="601"/>
      <point x="519" y="606" type="curve"/>
      <point x="514" y="672" smooth="yes"/>
      <point x="465" y="673" smooth="yes"/>
      <point x="448" y="673" type="curve" smooth="yes"/>
      <point x="422" y="673"/>
      <point x="400" y="666"/>
      <point x="371" y="632" type="curve"/>
      <point x="352" y="630" smooth="yes"/>
      <point x="331" y="630" smooth="yes"/>
      <point x="306" y="630" type="curve" smooth="yes" name="hr02"/>
      <point x="211" y="630"/>
      <point x="142" y="657"/>
      <point x="100" y="680" type="curve"/>
      <point x="81" y="649" smooth="yes"/>
      <point x="80" y="638" smooth="yes"/>
      <point x="80" y="614" type="curve" smooth="yes"/>
      <point x="80" y="573" smooth="yes"/>
      <point x="119" y="548" smooth="yes"/>
      <point x="208" y="548" type="curve" smooth="yes"/>
      <point x="221" y="548"/>
      <point x="268" y="551"/>
      <point x="322" y="558" type="curve"/>
      <point x="247" y="434"/>
      <point x="72" y="121"/>
    </contour>
  </outline>
</glyph>
<glyph name="braceleft" format="1">
  <advance width="392"/>
  <unicode hex="007B"/>
  <outline>
    <contour>
      <point x="264" y="882" type="curve"/>
      <point x="287" y="870" smooth="yes"/>
      <point x="318" y="861" smooth="yes"/>
      <point x="348" y="861" type="curve" smooth="yes"/>
      <point x="401" y="861"/>
      <point x="452" y="888"/>
      <point x="452" y="970" type="curve" name="hr01"/>
      <point x="418" y="954" smooth="yes"/>
      <point x="359" y="951" smooth="yes"/>
      <point x="292" y="951" type="curve" smooth="yes" name="hr02"/>
      <point x="189" y="951" smooth="yes"/>
      <point x="150" y="913" smooth="yes"/>
      <point x="150" y="869" type="curve" smooth="yes"/>
      <point x="150" y="816" smooth="yes"/>
      <point x="165" y="763" smooth="yes"/>
      <point x="165" y="696" type="curve" smooth="yes" name="hr03"/>
      <point x="165" y="567"/>
      <point x="123" y="477"/>
      <point x="46" y="422" type="curve"/>
      <point x="50" y="405" smooth="yes"/>
      <point x="59" y="391" smooth="yes"/>
      <point x="70" y="391" type="curve" smooth="yes"/>
      <point x="76" y="391"/>
      <point x="85" y="393"/>
      <point x="94" y="396" type="curve"/>
      <point x="112" y="364" smooth="yes"/>
      <point x="118" y="330" smooth="yes"/>
      <point x="118" y="302" type="curve" smooth="yes" name="hr04"/>
      <point x="118" y="183" smooth="yes"/>
      <point x="56" y="48" smooth="yes"/>
      <point x="56" y="-49" type="curve" smooth="yes" name="hr05"/>
      <point x="56" y="-121" smooth="yes"/>
      <point x="111" y="-126" smooth="yes"/>
      <point x="172" y="-126" type="curve" smooth="yes"/>
      <point x="217" y="-126" smooth="yes"/>
      <point x="285" y="-119" smooth="yes"/>
      <point x="310" y="-100" type="curve" smooth="yes"/>
      <point x="334" y="-81"/>
      <point x="335" y="-63"/>
      <point x="335" y="-11" type="curve"/>
      <point x="297" y="-31"/>
      <point x="193" y="-53"/>
      <point x="159" y="-53" type="curve"/>
      <point x="159" y="95" smooth="yes"/>
      <point x="200" y="151" smooth="yes"/>
      <point x="200" y="291" type="curve" smooth="yes" name="hr06"/>
      <point x="200" y="338"/>
      <point x="178" y="393"/>
      <point x="145" y="424" type="curve"/>
      <point x="156" y="432" smooth="yes"/>
      <point x="166" y="441" smooth="yes"/>
      <point x="174" y="449" type="curve" smooth="yes"/>
      <point x="250" y="529"/>
      <point x="257" y="693"/>
    </contour>
  </outline>
</glyph>
<glyph name="cent" format="1">
  <advance width="532"/>
  <unicode hex="00A2"/>
  <outline>
    <contour>
      <point x="265" y="68" type="line" smooth="yes" name="hr00"/>
      <point x="257" y="17"/>
      <point x="243" y="-33"/>
      <point x="205" y="-69" type="curve"/>
      <point x="208" y="-98" smooth="yes"/>
      <point x="226" y="-105" smooth="yes"/>
      <point x="239" y="-105" type="curve" smooth="yes"/>
      <point x="281" y="-105" smooth="yes"/>
      <point x="316" y="-73" smooth="yes"/>
      <point x="332" y="27" type="curve" smooth="yes"/>
      <point x="335" y="43"/>
      <point x="337" y="66"/>
      <point x="339" y="93" type="curve"/>
      <point x="407" y="101" smooth="yes"/>
      <point x="490" y="138" smooth="yes"/>
      <point x="490" y="210" type="curve" smooth="yes"/>
      <point x="490" y="229"/>
      <point x="483" y="251"/>
      <point x="469" y="266" type="curve"/>
      <point x="441" y="202"/>
      <point x="399" y="170"/>
      <point x="344" y="165" type="curve"/>
      <point x="354" y="322"/>
      <point x="362" y="558"/>
      <point x="375" y="716" type="curve"/>
      <point x="430" y="706"/>
      <point x="462" y="669"/>
      <point x="487" y="619" type="curve"/>
      <point x="505" y="635" smooth="yes"/>
      <point x="532" y="665" smooth="yes"/>
      <point x="532" y="711" type="curve" smooth="yes"/>
      <point x="532" y="770" smooth="yes"/>
      <point x="471" y="792" smooth="yes"/>
      <point x="393" y="792" type="curve" smooth="yes"/>
      <point x="389" y="792"/>
      <point x="385" y="791"/>
      <point x="382" y="791" type="curve"/>
      <point x="383" y="805" smooth="yes"/>
      <point x="385" y="818" smooth="yes"/>
      <point x="387" y="829" type="curve" smooth="yes"/>
      <point x="394" y="877"/>
      <point x="402" y="924"/>
      <point x="430" y="963" type="curve"/>
      <point x="423" y="977" smooth="yes"/>
      <point x="403" y="986" smooth="yes"/>
      <point x="388" y="986" type="curve" smooth="yes"/>
      <point x="351" y="986" smooth="yes"/>
      <point x="327" y="960" smooth="yes"/>
      <point x="315" y="881" type="curve" smooth="yes"/>
      <point x="311" y="858"/>
      <point x="308" y="821"/>
      <point x="306" y="776" type="curve"/>
      <point x="156" y="721" smooth="yes"/>
      <point x="68" y="529" smooth="yes"/>
      <point x="68" y="367" type="curve" smooth="yes"/>
      <point x="68" y="227"/>
      <point x="129" y="114"/>
      <point x="269" y="95" type="curve"/>
    </contour>
    <contour>
      <point x="176" y="402" type="curve" smooth="yes"/>
      <point x="176" y="483"/>
      <point x="198" y="669"/>
      <point x="302" y="710" type="curve"/>
      <point x="295" y="550"/>
      <point x="289" y="328"/>
      <point x="277" y="175" type="curve"/>
      <point x="212" y="201" smooth="yes"/>
      <point x="176" y="278" smooth="yes"/>
    </contour>
  </outline>
</glyph>
<glyph name="currency" format="1">
  <advance width="626"/>
  <unicode hex="00A4"/>
  <outline>
    <contour>
      <point x="280" y="213" type="curve" smooth="yes"/>
      <point x="322" y="213"/>
      <point x="359" y="225"/>
      <point x="389" y="245" type="curve"/>
      <point x="437" y="186" smooth="yes"/>
      <point x="477" y="153" smooth="yes"/>
      <point x="508" y="153" type="curve" smooth="yes" name="hr01"/>
      <point x="552" y="153"/>
      <point x="566" y="199"/>
      <point x="566" y="233" type="curve"/>
      <point x="517" y="235"/>
      <point x="489" y="262"/>
      <point x="452" y="309" type="curve"/>
      <point x="484" y="357" smooth="yes"/>
      <point x="500" y="417" smooth="yes"/>
      <point x="500" y="471" type="curve" smooth="yes"/>
      <point x="500" y="494"/>
      <point x="496" y="516"/>
      <point x="490" y="536" type="curve"/>
      <point x="551" y="585" smooth="yes"/>
      <point x="586" y="627" smooth="yes"/>
      <point x="586" y="658" type="curve" smooth="yes"/>
      <point x="586" y="702"/>
      <point x="540" y="716"/>
      <point x="506" y="716" type="curve"/>
      <point x="503" y="671"/>
      <point x="481" y="644"/>
      <point x="442" y="611" type="curve"/>
      <point x="419" y="630" smooth="yes"/>
      <point x="388" y="641" smooth="yes"/>
      <point x="352" y="641" type="curve" smooth="yes"/>
      <point x="309" y="641"/>
      <point x="273" y="629"/>
      <point x="243" y="609" type="curve"/>
      <point x="189" y="681" smooth="yes"/>
      <point x="159" y="717" smooth="yes"/>
      <point x="128" y="717" type="curve" smooth="yes" name="hr02"/>
      <point x="104" y="717"/>
      <point x="72" y="682"/>
      <point x="70" y="649" type="curve"/>
      <point x="113" y="633"/>
      <point x="139" y="604"/>
      <point x="181" y="546" type="curve"/>
      <point x="148" y="497" smooth="yes"/>
      <point x="132" y="436" smooth="yes"/>
      <point x="132" y="382" type="curve" smooth="yes"/>
      <point x="132" y="358"/>
      <point x="135" y="335"/>
      <point x="141" y="315" type="curve"/>
      <point x="80" y="268" smooth="yes"/>
      <point x="50" y="240" smooth="yes"/>
      <point x="50" y="212" type="curve" smooth="yes"/>
      <point x="50" y="188"/>
      <point x="85" y="156"/>
      <point x="118" y="154" type="curve"/>
      <point x="130" y="189"/>
      <point x="152" y="212"/>
      <point x="190" y="242" type="curve"/>
      <point x="213" y="224" smooth="yes"/>
      <point x="243" y="213" smooth="yes"/>
    </contour>
    <contour>
      <point x="407" y="447" type="curve" smooth="yes"/>
      <point x="407" y="400" smooth="yes"/>
      <point x="379" y="284" smooth="yes"/>
      <point x="303" y="284" type="curve" smooth="yes"/>
      <point x="250" y="284" smooth="yes"/>
      <point x="224" y="324" smooth="yes"/>
      <point x="224" y="406" type="curve" smooth="yes"/>
      <point x="224" y="453" smooth="yes"/>
      <point x="252" y="569" smooth="yes"/>
      <point x="328" y="569" type="curve" smooth="yes"/>
      <point x="381" y="569" smooth="yes"/>
      <point x="407" y="529" smooth="yes"/>
    </contour>
  </outline>
</glyph>
<glyph name="twosuperior" format="1">
  <advance width="397"/>
  <unicode hex="00B2"/>
  <outline>
    <contour>
      <point x="335" y="827" type="curve" smooth="yes"/>
      <point x="335" y="894" smooth="yes"/>
      <point x="293" y="942" smooth="yes"/>
      <point x="190" y="942" type="curve" smooth="yes"/>
      <point x="93" y="942" smooth="yes"/>
      <point x="55" y="893" smooth="yes"/>
      <point x="55" y="850" type="curve" smooth="yes"/>
      <point x="55" y="827"/>
      <point x="70" y="814"/>
      <point x="110" y="799" type="curve"/>
      <point x="117" y="849" smooth="yes"/>
      <point x="139" y="885" smooth="yes"/>
      <point x="183" y="885" type="curve" smooth="yes"/>
      <point x="229" y="885" smooth="yes"/>
      <point x="253" y="853" smooth="yes"/>
      <point x="253" y="819" type="curve" smooth="yes"/>
      <point x="253" y="725"/>
      <point x="109" y="567"/>
      <point x="20" y="469" type="curve"/>
      <point x="28" y="450" smooth="yes"/>
      <point x="42" y="437" smooth="yes"/>
      <point x="61" y="437" type="curve" smooth="yes"/>
      <point x="71" y="437"/>
      <point x="78" y="442"/>
      <point x="85" y="448" type="curve"/>
      <point x="114" y="455" smooth="yes"/>
      <point x="142" y="456" smooth="yes"/>
      <point x="184" y="456" type="curve" smooth="yes"/>
      <point x="255" y="456"/>
      <point x="286" y="451"/>
      <point x="326" y="435" type="curve"/>
      <point x="328" y="450" smooth="yes"/>
      <point x="329" y="461" smooth="yes"/>
      <point x="329" y="467" type="curve" smooth="yes"/>
      <point x="329" y="522" smooth="yes"/>
      <point x="293" y="528" smooth="yes"/>
      <point x="238" y="528" type="curve" smooth="yes" name="hr01"/>
      <point x="221" y="528"/>
      <point x="184" y="524"/>
      <point x="146" y="516" type="curve"/>
      <point x="233" y="615" smooth="yes"/>
      <point x="335" y="730" smooth="yes"/>
    </contour>
  </outline>
</glyph>
<glyph name="acute" format="1">
  <advance width="309"/>
  <unicode hex="00B4"/>
  <outline>
    <contour>
      <point x="344" y="849" type="curve" smooth="yes" name="hr00"/>
      <point x="375" y="871" smooth="yes"/>
      <point x="381" y="877" smooth="yes"/>
      <point x="381" y="890" type="curve" smooth="yes"/>
      <point x="381" y="902" smooth="yes"/>
      <point x="368" y="918" smooth="yes"/>
      <point x="324" y="918" type="curve" smooth="yes"/>
      <point x="311" y="918"/>
      <point x="296" y="917"/>
      <point x="277" y="913" type="curve"/>
      <point x="260" y="882"/>
      <point x="226" y="850"/>
      <point x="117" y="768" type="curve"/>
      <point x="126" y="750" smooth="yes"/>
      <point x="136" y="740" smooth="yes"/>
      <point x="144" y="740" type="curve" smooth="yes"/>
      <point x="164" y="740" smooth="yes"/>
      <point x="272" y="798" smooth="yes"/>
    </contour>
  </outline>
</glyph>
<glyph name="cedilla" format="1">
  <advance width="500"/>
  <unicode hex="00B8"/>
  <outline>
    <contour>
      <point x="191" y="34" type="line" name="hr00"/>
      <point x="174" y="-6" smooth="yes"/>
      <point x="139" y="-94" smooth="yes"/>
      <point x="139" y="-97" type="curve" smooth="yes"/>
      <point x="139" y="-101" smooth="yes"/>
      <point x="141" y="-103" smooth="yes"/>
      <point x="152" y="-105" type="curve" smooth="yes"/>
      <point x="204" y="-113" type="line" smooth="yes"/>
      <point x="231" y="-117" smooth="yes"/>
      <point x="244" y="-134" smooth="yes"/>
      <point x="244" y="-158" type="curve" smooth="yes"/>
      <point x="244" y="-189" smooth="yes"/>
      <point x="223" y="-223" smooth="yes"/>
      <point x="185" y="-223" type="curve" smooth="yes"/>
      <point x="159" y="-223"/>
      <point x="139" y="-201"/>
      <point x="137" y="-172" type="curve"/>
      <point x="98" y="-180" smooth="yes"/>
      <point x="86" y="-199" smooth="yes"/>
      <point x="86" y="-216" type="curve" smooth="yes"/>
      <point x="86" y="-244" smooth="yes"/>
      <point x="120" y="-272" smooth="yes"/>
      <point x="174" y="-272" type="curve" smooth="yes"/>
      <point x="285" y="-272" smooth="yes"/>
      <point x="321" y="-202" smooth="yes"/>
      <point x="321" y="-152" type="curve" smooth="yes"/>
      <point x="321" y="-102"/>
      <point x="289" y="-79"/>
      <point x="202" y="-69" type="curve"/>
      <point x="240" y="34" type="line"/>
    </contour>
  </outline>
</glyph>
<glyph name="onesuperior" format="1">
  <advance width="349"/>
  <unicode hex="00B9"/>
  <outline>
    <contour>
      <point x="214" y="545" type="curve" smooth="yes"/>
      <point x="214" y="633" smooth="yes"/>
      <point x="255" y="812" smooth="yes"/>
      <point x="255" y="876" type="curve" smooth="yes" name="hr01"/>
      <point x="255" y="926" smooth="yes"/>
      <point x="239" y="942" smooth="yes"/>
      <point x="209" y="942" type="curve" smooth="yes"/>
      <point x="148" y="942"/>
      <point x="139" y="858"/>
      <point x="38" y="833" type="curve"/>
      <point x="62" y="785" smooth="yes"/>
      <point x="77" y="781" smooth="yes"/>
      <point x="95" y="781" type="curve" smooth="yes"/>
      <point x="104" y="781"/>
      <point x="134" y="787"/>
      <point x="175" y="839" type="curve"/>
      <point x="173" y="758" smooth="yes"/>
      <point x="136" y="589" smooth="yes"/>
      <point x="136" y="523" type="curve" smooth="yes" name="hr02"/>
      <point x="136" y="462" smooth="yes"/>
      <point x="157" y="442" smooth="yes"/>
      <point x="187" y="442" type="curve" smooth="yes"/>
      <point x="199" y="442"/>
      <point x="218" y="448"/>
      <point x="238" y="471" type="curve"/>
      <point x="217" y="493" smooth="yes"/>
      <point x="214" y="519" smooth="yes"/>
    </contour>
  </outline>
</glyph>
<glyph name="ordmasculine" format="1">
  <advance width="465"/>
  <unicode hex="00BA"/>
  <outline>
    <contour>
      <point x="234" y="821" type="curve" smooth="yes" name="hr00"/>
      <point x="289" y="821" smooth="yes"/>
      <point x="323" y="776" smooth="yes"/>
      <point x="323" y="688" type="curve" smooth="yes"/>
      <point x="323" y="637" smooth="yes"/>
      <point x="305" y="509" smooth="yes"/>
      <point x="230" y="509" type="curve" smooth="yes"/>
      <point x="176" y="509" smooth="yes"/>
      <point x="143" y="555" smooth="yes"/>
      <point x="143" y="642" type="curve" smooth="yes"/>
      <point x="143" y="694" smooth="yes"/>
      <point x="161" y="821" smooth="yes"/>
    </contour>
    <contour>
      <point x="202" y="454" type="curve" smooth="yes"/>
      <point x="323" y="454" smooth="yes"/>
      <point x="397" y="594" smooth="yes"/>
      <point x="397" y="709" type="curve" smooth="yes"/>
      <point x="397" y="802" smooth="yes"/>
      <point x="352" y="876" smooth="yes"/>
      <point x="264" y="876" type="curve" smooth="yes"/>
      <point x="143" y="876" smooth="yes"/>
      <point x="68" y="736" smooth="yes"/>
      <point x="68" y="621" type="curve" smooth="yes"/>
      <point x="68" y="528" smooth="yes"/>
      <point x="113" y="454" smooth="yes"/>
    </contour>
  </outline>
</glyph>
<glyph name="threequarters" format="1">
  <advance width="901"/>
  <unicode hex="00BE"/>
  <outline>
    <contour>
      <point x="388" y="147" type="curve" smooth="yes"/>
      <point x="454" y="333" smooth="yes"/>
      <point x="642" y="659" smooth="yes"/>
      <point x="685" y="781" type="curve" smooth="yes"/>
      <point x="695" y="809" smooth="yes"/>
      <point x="699" y="830" smooth="yes"/>
      <point x="699" y="845" type="curve" smooth="yes"/>
      <point x="699" y="875" smooth="yes"/>
      <point x="683" y="887" smooth="yes"/>
      <point x="654" y="887" type="curve" smooth="yes"/>
      <point x="634" y="887"/>
      <point x="613" y="877"/>
      <point x="594" y="864" type="curve"/>
      <point x="594" y="857" smooth="yes"/>
      <point x="595" y="851" smooth="yes"/>
      <point x="595" y="845" type="curve" smooth="yes"/>
      <point x="595" y="810" smooth="yes"/>
      <point x="581" y="770" smooth="yes"/>
      <point x="567" y="729" type="curve" smooth="yes"/>
      <point x="508" y="562" smooth="yes"/>
      <point x="323" y="226" smooth="yes"/>
      <point x="281" y="106" type="curve" smooth="yes"/>
      <point x="269" y="70" smooth="yes"/>
      <point x="263" y="43" smooth="yes"/>
      <point x="263" y="23" type="curve" smooth="yes"/>
      <point x="263" y="-13" smooth="yes"/>
      <point x="282" y="-26" smooth="yes"/>
      <point x="312" y="-26" type="curve" smooth="yes"/>
      <point x="328" y="-26"/>
      <point x="344" y="-19"/>
      <point x="379" y="10" type="curve"/>
      <point x="372" y="23" smooth="yes"/>
      <point x="368" y="39" smooth="yes"/>
      <point x="368" y="55" type="curve" smooth="yes"/>
      <point x="368" y="83" smooth="yes"/>
      <point x="377" y="114" smooth="yes"/>
    </contour>
    <contour>
      <point x="134" y="610" type="line"/>
      <point x="162" y="612"/>
      <point x="186" y="616"/>
      <point x="204" y="620" type="curve"/>
      <point x="261" y="614" smooth="yes"/>
      <point x="283" y="578" smooth="yes"/>
      <point x="283" y="541" type="curve" smooth="yes" name="hr01"/>
      <point x="283" y="493" smooth="yes"/>
      <point x="248" y="440" smooth="yes"/>
      <point x="185" y="440" type="curve" smooth="yes"/>
      <point x="141" y="440"/>
      <point x="120" y="472"/>
      <point x="111" y="515" type="curve"/>
      <point x="72" y="499" smooth="yes"/>
      <point x="57" y="483" smooth="yes"/>
      <point x="57" y="466" type="curve" smooth="yes"/>
      <point x="57" y="424" smooth="yes"/>
      <point x="105" y="381" smooth="yes"/>
      <point x="171" y="381" type="curve" smooth="yes"/>
      <point x="313" y="381" smooth="yes"/>
      <point x="366" y="487" smooth="yes"/>
      <point x="366" y="550" type="curve" smooth="yes"/>
      <point x="366" y="602"/>
      <point x="340" y="640"/>
      <point x="287" y="658" type="curve"/>
      <point x="334" y="691" smooth="yes"/>
      <point x="358" y="735" smooth="yes"/>
      <point x="358" y="771" type="curve" smooth="yes"/>
      <point x="358" y="838" smooth="yes"/>
      <point x="318" y="886" smooth="yes"/>
      <point x="220" y="886" type="curve" smooth="yes"/>
      <point x="122" y="886" smooth="yes"/>
      <point x="90" y="837" smooth="yes"/>
      <point x="90" y="810" type="curve" smooth="yes"/>
      <point x="90" y="787"/>
      <point x="102" y="775"/>
      <point x="141" y="760" type="curve"/>
      <point x="149" y="796" smooth="yes"/>
      <point x="169" y="829" smooth="yes"/>
      <point x="213" y="829" type="curve" smooth="yes"/>
      <point x="254" y="829" smooth="yes"/>
      <point x="276" y="797" smooth="yes"/>
      <point x="276" y="763" type="curve" smooth="yes"/>
      <point x="276" y="725" smooth="yes"/>
      <point x="240" y="679" smooth="yes"/>
      <point x="165" y="669" type="curve" smooth="yes"/>
      <point x="140" y="665" smooth="yes"/>
      <point x="134" y="663" smooth="yes"/>
      <point x="134" y="635" type="curve" smooth="yes"/>
    </contour>
    <contour>
      <point x="744" y="429" type="curve" smooth="yes"/>
      <point x="744" y="466" smooth="yes"/>
      <point x="730" y="474" smooth="yes"/>
      <point x="708" y="474" type="curve" smooth="yes"/>
      <point x="698" y="474"/>
      <point x="678" y="469"/>
      <point x="653" y="448" type="curve"/>
      <point x="657" y="439" smooth="yes"/>
      <point x="660" y="430" smooth="yes"/>
      <point x="660" y="422" type="curve" smooth="yes"/>
      <point x="660" y="320"/>
      <point x="565" y="170"/>
      <point x="495" y="94" type="curve"/>
      <point x="504" y="75" smooth="yes"/>
      <point x="518" y="62" smooth="yes"/>
      <point x="537" y="62" type="curve" smooth="yes"/>
      <point x="546" y="62"/>
      <point x="554" y="66"/>
      <point x="561" y="73" type="curve"/>
      <point x="590" y="79" smooth="yes"/>
      <point x="631" y="82" smooth="yes"/>
      <point x="671" y="82" type="curve" smooth="yes"/>
      <point x="707" y="82" type="line"/>
      <point x="705" y="67" smooth="yes"/>
      <point x="704" y="53" smooth="yes"/>
      <point x="704" y="38" type="curve" smooth="yes" name="hr02"/>
      <point x="704" y="-10" smooth="yes"/>
      <point x="724" y="-25" smooth="yes"/>
      <point x="754" y="-25" type="curve" smooth="yes"/>
      <point x="765" y="-25"/>
      <point x="785" y="-20"/>
      <point x="807" y="1" type="curve"/>
      <point x="788" y="19" smooth="yes"/>
      <point x="783" y="31" smooth="yes"/>
      <point x="783" y="46" type="curve" smooth="yes"/>
      <point x="783" y="54"/>
      <point x="784" y="62"/>
      <point x="785" y="73" type="curve"/>
      <point x="796" y="70"/>
      <point x="810" y="66"/>
      <point x="827" y="59" type="curve"/>
      <point x="827" y="66" smooth="yes"/>
      <point x="828" y="86" smooth="yes"/>
      <point x="828" y="92" type="curve" smooth="yes"/>
      <point x="828" y="117"/>
      <point x="818" y="131"/>
      <point x="797" y="139" type="curve"/>
      <point x="801" y="159" smooth="yes"/>
      <point x="804" y="178" smooth="yes"/>
      <point x="804" y="191" type="curve" smooth="yes" name="hr03"/>
      <point x="804" y="228" smooth="yes"/>
      <point x="788" y="240" smooth="yes"/>
      <point x="760" y="240" type="curve" smooth="yes"/>
      <point x="748" y="240"/>
      <point x="724" y="232"/>
      <point x="712" y="224" type="curve"/>
      <point x="720" y="207" smooth="yes"/>
      <point x="723" y="193" smooth="yes"/>
      <point x="723" y="178" type="curve" smooth="yes"/>
      <point x="723" y="168"/>
      <point x="722" y="158"/>
      <point x="720" y="147" type="curve"/>
      <point x="689" y="146"/>
      <point x="649" y="142"/>
      <point x="609" y="133" type="curve"/>
      <point x="683" y="235" smooth="yes"/>
      <point x="744" y="363" smooth="yes"/>
    </contour>
  </outline>
</glyph>
<glyph name="questiondown" format="1">
  <advance width="457"/>
  <unicode hex="00BF"/>
  <outline>
    <contour>
      <point x="11" y="-22" type="curve" smooth="yes" name="hr00"/>
      <point x="11" y="-145" smooth="yes"/>
      <point x="99" y="-217" smooth="yes"/>
      <point x="244" y="-217" type="curve" smooth="yes"/>
      <point x="357" y="-217" smooth="yes"/>
      <point x="452" y="-161" smooth="yes"/>
      <point x="452" y="-73" type="curve" smooth="yes"/>
      <point x="452" y="-33"/>
      <point x="421" y="1"/>
      <point x="371" y="23" type="curve"/>
      <point x="371" y="-80" smooth="yes"/>
      <point x="339" y="-147" smooth="yes"/>
      <point x="250" y="-147" type="curve" smooth="yes"/>
      <point x="171" y="-147" smooth="yes"/>
      <point x="128" y="-79" smooth="yes"/>
      <point x="128" y="-5" type="curve" smooth="yes"/>
      <point x="128" y="119"/>
      <point x="264" y="326"/>
      <point x="324" y="403" type="curve"/>
      <point x="315" y="421" smooth="yes"/>
      <point x="301" y="433" smooth="yes"/>
      <point x="280" y="433" type="curve" smooth="yes"/>
      <point x="262" y="433" smooth="yes"/>
      <point x="246" y="418" smooth="yes"/>
      <point x="230" y="397" type="curve" smooth="yes"/>
      <point x="142" y="287" smooth="yes"/>
      <point x="11" y="104" smooth="yes"/>
    </contour>
    <contour>
      <point x="216" y="587" type="curve" smooth="yes"/>
      <point x="216" y="551" smooth="yes"/>
      <point x="246" y="537" smooth="yes"/>
      <point x="282" y="537" type="curve" smooth="yes"/>
      <point x="307" y="537"/>
      <point x="333" y="546"/>
      <point x="362" y="564" type="curve"/>
      <point x="367" y="591" smooth="yes"/>
      <point x="370" y="613" smooth="yes"/>
      <point x="370" y="629" type="curve" smooth="yes"/>
      <point x="370" y="666" smooth="yes"/>
      <point x="353" y="684" smooth="yes"/>
      <point x="307" y="684" type="curve" smooth="yes"/>
      <point x="283" y="684"/>
      <point x="256" y="674"/>
      <point x="228" y="656" type="curve"/>
      <point x="220" y="628" smooth="yes"/>
      <point x="216" y="604" smooth="yes"/>
    </contour>
  </outline>
</glyph>
<glyph name="Agrave" format="1">
  <advance width="657"/>
  <unicode hex="00C0"/>
  <outline>
    <contour>
      <point x="322" y="1020" type="curve" smooth="yes"/>
      <point x="394" y="969" smooth="yes"/>
      <point x="503" y="911" smooth="yes"/>
      <point x="523" y="911" type="curve" smooth="yes"/>
      <point x="530" y="911"/>
      <point x="540" y="921"/>
      <point x="550" y="939" type="curve"/>
      <point x="441" y="1021"/>
      <point x="406" y="1053"/>
      <point x="389" y="1084" type="curve"/>
      <point x="370" y="1088" smooth="yes"/>
      <point x="355" y="1089" smooth="yes"/>
      <point x="342" y="1089" type="curve" smooth="yes"/>
      <point x="298" y="1089" smooth="yes"/>
      <point x="285" y="1073" smooth="yes"/>
      <point x="285" y="1061" type="curve" smooth="yes"/>
      <point x="285" y="1048" smooth="yes"/>
      <point x="291" y="1042" smooth="yes"/>
    </contour>
    <component  base="A"/>
    <component  base="grave.case" xOffset="133"/>
  </outline>
</glyph>
<glyph name="Aacute" format="1">
  <advance width="657"/>
  <unicode hex="00C1"/>
  <outline>
    <contour>
      <point x="386" y="737" type="curve"/>
      <point x="417" y="632"/>
      <point x="430" y="464"/>
      <point x="444" y="323" type="curve"/>
      <point x="188" y="323" type="line"/>
      <point x="255" y="470"/>
      <point x="343" y="635"/>
    </contour>
    <contour>
      <point x="511" y="1020" type="curve" smooth="yes"/>
      <point x="542" y="1042" smooth="yes"/>
      <point x="548" y="1048" smooth="yes"/>
      <point x="548" y="1061" type="curve" smooth="yes"/>
      <point x="548" y="1073" smooth="yes"/>
      <point x="535" y="1089" smooth="yes"/>
      <point x="491" y="1089" type="curve" smooth="yes"/>
      <point x="478" y="1089"/>
      <point x="463" y="1088"/>
      <point x="444" y="1084" type="curve"/>
      <point x="427" y="1053"/>
      <point x="393" y="1021"/>
      <point x="284" y="939" type="curve"/>
      <point x="293" y="921" smooth="yes"/>
      <point x="303" y="911" smooth="yes"/>
      <point x="311" y="911" type="curve" smooth="yes"/>
      <point x="331" y="911" smooth="yes"/>
      <point x="439" y="969" smooth="yes"/>
    </contour>
    <contour>
      <point x="581" y="156" type="curve" smooth="yes"/>
      <point x="527" y="344" smooth="yes"/>
      <point x="528" y="671" smooth="yes"/>
      <point x="490" y="793" type="curve" smooth="yes"/>
      <point x="466" y="871" smooth="yes"/>
      <point x="439" y="889" smooth="yes"/>
      <point x="378" y="889" type="curve" smooth="yes"/>
      <point x="356" y="889"/>
      <point x="327" y="875"/>
      <point x="314" y="866" type="curve"/>
      <point x="316" y="858" smooth="yes"/>
      <point x="317" y="850" smooth="yes"/>
      <point x="317" y="841" type="curve" smooth="yes"/>
      <point x="317" y="808" smooth="yes"/>
      <point x="305" y="770" smooth="yes"/>
      <point x="292" y="731" type="curve" smooth="yes"/>
      <point x="236" y="563" smooth="yes"/>
      <point x="62" y="246" smooth="yes"/>
      <point x="22" y="125" type="curve" smooth="yes"/>
      <point x="11" y="90" smooth="yes"/>
      <point x="5" y="63" smooth="yes"/>
      <point x="5" y="43" type="curve" smooth="yes"/>
      <point x="5" y="6" smooth="yes"/>
      <point x="23" y="-7" smooth="yes"/>
      <point x="51" y="-7" type="curve" smooth="yes"/>
      <point x="68" y="-7"/>
      <point x="100" y="0"/>
      <point x="119" y="29" type="curve"/>
      <point x="110" y="43" smooth="yes"/>
      <point x="107" y="60" smooth="yes"/>
      <point x="107" y="77" type="curve" smooth="yes"/>
      <point x="107" y="138"/>
      <point x="135" y="203"/>
      <point x="158" y="255" type="curve"/>
      <point x="451" y="255" type="line"/>
      <point x="458" y="197" smooth="yes"/>
      <point x="466" y="148" smooth="yes"/>
      <point x="476" y="115" type="curve" smooth="yes"/>
      <point x="507" y="14" smooth="yes"/>
      <point x="542" y="-7" smooth="yes"/>
      <point x="604" y="-7" type="curve" smooth="yes"/>
      <point x="620" y="-7"/>
      <point x="654" y="0"/>
      <point x="667" y="29" type="curve"/>
      <point x="623" y="65" smooth="yes"/>
      <point x="596" y="104" smooth="yes"/>
    </contour>
    <component  base="A"/>
    <component  base="acute.case" xOffset="167"/>
  </outline>
</glyph>
<glyph name="Ccedilla" format="1">
  <advance width="608"/>
  <unicode hex="00C7"/>
  <outline>
    <contour>
      <point x="463" y="887" type="curve" smooth="yes"/>
      <point x="208" y="887" smooth="yes"/>
      <point x="78" y="586" smooth="yes"/>
      <point x="78" y="336" type="curve" smooth="yes"/>
      <point x="78" y="160"/>
      <point x="143" y="15"/>
      <point x="300" y="-15" type="curve"/>
      <point x="269" y="-91" smooth="yes"/>
      <point x="269" y="-94" smooth="yes"/>
      <point x="269" y="-97" type="curve" smooth="yes"/>
      <point x="269" y="-101" smooth="yes"/>
      <point x="271" y="-103" smooth="yes"/>
      <point x="282" y="-105" type="curve" smooth="yes"/>
      <point x="334" y="-113" type="line" smooth="yes"/>
      <point x="361" y="-117" smooth="yes"/>
      <point x="374" y="-134" smooth="yes"/>
      <point x="374" y="-158" type="curve" smooth="yes"/>
      <point x="374" y="-189" smooth="yes"/>
      <point x="353" y="-223" smooth="yes"/>
      <point x="315" y="-223" type="curve" smooth="yes"/>
      <point x="289" y="-223"/>
      <point x="269" y="-201"/>
      <point x="267" y="-172" type="curve"/>
      <point x="229" y="-186" smooth="yes"/>
      <point x="216" y="-199" smooth="yes"/>
      <point x="216" y="-216" type="curve" smooth="yes"/>
      <point x="216" y="-244" smooth="yes"/>
      <point x="250" y="-272" smooth="yes"/>
      <point x="304" y="-272" type="curve" smooth="yes"/>
      <point x="415" y="-272" smooth="yes"/>
      <point x="451" y="-202" smooth="yes"/>
      <point x="451" y="-152" type="curve" smooth="yes"/>
      <point x="451" y="-102"/>
      <point x="419" y="-79"/>
      <point x="332" y="-69" type="curve"/>
      <point x="351" y="-20" type="line"/>
      <point x="355" y="-20" smooth="yes"/>
      <point x="360" y="-21" smooth="yes"/>
      <point x="365" y="-21" type="curve" smooth="yes"/>
      <point x="478" y="-21" smooth="yes"/>
      <point x="584" y="48" smooth="yes"/>
      <point x="584" y="117" type="curve" smooth="yes"/>
      <point x="584" y="142"/>
      <point x="576" y="167"/>
      <point x="559" y="186" type="curve"/>
      <point x="528" y="96" smooth="yes"/>
      <point x="467" y="49" smooth="yes"/>
      <point x="393" y="49" type="curve" smooth="yes"/>
      <point x="253" y="49" smooth="yes"/>
      <point x="186" y="170" smooth="yes"/>
      <point x="186" y="382" type="curve" smooth="yes"/>
      <point x="186" y="504" smooth="yes"/>
      <point x="228" y="810" smooth="yes"/>
      <point x="411" y="810" type="curve" smooth="yes"/>
      <point x="493" y="810"/>
      <point x="536" y="762"/>
      <point x="567" y="693" type="curve"/>
      <point x="588" y="712" smooth="yes"/>
      <point x="618" y="738" smooth="yes"/>
      <point x="618" y="793" type="curve" smooth="yes"/>
      <point x="618" y="855" smooth="yes"/>
      <point x="550" y="887" smooth="yes"/>
    </contour>
    <component  base="C"/>
    <component  base="cedilla" xOffset="130"/>
  </outline>
</glyph>
<glyph name="Eth" format="1">
  <advance width="730"/>
  <unicode hex="00D0"/>
  <outline>
    <contour>
      <point x="44" y="437" type="curve" smooth="yes"/>
      <point x="44" y="411"/>
      <point x="53" y="392"/>
      <point x="63" y="376" type="curve"/>
      <point x="78" y="385"/>
      <point x="107" y="391"/>
      <point x="132" y="393" type="curve"/>
      <point x="114" y="283" smooth="yes"/>
      <point x="98" y="180" smooth="yes"/>
      <point x="98" y="116" type="curve" smooth="yes"/>
      <point x="98" y="27" smooth="yes"/>
      <point x="150" y="-11" smooth="yes"/>
      <point x="283" y="-11" type="curve" smooth="yes"/>
      <point x="533" y="-11" smooth="yes"/>
      <point x="691" y="253" smooth="yes"/>
      <point x="691" y="559" type="curve" smooth="yes"/>
      <point x="691" y="802" smooth="yes"/>
      <point x="568" y="880" smooth="yes"/>
      <point x="373" y="880" type="curve" smooth="yes"/>
      <point x="309" y="880"/>
      <point x="237" y="871"/>
      <point x="159" y="854" type="curve"/>
      <point x="167" y="830" smooth="yes"/>
      <point x="174" y="778" smooth="yes"/>
      <point x="174" y="750" type="curve" smooth="yes"/>
      <point x="174" y="676"/>
      <point x="160" y="577"/>
      <point x="145" y="476" type="curve"/>
      <point x="125" y="477" smooth="yes"/>
      <point x="109" y="478" smooth="yes"/>
      <point x="100" y="478" type="curve" smooth="yes"/>
      <point x="68" y="478" smooth="yes"/>
      <point x="44" y="464" smooth="yes"/>
    </contour>
    <contour>
      <point x="207" y="160" type="curve" smooth="yes"/>
      <point x="207" y="225"/>
      <point x="216" y="307"/>
      <point x="229" y="393" type="curve"/>
      <point x="273" y="392" smooth="yes"/>
      <point x="324" y="391" smooth="yes"/>
      <point x="342" y="391" type="curve" smooth="yes"/>
      <point x="420" y="391" smooth="yes"/>
      <point x="448" y="412" smooth="yes"/>
      <point x="448" y="442" type="curve" smooth="yes"/>
      <point x="448" y="458"/>
      <point x="445" y="473"/>
      <point x="433" y="488" type="curve"/>
      <point x="410" y="474" smooth="yes"/>
      <point x="335" y="467" smooth="yes"/>
      <point x="305" y="467" type="curve" smooth="yes"/>
      <point x="291" y="467"/>
      <point x="267" y="468"/>
      <point x="240" y="469" type="curve"/>
      <point x="263" y="609"/>
      <point x="288" y="745"/>
      <point x="288" y="812" type="curve"/>
      <point x="315" y="817" smooth="yes"/>
      <point x="340" y="819" smooth="yes"/>
      <point x="364" y="819" type="curve" smooth="yes"/>
      <point x="528" y="819" smooth="yes"/>
      <point x="586" y="746" smooth="yes"/>
      <point x="586" y="505" type="curve" smooth="yes"/>
      <point x="586" y="331" smooth="yes"/>
      <point x="516" y="59" smooth="yes"/>
      <point x="312" y="59" type="curve" smooth="yes"/>
      <point x="269" y="59"/>
      <point x="239" y="70"/>
      <point x="215" y="85" type="curve"/>
      <point x="210" y="104" smooth="yes"/>
      <point x="207" y="127" smooth="yes"/>
    </contour>
    <component  base="D"/>
    <component  base="barra"/>
  </outline>
</glyph>
<glyph name="Ntilde" format="1">
  <advance width="769"/>
  <unicode hex="00D1"/>
  <outline>
    <contour>
      <point x="644" y="166" type="curve" smooth="yes"/>
      <point x="644" y="352" smooth="yes"/>
      <point x="721" y="661" smooth="yes"/>
      <point x="721" y="783" type="curve" smooth="yes"/>
      <point x="721" y="862" smooth="yes"/>
      <point x="702" y="889" smooth="yes"/>
      <point x="665" y="889" type="curve" smooth="yes"/>
      <point x="649" y="889"/>
      <point x="617" y="879"/>
      <point x="605" y="866" type="curve"/>
      <point x="625" y="826" smooth="yes"/>
      <point x="626" y="779" smooth="yes"/>
      <point x="626" y="731" type="curve" smooth="yes"/>
      <point x="626" y="584"/>
      <point x="572" y="325"/>
      <point x="558" y="180" type="curve"/>
      <point x="469" y="369" smooth="yes"/>
      <point x="400" y="676" smooth="yes"/>
      <point x="340" y="793" type="curve" smooth="yes"/>
      <point x="301" y="869" smooth="yes"/>
      <point x="270" y="889" smooth="yes"/>
      <point x="213" y="889" type="curve" smooth="yes"/>
      <point x="184" y="889"/>
      <point x="154" y="878"/>
      <point x="148" y="866" type="curve"/>
      <point x="168" y="826" smooth="yes"/>
      <point x="169" y="779" smooth="yes"/>
      <point x="169" y="731" type="curve" smooth="yes"/>
      <point x="169" y="563" smooth="yes"/>
      <point x="98" y="246" smooth="yes"/>
      <point x="98" y="125" type="curve" smooth="yes"/>
      <point x="98" y="24" smooth="yes"/>
      <point x="129" y="-7" smooth="yes"/>
      <point x="171" y="-7" type="curve" smooth="yes"/>
      <point x="188" y="-7"/>
      <point x="215" y="0"/>
      <point x="226" y="29" type="curve"/>
      <point x="193" y="65" smooth="yes"/>
      <point x="187" y="114" smooth="yes"/>
      <point x="187" y="166" type="curve" smooth="yes"/>
      <point x="187" y="321"/>
      <point x="241" y="561"/>
      <point x="259" y="707" type="curve"/>
      <point x="339" y="531" smooth="yes"/>
      <point x="415" y="227" smooth="yes"/>
      <point x="473" y="115" type="curve" smooth="yes"/>
      <point x="523" y="17" smooth="yes"/>
      <point x="563" y="-7" smooth="yes"/>
      <point x="621" y="-7" type="curve" smooth="yes"/>
      <point x="647" y="-7"/>
      <point x="674" y="1"/>
      <point x="685" y="29" type="curve"/>
      <point x="652" y="65" smooth="yes"/>
      <point x="644" y="114" smooth="yes"/>
    </contour>
    <contour>
      <point x="593" y="1074" type="curve"/>
      <point x="586" y="1027" smooth="yes"/>
      <point x="564" y="1007" smooth="yes"/>
      <point x="542" y="1007" type="curve" smooth="yes"/>
      <point x="493" y="1007" smooth="yes"/>
      <point x="475" y="1073" smooth="yes"/>
      <point x="399" y="1073" type="curve" smooth="yes"/>
      <point x="343" y="1073" smooth="yes"/>
      <point x="300" y="1013" smooth="yes"/>
      <point x="300" y="958" type="curve" smooth="yes"/>
      <point x="300" y="931"/>
      <point x="322" y="926"/>
      <point x="344" y="926" type="curve"/>
      <point x="351" y="973" smooth="yes"/>
      <point x="373" y="993" smooth="yes"/>
      <point x="395" y="993" type="curve" smooth="yes"/>
      <point x="444" y="993" smooth="yes"/>
      <point x="462" y="927" smooth="yes"/>
      <point x="538" y="927" type="curve" smooth="yes"/>
      <point x="594" y="927" smooth="yes"/>
      <point x="637" y="987" smooth="yes"/>
      <point x="637" y="1042" type="curve" smooth="yes"/>
      <point x="637" y="1069"/>
      <point x="615" y="1074"/>
    </contour>
    <component  base="N"/>
    <component  base="tilde.case" xOffset="165"/>
  </outline>
</glyph>
<glyph name="Oacute" format="1">
  <advance width="782"/>
  <unicode hex="00D3"/>
  <outline>
    <contour>
      <point x="630" y="487" type="curve" smooth="yes"/>
      <point x="630" y="364" smooth="yes"/>
      <point x="587" y="57" smooth="yes"/>
      <point x="405" y="57" type="curve" smooth="yes"/>
      <point x="271" y="57" smooth="yes"/>
      <point x="186" y="167" smooth="yes"/>
      <point x="186" y="380" type="curve" smooth="yes"/>
      <point x="186" y="503" smooth="yes"/>
      <point x="229" y="810" smooth="yes"/>
      <point x="411" y="810" type="curve" smooth="yes"/>
      <point x="545" y="810" smooth="yes"/>
      <point x="630" y="700" smooth="yes"/>
    </contour>
    <contour>
      <point x="344" y="-21" type="curve" smooth="yes"/>
      <point x="606" y="-21" smooth="yes"/>
      <point x="738" y="281" smooth="yes"/>
      <point x="738" y="531" type="curve" smooth="yes"/>
      <point x="738" y="729" smooth="yes"/>
      <point x="645" y="889" smooth="yes"/>
      <point x="472" y="889" type="curve" smooth="yes"/>
      <point x="209" y="889" smooth="yes"/>
      <point x="78" y="586" smooth="yes"/>
      <point x="78" y="336" type="curve" smooth="yes"/>
      <point x="78" y="138" smooth="yes"/>
      <point x="171" y="-21" smooth="yes"/>
    </contour>
    <contour>
      <point x="567" y="1020" type="curve" smooth="yes"/>
      <point x="598" y="1042" smooth="yes"/>
      <point x="604" y="1048" smooth="yes"/>
      <point x="604" y="1061" type="curve" smooth="yes"/>
      <point x="604" y="1073" smooth="yes"/>
      <point x="591" y="1089" smooth="yes"/>
      <point x="547" y="1089" type="curve" smooth="yes"/>
      <point x="534" y="1089"/>
      <point x="519" y="1088"/>
      <point x="500" y="1084" type="curve"/>
      <point x="483" y="1053"/>
      <point x="449" y="1021"/>
      <point x="340" y="939" type="curve"/>
      <point x="349" y="921" smooth="yes"/>
      <point x="359" y="911" smooth="yes"/>
      <point x="367" y="911" type="curve" smooth="yes"/>
      <point x="387" y="911" smooth="yes"/>
      <point x="495" y="969" smooth="yes"/>
    </contour>
    <component  base="O"/>
    <component  base="acute.case" xOffset="223"/>
  </outline>
</glyph>
<glyph name="Ocircumflex" format="1">
  <advance width="782"/>
  <unicode hex="00D4"/>
  <outline>
    <contour>
      <point x="630" y="487" type="curve" smooth="yes"/>
      <point x="630" y="364" smooth="yes"/>
      <point x="587" y="57" smooth="yes"/>
      <point x="405" y="57" type="curve" smooth="yes"/>
      <point x="271" y="57" smooth="yes"/>
      <point x="186" y="167" smooth="yes"/>
      <point x="186" y="380" type="curve" smooth="yes"/>
      <point x="186" y="503" smooth="yes"/>
      <point x="229" y="810" smooth="yes"/>
      <point x="411" y="810" type="curve" smooth="yes"/>
      <point x="545" y="810" smooth="yes"/>
      <point x="630" y="700" smooth="yes"/>
    </contour>
    <contour>
      <point x="344" y="-21" type="curve" smooth="yes"/>
      <point x="606" y="-21" smooth="yes"/>
      <point x="738" y="281" smooth="yes"/>
      <point x="738" y="531" type="curve" smooth="yes"/>
      <point x="738" y="729" smooth="yes"/>
      <point x="645" y="889" smooth="yes"/>
      <point x="472" y="889" type="curve" smooth="yes"/>
      <point x="209" y="889" smooth="yes"/>
      <point x="78" y="586" smooth="yes"/>
      <point x="78" y="336" type="curve" smooth="yes"/>
      <point x="78" y="138" smooth="yes"/>
      <point x="171" y="-21" smooth="yes"/>
    </contour>
    <contour>
      <point x="611" y="911" type="curve" smooth="yes"/>
      <point x="619" y="911"/>
      <point x="629" y="921"/>
      <point x="638" y="939" type="curve"/>
      <point x="575" y="1001"/>
      <point x="538" y="1065"/>
      <point x="529" y="1078" type="curve"/>
      <point x="518" y="1086" smooth="yes"/>
      <point x="498" y="1089" smooth="yes"/>
      <point x="478" y="1089" type="curve" smooth="yes"/>
      <point x="461" y="1089"/>
      <point x="445" y="1087"/>
      <point x="435" y="1084" type="curve"/>
      <point x="418" y="1053"/>
      <point x="398" y="1021"/>
      <point x="289" y="939" type="curve"/>
      <point x="299" y="921" smooth="yes"/>
      <point x="309" y="911" smooth="yes"/>
      <point x="316" y="911" type="curve" smooth="yes"/>
      <point x="333" y="911"/>
      <point x="410" y="957"/>
      <point x="475" y="1002" type="curve"/>
      <point x="545" y="946" smooth="yes"/>
      <point x="592" y="911" smooth="yes"/>
    </contour>
    <component  base="O"/>
    <component  base="circumflex.case" xOffset="129"/>
  </outline>
</glyph>
<glyph name="Odieresis" format="1">
  <advance width="782"/>
  <unicode hex="00D6"/>
  <outline>
    <contour>
      <point x="630" y="487" type="curve" smooth="yes"/>
      <point x="630" y="364" smooth="yes"/>
      <point x="587" y="57" smooth="yes"/>
      <point x="405" y="57" type="curve" smooth="yes"/>
      <point x="271" y="57" smooth="yes"/>
      <point x="186" y="167" smooth="yes"/>
      <point x="186" y="380" type="curve" smooth="yes"/>
      <point x="186" y="503" smooth="yes"/>
      <point x="229" y="810" smooth="yes"/>
      <point x="411" y="810" type="curve" smooth="yes"/>
      <point x="545" y="810" smooth="yes"/>
      <point x="630" y="700" smooth="yes"/>
    </contour>
    <contour>
      <point x="344" y="-21" type="curve" smooth="yes"/>
      <point x="606" y="-21" smooth="yes"/>
      <point x="738" y="281" smooth="yes"/>
      <point x="738" y="531" type="curve" smooth="yes"/>
      <point x="738" y="729" smooth="yes"/>
      <point x="645" y="889" smooth="yes"/>
      <point x="472" y="889" type="curve" smooth="yes"/>
      <point x="209" y="889" smooth="yes"/>
      <point x="78" y="586" smooth="yes"/>
      <point x="78" y="336" type="curve" smooth="yes"/>
      <point x="78" y="138" smooth="yes"/>
      <point x="171" y="-21" smooth="yes"/>
    </contour>
    <contour>
      <point x="423" y="1012" type="curve" smooth="yes"/>
      <point x="423" y="1043" smooth="yes"/>
      <point x="396" y="1055" smooth="yes"/>
      <point x="365" y="1055" type="curve" smooth="yes"/>
      <point x="343" y="1055"/>
      <point x="320" y="1047"/>
      <point x="296" y="1032" type="curve"/>
      <point x="291" y="1008" smooth="yes"/>
      <point x="289" y="989" smooth="yes"/>
      <point x="289" y="975" type="curve" smooth="yes"/>
      <point x="289" y="943" smooth="yes"/>
      <point x="303" y="928" smooth="yes"/>
      <point x="343" y="928" type="curve" smooth="yes"/>
      <point x="364" y="928"/>
      <point x="388" y="936"/>
      <point x="412" y="951" type="curve"/>
      <point x="419" y="977" smooth="yes"/>
      <point x="423" y="997" smooth="yes"/>
    </contour>
    <contour>
      <point x="657" y="1012" type="curve" smooth="yes"/>
      <point x="657" y="1043" smooth="yes"/>
      <point x="630" y="1055" smooth="yes"/>
      <point x="599" y="1055" type="curve" smooth="yes"/>
      <point x="577" y="1055"/>
      <point x="555" y="1047"/>
      <point x="530" y="1032" type="curve"/>
      <point x="526" y="1008" smooth="yes"/>
      <point x="523" y="989" smooth="yes"/>
      <point x="523" y="975" type="curve" smooth="yes"/>
      <point x="523" y="943" smooth="yes"/>
      <point x="537" y="928" smooth="yes"/>
      <point x="577" y="928" type="curve" smooth="yes"/>
      <point x="598" y="928"/>
      <point x="622" y="936"/>
      <point x="646" y="951" type="curve"/>
      <point x="654" y="977" smooth="yes"/>
      <point x="657" y="997" smooth="yes"/>
    </contour>
    <component  base="O"/>
    <component  base="dieresis.case" xOffset="284"/>
  </outline>
</glyph>
<glyph name="Ugrave" format="1">
  <advance width="742"/>
  <unicode hex="00D9"/>
  <outline>
    <contour>
      <point x="252" y="80" type="curve" smooth="yes"/>
      <point x="214" y="80" smooth="yes"/>
      <point x="202" y="112" smooth="yes"/>
      <point x="202" y="158" type="curve" smooth="yes"/>
      <point x="202" y="344" smooth="yes"/>
      <point x="280" y="661" smooth="yes"/>
      <point x="280" y="783" type="curve" smooth="yes"/>
      <point x="280" y="862" smooth="yes"/>
      <point x="256" y="889" smooth="yes"/>
      <point x="211" y="889" type="curve" smooth="yes"/>
      <point x="191" y="889"/>
      <point x="159" y="879"/>
      <point x="144" y="866" type="curve"/>
      <point x="164" y="826" smooth="yes"/>
      <point x="165" y="779" smooth="yes"/>
      <point x="165" y="731" type="curve" smooth="yes"/>
      <point x="165" y="563" smooth="yes"/>
      <point x="98" y="273" smooth="yes"/>
      <point x="98" y="153" type="curve" smooth="yes"/>
      <point x="98" y="68" smooth="yes"/>
      <point x="122" y="-16" smooth="yes"/>
      <point x="223" y="-16" type="curve" smooth="yes"/>
      <point x="301" y="-16"/>
      <point x="431" y="106"/>
      <point x="519" y="243" type="curve"/>
      <point x="512" y="196" smooth="yes"/>
      <point x="508" y="154" smooth="yes"/>
      <point x="508" y="125" type="curve" smooth="yes"/>
      <point x="508" y="24" smooth="yes"/>
      <point x="539" y="-7" smooth="yes"/>
      <point x="586" y="-7" type="curve" smooth="yes"/>
      <point x="603" y="-7"/>
      <point x="630" y="0"/>
      <point x="655" y="29" type="curve"/>
      <point x="623" y="65" smooth="yes"/>
      <point x="617" y="114" smooth="yes"/>
      <point x="617" y="166" type="curve" smooth="yes"/>
      <point x="617" y="352" smooth="yes"/>
      <point x="694" y="661" smooth="yes"/>
      <point x="694" y="783" type="curve" smooth="yes"/>
      <point x="694" y="862" smooth="yes"/>
      <point x="670" y="889" smooth="yes"/>
      <point x="625" y="889" type="curve" smooth="yes"/>
      <point x="606" y="889"/>
      <point x="573" y="879"/>
      <point x="559" y="866" type="curve"/>
      <point x="579" y="826" smooth="yes"/>
      <point x="580" y="779" smooth="yes"/>
      <point x="580" y="731" type="curve" smooth="yes"/>
      <point x="580" y="636"/>
      <point x="556" y="495"/>
      <point x="537" y="367" type="curve"/>
      <point x="458" y="228" smooth="yes"/>
      <point x="315" y="80" smooth="yes"/>
    </contour>
    <contour>
      <point x="313" y="1020" type="curve" smooth="yes"/>
      <point x="385" y="969" smooth="yes"/>
      <point x="494" y="911" smooth="yes"/>
      <point x="514" y="911" type="curve" smooth="yes"/>
      <point x="521" y="911"/>
      <point x="531" y="921"/>
      <point x="541" y="939" type="curve"/>
      <point x="432" y="1021"/>
      <point x="397" y="1053"/>
      <point x="380" y="1084" type="curve"/>
      <point x="361" y="1088" smooth="yes"/>
      <point x="346" y="1089" smooth="yes"/>
      <point x="333" y="1089" type="curve" smooth="yes"/>
      <point x="289" y="1089" smooth="yes"/>
      <point x="276" y="1073" smooth="yes"/>
      <point x="276" y="1061" type="curve" smooth="yes"/>
      <point x="276" y="1048" smooth="yes"/>
      <point x="282" y="1042" smooth="yes"/>
    </contour>
    <component  base="U"/>
    <component  base="grave.case" xOffset="124"/>
  </outline>
</glyph>
<glyph name="Uacute" format="1">
  <advance width="742"/>
  <unicode hex="00DA"/>
  <outline>
    <contour>
      <point x="252" y="80" type="curve" smooth="yes"/>
      <point x="214" y="80" smooth="yes"/>
      <point x="202" y="112" smooth="yes"/>
      <point x="202" y="158" type="curve" smooth="yes"/>
      <point x="202" y="344" smooth="yes"/>
      <point x="280" y="661" smooth="yes"/>
      <point x="280" y="783" type="curve" smooth="yes"/>
      <point x="280" y="862" smooth="yes"/>
      <point x="256" y="889" smooth="yes"/>
      <point x="211" y="889" type="curve" smooth="yes"/>
      <point x="191" y="889"/>
      <point x="159" y="879"/>
      <point x="144" y="866" type="curve"/>
      <point x="164" y="826" smooth="yes"/>
      <point x="165" y="779" smooth="yes"/>
      <point x="165" y="731" type="curve" smooth="yes"/>
      <point x="165" y="563" smooth="yes"/>
      <point x="98" y="273" smooth="yes"/>
      <point x="98" y="153" type="curve" smooth="yes"/>
      <point x="98" y="68" smooth="yes"/>
      <point x="122" y="-16" smooth="yes"/>
      <point x="223" y="-16" type="curve" smooth="yes"/>
      <point x="301" y="-16"/>
      <point x="431" y="106"/>
      <point x="519" y="243" type="curve"/>
      <point x="512" y="196" smooth="yes"/>
      <point x="508" y="154" smooth="yes"/>
      <point x="508" y="125" type="curve" smooth="yes"/>
      <point x="508" y="24" smooth="yes"/>
      <point x="539" y="-7" smooth="yes"/>
      <point x="586" y="-7" type="curve" smooth="yes"/>
      <point x="603" y="-7"/>
      <point x="630" y="0"/>
      <point x="655" y="29" type="curve"/>
      <point x="623" y="65" smooth="yes"/>
      <point x="617" y="114" smooth="yes"/>
      <point x="617" y="166" type="curve" smooth="yes"/>
      <point x="617" y="352" smooth="yes"/>
      <point x="694" y="661" smooth="yes"/>
      <point x="694" y="783" type="curve" smooth="yes"/>
      <point x="694" y="862" smooth="yes"/>
      <point x="670" y="889" smooth="yes"/>
      <point x="625" y="889" type="curve" smooth="yes"/>
      <point x="606" y="889"/>
      <point x="573" y="879"/>
      <point x="559" y="866" type="curve"/>
      <point x="579" y="826" smooth="yes"/>
      <point x="580" y="779" smooth="yes"/>
      <point x="580" y="731" type="curve" smooth="yes"/>
      <point x="580" y="636"/>
      <point x="556" y="495"/>
      <point x="537" y="367" type="curve"/>
      <point x="458" y="228" smooth="yes"/>
      <point x="315" y="80" smooth="yes"/>
    </contour>
    <contour>
      <point x="562" y="1020" type="curve" smooth="yes"/>
      <point x="593" y="1042" smooth="yes"/>
      <point x="599" y="1048" smooth="yes"/>
      <point x="599" y="1061" type="curve" smooth="yes"/>
      <point x="599" y="1073" smooth="yes"/>
      <point x="586" y="1089" smooth="yes"/>
      <point x="542" y="1089" type="curve" smooth="yes"/>
      <point x="529" y="1089"/>
      <point x="514" y="1088"/>
      <point x="495" y="1084" type="curve"/>
      <point x="478" y="1053"/>
      <point x="444" y="1021"/>
      <point x="335" y="939" type="curve"/>
      <point x="344" y="921" smooth="yes"/>
      <point x="354" y="911" smooth="yes"/>
      <point x="362" y="911" type="curve" smooth="yes"/>
      <point x="382" y="911" smooth="yes"/>
      <point x="490" y="969" smooth="yes"/>
    </contour>
    <component  base="U"/>
    <component  base="acute.case" xOffset="218"/>
  </outline>
</glyph>
<glyph name="Ucircumflex" format="1">
  <advance width="742"/>
  <unicode hex="00DB"/>
  <outline>
    <contour>
      <point x="252" y="80" type="curve" smooth="yes"/>
      <point x="214" y="80" smooth="yes"/>
      <point x="202" y="112" smooth="yes"/>
      <point x="202" y="158" type="curve" smooth="yes"/>
      <point x="202" y="344" smooth="yes"/>
      <point x="280" y="661" smooth="yes"/>
      <point x="280" y="783" type="curve" smooth="yes"/>
      <point x="280" y="862" smooth="yes"/>
      <point x="256" y="889" smooth="yes"/>
      <point x="211" y="889" type="curve" smooth="yes"/>
      <point x="191" y="889"/>
      <point x="159" y="879"/>
      <point x="144" y="866" type="curve"/>
      <point x="164" y="826" smooth="yes"/>
      <point x="165" y="779" smooth="yes"/>
      <point x="165" y="731" type="curve" smooth="yes"/>
      <point x="165" y="563" smooth="yes"/>
      <point x="98" y="273" smooth="yes"/>
      <point x="98" y="153" type="curve" smooth="yes"/>
      <point x="98" y="68" smooth="yes"/>
      <point x="122" y="-16" smooth="yes"/>
      <point x="223" y="-16" type="curve" smooth="yes"/>
      <point x="301" y="-16"/>
      <point x="431" y="106"/>
      <point x="519" y="243" type="curve"/>
      <point x="512" y="196" smooth="yes"/>
      <point x="508" y="154" smooth="yes"/>
      <point x="508" y="125" type="curve" smooth="yes"/>
      <point x="508" y="24" smooth="yes"/>
      <point x="539" y="-7" smooth="yes"/>
      <point x="586" y="-7" type="curve" smooth="yes"/>
      <point x="603" y="-7"/>
      <point x="630" y="0"/>
      <point x="655" y="29" type="curve"/>
      <point x="623" y="65" smooth="yes"/>
      <point x="617" y="114" smooth="yes"/>
      <point x="617" y="166" type="curve" smooth="yes"/>
      <point x="617" y="352" smooth="yes"/>
      <point x="694" y="661" smooth="yes"/>
      <point x="694" y="783" type="curve" smooth="yes"/>
      <point x="694" y="862" smooth="yes"/>
      <point x="670" y="889" smooth="yes"/>
      <point x="625" y="889" type="curve" smooth="yes"/>
      <point x="606" y="889"/>
      <point x="573" y="879"/>
      <point x="559" y="866" type="curve"/>
      <point x="579" y="826" smooth="yes"/>
      <point x="580" y="779" smooth="yes"/>
      <point x="580" y="731" type="curve" smooth="yes"/>
      <point x="580" y="636"/>
      <point x="556" y="495"/>
      <point x="537" y="367" type="curve"/>
      <point x="458" y="228" smooth="yes"/>
      <point x="315" y="80" smooth="yes"/>
    </contour>
    <contour>
      <point x="578" y="911" type="curve" smooth="yes"/>
      <point x="586" y="911"/>
      <point x="596" y="921"/>
      <point x="605" y="939" type="curve"/>
      <point x="542" y="1001"/>
      <point x="505" y="1065"/>
      <point x="496" y="1078" type="curve"/>
      <point x="485" y="1086" smooth="yes"/>
      <point x="465" y="1089" smooth="yes"/>
      <point x="445" y="1089" type="curve" smooth="yes"/>
      <point x="428" y="1089"/>
      <point x="412" y="1087"/>
      <point x="402" y="1084" type="curve"/>
      <point x="385" y="1053"/>
      <point x="365" y="1021"/>
      <point x="256" y="939" type="curve"/>
      <point x="266" y="921" smooth="yes"/>
      <point x="276" y="911" smooth="yes"/>
      <point x="283" y="911" type="curve" smooth="yes"/>
      <point x="300" y="911"/>
      <point x="377" y="957"/>
      <point x="442" y="1002" type="curve"/>
      <point x="512" y="946" smooth="yes"/>
      <point x="559" y="911" smooth="yes"/>
    </contour>
    <component  base="U"/>
    <component  base="circumflex.case" xOffset="97"/>
  </outline>
</glyph>
<glyph name="Thorn" format="1">
  <advance width="615"/>
  <unicode hex="00DE"/>
  <outline>
    <contour>
      <point x="207" y="166" type="curve"/>
      <point x="207" y="185" type="line"/>
      <point x="360" y="223" smooth="yes"/>
      <point x="615" y="327" smooth="yes"/>
      <point x="615" y="551" type="curve" smooth="yes"/>
      <point x="615" y="713" smooth="yes"/>
      <point x="503" y="756" smooth="yes"/>
      <point x="369" y="756" type="curve" smooth="yes"/>
      <point x="341" y="756"/>
      <point x="312" y="754"/>
      <point x="283" y="751" type="curve"/>
      <point x="284" y="763" smooth="yes"/>
      <point x="284" y="773" smooth="yes"/>
      <point x="284" y="783" type="curve" smooth="yes" name="hr01"/>
      <point x="284" y="862" smooth="yes"/>
      <point x="260" y="889" smooth="yes"/>
      <point x="215" y="889" type="curve" smooth="yes"/>
      <point x="196" y="889"/>
      <point x="163" y="879"/>
      <point x="148" y="866" type="curve"/>
      <point x="168" y="826" smooth="yes"/>
      <point x="169" y="779" smooth="yes"/>
      <point x="169" y="731" type="curve" smooth="yes"/>
      <point x="169" y="563" smooth="yes"/>
      <point x="98" y="246" smooth="yes"/>
      <point x="98" y="125" type="curve" smooth="yes" name="hr02"/>
      <point x="98" y="24" smooth="yes"/>
      <point x="129" y="-7" smooth="yes"/>
      <point x="176" y="-7" type="curve" smooth="yes"/>
      <point x="192" y="-7"/>
      <point x="220" y="0"/>
      <point x="245" y="29" type="curve"/>
      <point x="212" y="65"/>
      <point x="207" y="114"/>
    </contour>
    <contour>
      <point x="336" y="699" type="curve" smooth="yes"/>
      <point x="448" y="699" smooth="yes"/>
      <point x="510" y="643" smooth="yes"/>
      <point x="510" y="530" type="curve" smooth="yes"/>
      <point x="510" y="362"/>
      <point x="359" y="282"/>
      <point x="211" y="252" type="curve"/>
      <point x="223" y="395"/>
      <point x="260" y="573"/>
      <point x="276" y="694" type="curve"/>
      <point x="297" y="697" smooth="yes"/>
      <point x="317" y="699" smooth="yes"/>
    </contour>
  </outline>
</glyph>
<glyph name="germandbls" format="1">
  <advance width="688"/>
  <unicode hex="00DF"/>
  <outline>
    <contour>
      <point x="39" y="520" type="curve"/>
      <point x="69" y="539"/>
      <point x="113" y="545"/>
      <point x="152" y="546" type="curve"/>
      <point x="125" y="345" smooth="yes"/>
      <point x="83" y="23" smooth="yes"/>
      <point x="83" y="-91" type="curve" smooth="yes"/>
      <point x="83" y="-191" smooth="yes"/>
      <point x="114" y="-223" smooth="yes"/>
      <point x="161" y="-223" type="curve" smooth="yes"/>
      <point x="178" y="-223"/>
      <point x="206" y="-216"/>
      <point x="230" y="-187" type="curve"/>
      <point x="198" y="-151" smooth="yes"/>
      <point x="192" y="-102" smooth="yes"/>
      <point x="192" y="-50" type="curve" smooth="yes"/>
      <point x="192" y="-19"/>
      <point x="193" y="17"/>
      <point x="195" y="56" type="curve"/>
      <point x="223" y="15" smooth="yes"/>
      <point x="277" y="-16" smooth="yes"/>
      <point x="355" y="-16" type="curve" smooth="yes"/>
      <point x="561" y="-16" smooth="yes"/>
      <point x="654" y="147" smooth="yes"/>
      <point x="654" y="280" type="curve" smooth="yes"/>
      <point x="654" y="415"/>
      <point x="588" y="496"/>
      <point x="463" y="526" type="curve"/>
      <point x="585" y="584" smooth="yes"/>
      <point x="653" y="697" smooth="yes"/>
      <point x="653" y="794" type="curve" smooth="yes"/>
      <point x="653" y="888" smooth="yes"/>
      <point x="590" y="967" smooth="yes"/>
      <point x="452" y="967" type="curve" smooth="yes"/>
      <point x="287" y="967"/>
      <point x="198" y="803"/>
      <point x="164" y="630" type="curve"/>
      <point x="45" y="630"/>
      <point x="39" y="589"/>
    </contour>
    <contour>
      <point x="440" y="893" type="curve" smooth="yes"/>
      <point x="515" y="893" smooth="yes"/>
      <point x="549" y="841" smooth="yes"/>
      <point x="549" y="778" type="curve" smooth="yes"/>
      <point x="549" y="687" smooth="yes"/>
      <point x="478" y="568" smooth="yes"/>
      <point x="349" y="556" type="curve" smooth="yes"/>
      <point x="312" y="553" smooth="yes"/>
      <point x="306" y="549" smooth="yes"/>
      <point x="306" y="510" type="curve" smooth="yes"/>
      <point x="306" y="505"/>
      <point x="306" y="495"/>
      <point x="307" y="488" type="curve"/>
      <point x="325" y="489"/>
      <point x="343" y="491"/>
      <point x="361" y="494" type="curve"/>
      <point x="488" y="479" smooth="yes"/>
      <point x="536" y="378" smooth="yes"/>
      <point x="536" y="263" type="curve" smooth="yes" name="hr01"/>
      <point x="536" y="166" smooth="yes"/>
      <point x="474" y="58" smooth="yes"/>
      <point x="363" y="58" type="curve" smooth="yes"/>
      <point x="284" y="58"/>
      <point x="253" y="113"/>
      <point x="253" y="189" type="curve"/>
      <point x="232" y="187"/>
      <point x="217" y="182"/>
      <point x="205" y="176" type="curve"/>
      <point x="222" y="347" smooth="yes"/>
      <point x="248" y="534" smooth="yes"/>
      <point x="260" y="616" type="curve" smooth="yes"/>
      <point x="285" y="796" smooth="yes"/>
      <point x="325" y="893" smooth="yes"/>
    </contour>
  </outline>
</glyph>
<glyph name="ae" format="1">
  <advance width="929"/>
  <unicode hex="00E6"/>
  <outline>
    <contour>
      <point x="361" y="684" type="curve" smooth="yes"/>
      <point x="196" y="684" smooth="yes"/>
      <point x="68" y="488" smooth="yes"/>
      <point x="68" y="237" type="curve" smooth="yes"/>
      <point x="68" y="81" smooth="yes"/>
      <point x="124" y="-14" smooth="yes"/>
      <point x="215" y="-14" type="curve" smooth="yes"/>
      <point x="274" y="-14"/>
      <point x="353" y="74"/>
      <point x="417" y="205" type="curve"/>
      <point x="433" y="78" smooth="yes"/>
      <point x="508" y="-17" smooth="yes"/>
      <point x="657" y="-17" type="curve" smooth="yes" name="hr01"/>
      <point x="735" y="-17" smooth="yes"/>
      <point x="851" y="20" smooth="yes"/>
      <point x="851" y="102" type="curve" smooth="yes"/>
      <point x="851" y="120"/>
      <point x="843" y="143"/>
      <point x="827" y="158" type="curve"/>
      <point x="795" y="89" smooth="yes"/>
      <point x="744" y="57" smooth="yes"/>
      <point x="676" y="57" type="curve" smooth="yes" name="hr02"/>
      <point x="580" y="57"/>
      <point x="523" y="135"/>
      <point x="521" y="285" type="curve"/>
      <point x="540" y="282" smooth="yes"/>
      <point x="559" y="281" smooth="yes"/>
      <point x="576" y="281" type="curve" smooth="yes"/>
      <point x="775" y="281" smooth="yes"/>
      <point x="895" y="431" smooth="yes"/>
      <point x="895" y="548" type="curve" smooth="yes"/>
      <point x="895" y="623" smooth="yes"/>
      <point x="846" y="684" smooth="yes"/>
      <point x="738" y="684" type="curve" smooth="yes"/>
      <point x="660" y="684"/>
      <point x="593" y="648"/>
      <point x="541" y="594" type="curve"/>
      <point x="478" y="662" smooth="yes"/>
      <point x="414" y="684" smooth="yes"/>
    </contour>
    <contour>
      <point x="249" y="92" type="curve" smooth="yes" name="hr03"/>
      <point x="202" y="92" smooth="yes"/>
      <point x="173" y="156" smooth="yes"/>
      <point x="173" y="262" type="curve" smooth="yes"/>
      <point x="173" y="469" smooth="yes"/>
      <point x="252" y="615" smooth="yes"/>
      <point x="365" y="615" type="curve" smooth="yes"/>
      <point x="403" y="615"/>
      <point x="455" y="598"/>
      <point x="507" y="552" type="curve"/>
      <point x="457" y="482"/>
      <point x="425" y="394"/>
      <point x="417" y="308" type="curve"/>
      <point x="359" y="187" smooth="yes"/>
      <point x="294" y="92" smooth="yes"/>
    </contour>
    <contour>
      <point x="691" y="609" type="curve" smooth="yes"/>
      <point x="758" y="609" smooth="yes"/>
      <point x="790" y="567" smooth="yes"/>
      <point x="790" y="515" type="curve" smooth="yes"/>
      <point x="790" y="436" smooth="yes"/>
      <point x="714" y="345" smooth="yes"/>
      <point x="569" y="345" type="curve" smooth="yes"/>
      <point x="554" y="345"/>
      <point x="540" y="346"/>
      <point x="524" y="348" type="curve"/>
      <point x="534" y="452" smooth="yes"/>
      <point x="572" y="609" smooth="yes"/>
    </contour>
  </outline>
</glyph>
<glyph name="ecircumflex" format="1">
  <advance width="583"/>
  <unicode hex="00EA"/>
  <outline>
    <contour>
      <point x="230" y="281" type="curve" smooth="yes"/>
      <point x="430" y="281" smooth="yes"/>
      <point x="549" y="431" smooth="yes"/>
      <point x="549" y="548" type="curve" smooth="yes"/>
      <point x="549" y="623" smooth="yes"/>
      <point x="500" y="684" smooth="yes"/>
      <point x="393" y="684" type="curve" smooth="yes"/>
      <point x="190" y="684" smooth="yes"/>
      <point x="68" y="451" smooth="yes"/>
      <point x="68" y="259" type="curve" smooth="yes"/>
      <point x="68" y="106" smooth="yes"/>
      <point x="142" y="-17" smooth="yes"/>
      <point x="312" y="-17" type="curve" smooth="yes"/>
      <point x="389" y="-17" smooth="yes"/>
      <point x="505" y="20" smooth="yes"/>
      <point x="505" y="102" type="curve" smooth="yes"/>
      <point x="505" y="120"/>
      <point x="497" y="143"/>
      <point x="481" y="158" type="curve"/>
      <point x="449" y="89" smooth="yes"/>
      <point x="398" y="57" smooth="yes"/>
      <point x="331" y="57" type="curve" smooth="yes"/>
      <point x="234" y="57"/>
      <point x="178" y="135"/>
      <point x="176" y="284" type="curve"/>
      <point x="194" y="282" smooth="yes"/>
      <point x="212" y="281" smooth="yes"/>
    </contour>
    <contour>
      <point x="346" y="609" type="curve" smooth="yes"/>
      <point x="412" y="609" smooth="yes"/>
      <point x="444" y="567" smooth="yes"/>
      <point x="444" y="515" type="curve" smooth="yes"/>
      <point x="444" y="436" smooth="yes"/>
      <point x="368" y="345" smooth="yes"/>
      <point x="223" y="345" type="curve" smooth="yes"/>
      <point x="209" y="345"/>
      <point x="194" y="346"/>
      <point x="178" y="348" type="curve"/>
      <point x="188" y="452" smooth="yes"/>
      <point x="227" y="609" smooth="yes"/>
    </contour>
    <contour>
      <point x="514" y="740" type="curve" smooth="yes"/>
      <point x="522" y="740"/>
      <point x="532" y="750"/>
      <point x="541" y="768" type="curve"/>
      <point x="478" y="830"/>
      <point x="441" y="894"/>
      <point x="432" y="907" type="curve"/>
      <point x="421" y="915" smooth="yes"/>
      <point x="401" y="918" smooth="yes"/>
      <point x="381" y="918" type="curve" smooth="yes"/>
      <point x="364" y="918"/>
      <point x="348" y="916"/>
      <point x="338" y="913" type="curve"/>
      <point x="321" y="882"/>
      <point x="301" y="850"/>
      <point x="192" y="768" type="curve"/>
      <point x="202" y="750" smooth="yes"/>
      <point x="212" y="740" smooth="yes"/>
      <point x="219" y="740" type="curve" smooth="yes"/>
      <point x="236" y="740"/>
      <point x="313" y="786"/>
      <point x="378" y="831" type="curve"/>
      <point x="448" y="775" smooth="yes"/>
      <point x="495" y="740" smooth="yes"/>
    </contour>
    <component  base="e"/>
    <component  base="circumflex" xOffset="32"/>
  </outline>
</glyph>
<glyph name="edieresis" format="1">
  <advance width="583"/>
  <unicode hex="00EB"/>
  <outline>
    <contour>
      <point x="230" y="281" type="curve" smooth="yes"/>
      <point x="430" y="281" smooth="yes"/>
      <point x="549" y="431" smooth="yes"/>
      <point x="549" y="548" type="curve" smooth="yes"/>
      <point x="549" y="623" smooth="yes"/>
      <point x="500" y="684" smooth="yes"/>
      <point x="393" y="684" type="curve" smooth="yes"/>
      <point x="190" y="684" smooth="yes"/>
      <point x="68" y="451" smooth="yes"/>
      <point x="68" y="259" type="curve" smooth="yes"/>
      <point x="68" y="106" smooth="yes"/>
      <point x="142" y="-17" smooth="yes"/>
      <point x="312" y="-17" type="curve" smooth="yes"/>
      <point x="389" y="-17" smooth="yes"/>
      <point x="505" y="20" smooth="yes"/>
      <point x="505" y="102" type="curve" smooth="yes"/>
      <point x="505" y="120"/>
      <point x="497" y="143"/>
      <point x="481" y="158" type="curve"/>
      <point x="449" y="89" smooth="yes"/>
      <point x="398" y="57" smooth="yes"/>
      <point x="331" y="57" type="curve" smooth="yes"/>
      <point x="234" y="57"/>
      <point x="178" y="135"/>
      <point x="176" y="284" type="curve"/>
      <point x="194" y="282" smooth="yes"/>
      <point x="212" y="281" smooth="yes"/>
    </contour>
    <contour>
      <point x="346" y="609" type="curve" smooth="yes"/>
      <point x="412" y="609" smooth="yes"/>
      <point x="444" y="567" smooth="yes"/>
      <point x="444" y="515" type="curve" smooth="yes"/>
      <point x="444" y="436" smooth="yes"/>
      <point x="368" y="345" smooth="yes"/>
      <point x="223" y="345" type="curve" smooth="yes"/>
      <point x="209" y="345"/>
      <point x="194" y="346"/>
      <point x="178" y="348" type="curve"/>
      <point x="188" y="452" smooth="yes"/>
      <point x="227" y="609" smooth="yes"/>
    </contour>
    <contour>
      <point x="320" y="841" type="curve" smooth="yes"/>
      <point x="320" y="872" smooth="yes"/>
      <point x="293" y="884" smooth="yes"/>
      <point x="262" y="884" type="curve" smooth="yes"/>
      <point x="240" y="884"/>
      <point x="217" y="876"/>
      <point x="193" y="861" type="curve"/>
      <point x="188" y="837" smooth="yes"/>
      <point x="186" y="818" smooth="yes"/>
      <point x="186" y="804" type="curve" smooth="yes"/>
      <point x="186" y="772" smooth="yes"/>
      <point x="200" y="757" smooth="yes"/>
      <point x="240" y="757" type="curve" smooth="yes"/>
      <point x="261" y="757"/>
      <point x="285" y="765"/>
      <point x="309" y="780" type="curve"/>
      <point x="316" y="806" smooth="yes"/>
      <point x="320" y="826" smooth="yes"/>
    </contour>
    <contour>
      <point x="554" y="841" type="curve" smooth="yes"/>
      <point x="554" y="872" smooth="yes"/>
      <point x="527" y="884" smooth="yes"/>
      <point x="496" y="884" type="curve" smooth="yes"/>
      <point x="474" y="884"/>
      <point x="452" y="876"/>
      <point x="427" y="861" type="curve"/>
      <point x="423" y="837" smooth="yes"/>
      <point x="420" y="818" smooth="yes"/>
      <point x="420" y="804" type="curve" smooth="yes"/>
      <point x="420" y="772" smooth="yes"/>
      <point x="434" y="757" smooth="yes"/>
      <point x="474" y="757" type="curve" smooth="yes"/>
      <point x="495" y="757"/>
      <point x="519" y="765"/>
      <point x="543" y="780" type="curve"/>
      <point x="551" y="806" smooth="yes"/>
      <point x="554" y="826" smooth="yes"/>
    </contour>
    <component  base="e"/>
    <component  base="dieresis" xOffset="181"/>
  </outline>
</glyph>
<glyph name="idieresis" format="1">
  <advance width="332"/>
  <unicode hex="00EF"/>
  <outline>
    <contour>
      <point x="245" y="29" type="curve"/>
      <point x="212" y="65" smooth="yes"/>
      <point x="207" y="114" smooth="yes"/>
      <point x="207" y="166" type="curve" smooth="yes"/>
      <point x="207" y="308" smooth="yes"/>
      <point x="253" y="530" smooth="yes"/>
      <point x="253" y="597" type="curve" smooth="yes"/>
      <point x="253" y="653" smooth="yes"/>
      <point x="221" y="673" smooth="yes"/>
      <point x="186" y="673" type="curve" smooth="yes"/>
      <point x="167" y="673"/>
      <point x="134" y="664"/>
      <point x="119" y="650" type="curve"/>
      <point x="139" y="612" smooth="yes"/>
      <point x="140" y="563" smooth="yes"/>
      <point x="140" y="521" type="curve" smooth="yes"/>
      <point x="140" y="371" smooth="yes"/>
      <point x="98" y="243" smooth="yes"/>
      <point x="98" y="125" type="curve" smooth="yes"/>
      <point x="98" y="24" smooth="yes"/>
      <point x="129" y="-7" smooth="yes"/>
      <point x="176" y="-7" type="curve" smooth="yes"/>
      <point x="192" y="-7"/>
      <point x="220" y="0"/>
    </contour>
    <contour>
      <point x="155" y="841" type="curve" smooth="yes"/>
      <point x="155" y="872" smooth="yes"/>
      <point x="128" y="884" smooth="yes"/>
      <point x="97" y="884" type="curve" smooth="yes"/>
      <point x="75" y="884"/>
      <point x="52" y="876"/>
      <point x="28" y="861" type="curve"/>
      <point x="23" y="837" smooth="yes"/>
      <point x="21" y="818" smooth="yes"/>
      <point x="21" y="804" type="curve" smooth="yes"/>
      <point x="21" y="772" smooth="yes"/>
      <point x="35" y="757" smooth="yes"/>
      <point x="75" y="757" type="curve" smooth="yes"/>
      <point x="96" y="757"/>
      <point x="120" y="765"/>
      <point x="144" y="780" type="curve"/>
      <point x="151" y="806" smooth="yes"/>
      <point x="155" y="826" smooth="yes"/>
    </contour>
    <contour>
      <point x="389" y="841" type="curve" smooth="yes"/>
      <point x="389" y="872" smooth="yes"/>
      <point x="362" y="884" smooth="yes"/>
      <point x="331" y="884" type="curve" smooth="yes"/>
      <point x="309" y="884"/>
      <point x="287" y="876"/>
      <point x="262" y="861" type="curve"/>
      <point x="258" y="837" smooth="yes"/>
      <point x="255" y="818" smooth="yes"/>
      <point x="255" y="804" type="curve" smooth="yes"/>
      <point x="255" y="772" smooth="yes"/>
      <point x="269" y="757" smooth="yes"/>
      <point x="309" y="757" type="curve" smooth="yes"/>
      <point x="330" y="757"/>
      <point x="354" y="765"/>
      <point x="378" y="780" type="curve"/>
      <point x="386" y="806" smooth="yes"/>
      <point x="389" y="826" smooth="yes"/>
    </contour>
    <component  base="dotlessi"/>
    <component  base="dieresis" xOffset="16"/>
  </outline>
</glyph>
<glyph name="eth" format="1">
  <advance width="655"/>
  <unicode hex="00F0"/>
  <outline>
    <contour>
      <point x="351" y="693" type="curve" name="hr00"/>
      <point x="370" y="722"/>
      <point x="410" y="747"/>
      <point x="450" y="767" type="curve"/>
      <point x="479" y="715"/>
      <point x="502" y="643"/>
      <point x="512" y="547" type="curve"/>
      <point x="502" y="544" type="line"/>
      <point x="462" y="600" smooth="yes"/>
      <point x="409" y="618" smooth="yes"/>
      <point x="356" y="618" type="curve" smooth="yes"/>
      <point x="182" y="618" smooth="yes"/>
      <point x="68" y="418" smooth="yes"/>
      <point x="68" y="240" type="curve" smooth="yes"/>
      <point x="68" y="97" smooth="yes"/>
      <point x="142" y="-17" smooth="yes"/>
      <point x="286" y="-17" type="curve" smooth="yes"/>
      <point x="504" y="-17" smooth="yes"/>
      <point x="602" y="200" smooth="yes"/>
      <point x="602" y="429" type="curve" smooth="yes"/>
      <point x="602" y="559"/>
      <point x="571" y="694"/>
      <point x="512" y="794" type="curve"/>
      <point x="600" y="839" smooth="yes"/>
      <point x="621" y="865" smooth="yes"/>
      <point x="621" y="886" type="curve" smooth="yes"/>
      <point x="621" y="906"/>
      <point x="605" y="928"/>
      <point x="581" y="939" type="curve"/>
      <point x="568" y="915"/>
      <point x="506" y="876"/>
      <point x="468" y="856" type="curve"/>
      <point x="415" y="919" smooth="yes"/>
      <point x="347" y="958" smooth="yes"/>
      <point x="266" y="958" type="curve" smooth="yes"/>
      <point x="185" y="958" smooth="yes"/>
      <point x="131" y="934" smooth="yes"/>
      <point x="131" y="876" type="curve" smooth="yes"/>
      <point x="131" y="853"/>
      <point x="150" y="825"/>
      <point x="169" y="811" type="curve"/>
      <point x="201" y="853" smooth="yes"/>
      <point x="246" y="877" smooth="yes"/>
      <point x="293" y="877" type="curve" smooth="yes"/>
      <point x="330" y="877"/>
      <point x="368" y="862"/>
      <point x="403" y="828" type="curve"/>
      <point x="351" y="806" smooth="yes"/>
      <point x="303" y="785" smooth="yes"/>
      <point x="303" y="754" type="curve" smooth="yes"/>
      <point x="303" y="727"/>
      <point x="332" y="704"/>
    </contour>
    <contour>
      <point x="341" y="561" type="curve" smooth="yes"/>
      <point x="440" y="561" smooth="yes"/>
      <point x="502" y="487" smooth="yes"/>
      <point x="502" y="345" type="curve" smooth="yes"/>
      <point x="502" y="263" smooth="yes"/>
      <point x="471" y="57" smooth="yes"/>
      <point x="335" y="57" type="curve" smooth="yes"/>
      <point x="237" y="57" smooth="yes"/>
      <point x="176" y="131" smooth="yes"/>
      <point x="176" y="273" type="curve" smooth="yes"/>
      <point x="176" y="356" smooth="yes"/>
      <point x="208" y="561" smooth="yes"/>
    </contour>
  </outline>
</glyph>
<glyph name="ocircumflex" format="1">
  <advance width="678"/>
  <unicode hex="00F4"/>
  <outline>
    <contour>
      <point x="341" y="609" type="curve" smooth="yes"/>
      <point x="440" y="609" smooth="yes"/>
      <point x="502" y="529" smooth="yes"/>
      <point x="502" y="373" type="curve" smooth="yes"/>
      <point x="502" y="283" smooth="yes"/>
      <point x="471" y="57" smooth="yes"/>
      <point x="335" y="57" type="curve" smooth="yes"/>
      <point x="237" y="57" smooth="yes"/>
      <point x="176" y="138" smooth="yes"/>
      <point x="176" y="294" type="curve" smooth="yes"/>
      <point x="176" y="385" smooth="yes"/>
      <point x="208" y="609" smooth="yes"/>
    </contour>
    <contour>
      <point x="286" y="-17" type="curve" smooth="yes"/>
      <point x="488" y="-17" smooth="yes"/>
      <point x="610" y="216" smooth="yes"/>
      <point x="610" y="408" type="curve" smooth="yes"/>
      <point x="610" y="561" smooth="yes"/>
      <point x="537" y="684" smooth="yes"/>
      <point x="393" y="684" type="curve" smooth="yes"/>
      <point x="190" y="684" smooth="yes"/>
      <point x="68" y="451" smooth="yes"/>
      <point x="68" y="259" type="curve" smooth="yes"/>
      <point x="68" y="106" smooth="yes"/>
      <point x="142" y="-17" smooth="yes"/>
    </contour>
    <contour>
      <point x="547" y="740" type="curve" smooth="yes"/>
      <point x="555" y="740"/>
      <point x="565" y="750"/>
      <point x="574" y="768" type="curve"/>
      <point x="511" y="830"/>
      <point x="474" y="894"/>
      <point x="465" y="907" type="curve"/>
      <point x="454" y="915" smooth="yes"/>
      <point x="434" y="918" smooth="yes"/>
      <point x="414" y="918" type="curve" smooth="yes"/>
      <point x="397" y="918"/>
      <point x="381" y="916"/>
      <point x="371" y="913" type="curve"/>
      <point x="354" y="882"/>
      <point x="334" y="850"/>
      <point x="225" y="768" type="curve"/>
      <point x="235" y="750" smooth="yes"/>
      <point x="245" y="740" smooth="yes"/>
      <point x="252" y="740" type="curve" smooth="yes"/>
      <point x="269" y="740"/>
      <point x="346" y="786"/>
      <point x="411" y="831" type="curve"/>
      <point x="481" y="775" smooth="yes"/>
      <point x="528" y="740" smooth="yes"/>
    </contour>
    <component  base="o"/>
    <component  base="circumflex" xOffset="65"/>
  </outline>
</glyph>
<glyph name="divide" format="1">
  <advance width="544"/>
  <unicode hex="00F7"/>
  <outline>
    <contour>
      <point x="49" y="437" type="curve" smooth="yes" name="hr00"/>
      <point x="49" y="411"/>
      <point x="58" y="387"/>
      <point x="68" y="372" type="curve"/>
      <point x="91" y="384" smooth="yes"/>
      <point x="146" y="389" smooth="yes"/>
      <point x="174" y="389" type="curve" smooth="yes"/>
      <point x="203" y="389" smooth="yes"/>
      <point x="347" y="386" smooth="yes"/>
      <point x="383" y="386" type="curve" smooth="yes"/>
      <point x="471" y="386" smooth="yes"/>
      <point x="501" y="412" smooth="yes"/>
      <point x="501" y="442" type="curve" smooth="yes"/>
      <point x="501" y="458"/>
      <point x="499" y="478"/>
      <point x="486" y="493" type="curve"/>
      <point x="461" y="479" smooth="yes"/>
      <point x="376" y="472" smooth="yes"/>
      <point x="342" y="472" type="curve" smooth="yes"/>
      <point x="296" y="472" smooth="yes"/>
      <point x="150" y="482" smooth="yes"/>
      <point x="109" y="482" type="curve" smooth="yes"/>
      <point x="73" y="482" smooth="yes"/>
      <point x="49" y="464" smooth="yes"/>
    </contour>
    <contour>
      <point x="329" y="238" type="curve" smooth="yes"/>
      <point x="329" y="274" smooth="yes"/>
      <point x="298" y="288" smooth="yes"/>
      <point x="263" y="288" type="curve" smooth="yes"/>
      <point x="237" y="288"/>
      <point x="211" y="279"/>
      <point x="183" y="261" type="curve"/>
      <point x="178" y="234" smooth="yes"/>
      <point x="175" y="212" smooth="yes"/>
      <point x="175" y="196" type="curve" smooth="yes"/>
      <point x="175" y="159" smooth="yes"/>
      <point x="191" y="141" smooth="yes"/>
      <point x="237" y="141" type="curve" smooth="yes"/>
      <point x="261" y="141"/>
      <point x="288" y="151"/>
      <point x="316" y="169" type="curve"/>
      <point x="325" y="197" smooth="yes"/>
      <point x="329" y="221" smooth="yes"/>
    </contour>
    <contour>
      <point x="377" y="671" type="curve" smooth="yes"/>
      <point x="377" y="707" smooth="yes"/>
      <point x="346" y="721" smooth="yes"/>
      <point x="311" y="721" type="curve" smooth="yes"/>
      <point x="285" y="721"/>
      <point x="259" y="712"/>
      <point x="231" y="694" type="curve"/>
      <point x="226" y="667" smooth="yes"/>
      <point x="223" y="645" smooth="yes"/>
      <point x="223" y="629" type="curve" smooth="yes"/>
      <point x="223" y="592" smooth="yes"/>
      <point x="239" y="574" smooth="yes"/>
      <point x="285" y="574" type="curve" smooth="yes"/>
      <point x="309" y="574"/>
      <point x="336" y="584"/>
      <point x="364" y="602" type="curve"/>
      <point x="373" y="630" smooth="yes"/>
      <point x="377" y="654" smooth="yes"/>
    </contour>
  </outline>
</glyph>
<glyph name="oslash" format="1">
  <advance width="678"/>
  <unicode hex="00F8"/>
  <outline>
    <contour>
      <point x="301" y="-16" type="curve" name="hr00"/>
      <point x="494" y="-5" smooth="yes"/>
      <point x="610" y="221" smooth="yes"/>
      <point x="610" y="408" type="curve" smooth="yes"/>
      <point x="610" y="535"/>
      <point x="559" y="641"/>
      <point x="460" y="673" type="curve"/>
      <point x="476" y="715"/>
      <point x="498" y="755"/>
      <point x="541" y="778" type="curve"/>
      <point x="540" y="809" smooth="yes"/>
      <point x="509" y="817" smooth="yes"/>
      <point x="493" y="817" type="curve" smooth="yes"/>
      <point x="454" y="817"/>
      <point x="415" y="785"/>
      <point x="379" y="683" type="curve"/>
      <point x="184" y="673" smooth="yes"/>
      <point x="68" y="446" smooth="yes"/>
      <point x="68" y="259" type="curve" smooth="yes"/>
      <point x="68" y="133"/>
      <point x="118" y="28"/>
      <point x="215" y="-5" type="curve"/>
      <point x="189" y="-56"/>
      <point x="187" y="-79"/>
      <point x="147" y="-126" type="curve"/>
      <point x="166" y="-146" smooth="yes"/>
      <point x="188" y="-150" smooth="yes"/>
      <point x="203" y="-150" type="curve" smooth="yes"/>
      <point x="236" y="-150"/>
      <point x="264" y="-125"/>
    </contour>
    <contour>
      <point x="502" y="373" type="curve" smooth="yes"/>
      <point x="502" y="283"/>
      <point x="471" y="57"/>
      <point x="319" y="57" type="curve"/>
      <point x="350" y="200"/>
      <point x="385" y="416"/>
      <point x="430" y="580" type="curve"/>
      <point x="476" y="544" smooth="yes"/>
      <point x="502" y="474" smooth="yes"/>
    </contour>
    <contour>
      <point x="341" y="609" type="curve" smooth="yes"/>
      <point x="346" y="609"/>
      <point x="352" y="608"/>
      <point x="357" y="608" type="curve"/>
      <point x="324" y="473"/>
      <point x="287" y="253"/>
      <point x="243" y="89" type="curve"/>
      <point x="200" y="126" smooth="yes"/>
      <point x="176" y="195" smooth="yes"/>
      <point x="176" y="294" type="curve" smooth="yes"/>
      <point x="176" y="385" smooth="yes"/>
      <point x="208" y="609" smooth="yes"/>
    </contour>
  </outline>
</glyph>
<glyph name="uacute" format="1">
  <advance width="677"/>
  <unicode hex="00FA"/>
  <outline>
    <contour>
      <point x="90" y="153" type="curve" smooth="yes"/>
      <point x="90" y="68" smooth="yes"/>
      <point x="112" y="-16" smooth="yes"/>
      <point x="209" y="-16" type="curve" smooth="yes"/>
      <point x="306" y="-16"/>
      <point x="393" y="173"/>
      <point x="462" y="335" type="curve"/>
      <point x="458" y="298" smooth="yes"/>
      <point x="450" y="250" smooth="yes"/>
      <point x="450" y="204" type="curve" smooth="yes"/>
      <point x="450" y="71" smooth="yes"/>
      <point x="478" y="-7" smooth="yes"/>
      <point x="536" y="-7" type="curve" smooth="yes"/>
      <point x="559" y="-7"/>
      <point x="583" y="4"/>
      <point x="604" y="30" type="curve"/>
      <point x="566" y="92" smooth="yes"/>
      <point x="557" y="162" smooth="yes"/>
      <point x="557" y="269" type="curve" smooth="yes"/>
      <point x="557" y="362" smooth="yes"/>
      <point x="595" y="491" smooth="yes"/>
      <point x="595" y="597" type="curve" smooth="yes"/>
      <point x="595" y="653" smooth="yes"/>
      <point x="562" y="673" smooth="yes"/>
      <point x="527" y="673" type="curve" smooth="yes"/>
      <point x="508" y="673"/>
      <point x="476" y="664"/>
      <point x="460" y="650" type="curve"/>
      <point x="470" y="627" smooth="yes"/>
      <point x="475" y="600" smooth="yes"/>
      <point x="475" y="569" type="curve" smooth="yes"/>
      <point x="475" y="435" smooth="yes"/>
      <point x="326" y="80" smooth="yes"/>
      <point x="241" y="80" type="curve" smooth="yes"/>
      <point x="206" y="80" smooth="yes"/>
      <point x="193" y="112" smooth="yes"/>
      <point x="193" y="158" type="curve" smooth="yes"/>
      <point x="193" y="300" smooth="yes"/>
      <point x="240" y="529" smooth="yes"/>
      <point x="240" y="597" type="curve" smooth="yes"/>
      <point x="240" y="653" smooth="yes"/>
      <point x="208" y="673" smooth="yes"/>
      <point x="173" y="673" type="curve" smooth="yes"/>
      <point x="153" y="673"/>
      <point x="121" y="664"/>
      <point x="106" y="650" type="curve"/>
      <point x="126" y="612" smooth="yes"/>
      <point x="127" y="563" smooth="yes"/>
      <point x="127" y="521" type="curve" smooth="yes"/>
      <point x="127" y="371" smooth="yes"/>
      <point x="90" y="271" smooth="yes"/>
    </contour>
    <contour>
      <point x="485" y="849" type="curve" smooth="yes"/>
      <point x="516" y="871" smooth="yes"/>
      <point x="522" y="877" smooth="yes"/>
      <point x="522" y="890" type="curve" smooth="yes"/>
      <point x="522" y="902" smooth="yes"/>
      <point x="509" y="918" smooth="yes"/>
      <point x="465" y="918" type="curve" smooth="yes"/>
      <point x="452" y="918"/>
      <point x="437" y="917"/>
      <point x="418" y="913" type="curve"/>
      <point x="401" y="882"/>
      <point x="367" y="850"/>
      <point x="258" y="768" type="curve"/>
      <point x="267" y="750" smooth="yes"/>
      <point x="277" y="740" smooth="yes"/>
      <point x="285" y="740" type="curve" smooth="yes"/>
      <point x="305" y="740" smooth="yes"/>
      <point x="413" y="798" smooth="yes"/>
    </contour>
    <component  base="u"/>
    <component  base="acute" xOffset="141"/>
  </outline>
</glyph>
<glyph name="ucircumflex" format="1">
  <advance width="677"/>
  <unicode hex="00FB"/>
  <outline>
    <contour>
      <point x="90" y="153" type="curve" smooth="yes"/>
      <point x="90" y="68" smooth="yes"/>
      <point x="112" y="-16" smooth="yes"/>
      <point x="209" y="-16" type="curve" smooth="yes"/>
      <point x="306" y="-16"/>
      <point x="393" y="173"/>
      <point x="462" y="335" type="curve"/>
      <point x="458" y="298" smooth="yes"/>
      <point x="450" y="250" smooth="yes"/>
      <point x="450" y="204" type="curve" smooth="yes"/>
      <point x="450" y="71" smooth="yes"/>
      <point x="478" y="-7" smooth="yes"/>
      <point x="536" y="-7" type="curve" smooth="yes"/>
      <point x="559" y="-7"/>
      <point x="583" y="4"/>
      <point x="604" y="30" type="curve"/>
      <point x="566" y="92" smooth="yes"/>
      <point x="557" y="162" smooth="yes"/>
      <point x="557" y="269" type="curve" smooth="yes"/>
      <point x="557" y="362" smooth="yes"/>
      <point x="595" y="491" smooth="yes"/>
      <point x="595" y="597" type="curve" smooth="yes"/>
      <point x="595" y="653" smooth="yes"/>
      <point x="562" y="673" smooth="yes"/>
      <point x="527" y="673" type="curve" smooth="yes"/>
      <point x="508" y="673"/>
      <point x="476" y="664"/>
      <point x="460" y="650" type="curve"/>
      <point x="470" y="627" smooth="yes"/>
      <point x="475" y="600" smooth="yes"/>
      <point x="475" y="569" type="curve" smooth="yes"/>
      <point x="475" y="435" smooth="yes"/>
      <point x="326" y="80" smooth="yes"/>
      <point x="241" y="80" type="curve" smooth="yes"/>
      <point x="206" y="80" smooth="yes"/>
      <point x="193" y="112" smooth="yes"/>
      <point x="193" y="158" type="curve" smooth="yes"/>
      <point x="193" y="300" smooth="yes"/>
      <point x="240" y="529" smooth="yes"/>
      <point x="240" y="597" type="curve" smooth="yes"/>
      <point x="240" y="653" smooth="yes"/>
      <point x="208" y="673" smooth="yes"/>
      <point x="173" y="673" type="curve" smooth="yes"/>
      <point x="153" y="673"/>
      <point x="121" y="664"/>
      <point x="106" y="650" type="curve"/>
      <point x="126" y="612" smooth="yes"/>
      <point x="127" y="563" smooth="yes"/>
      <point x="127" y="521" type="curve" smooth="yes"/>
      <point x="127" y="371" smooth="yes"/>
      <point x="90" y="271" smooth="yes"/>
    </contour>
    <contour>
      <point x="513" y="740" type="curve" smooth="yes"/>
      <point x="521" y="740"/>
      <point x="531" y="750"/>
      <point x="540" y="768" type="curve"/>
      <point x="477" y="830"/>
      <point x="440" y="894"/>
      <point x="431" y="907" type="curve"/>
      <point x="420" y="915" smooth="yes"/>
      <point x="400" y="918" smooth="yes"/>
      <point x="380" y="918" type="curve" smooth="yes"/>
      <point x="363" y="918"/>
      <point x="347" y="916"/>
      <point x="337" y="913" type="curve"/>
      <point x="320" y="882"/>
      <point x="300" y="850"/>
      <point x="191" y="768" type="curve"/>
      <point x="201" y="750" smooth="yes"/>
      <point x="211" y="740" smooth="yes"/>
      <point x="218" y="740" type="curve" smooth="yes"/>
      <point x="235" y="740"/>
      <point x="312" y="786"/>
      <point x="377" y="831" type="curve"/>
      <point x="447" y="775" smooth="yes"/>
      <point x="494" y="740" smooth="yes"/>
    </contour>
    <component  base="u"/>
    <component  base="circumflex" xOffset="31"/>
  </outline>
</glyph>
<glyph name="eng" format="1">
  <advance width="666"/>
  <unicode hex="014B"/>
  <outline>
    <contour>
      <point x="577" y="507" type="curve" smooth="yes"/>
      <point x="577" y="621" smooth="yes"/>
      <point x="537" y="680" smooth="yes"/>
      <point x="460" y="680" type="curve" smooth="yes"/>
      <point x="364" y="680"/>
      <point x="277" y="491"/>
      <point x="209" y="330" type="curve"/>
      <point x="223" y="408" smooth="yes"/>
      <point x="238" y="500" smooth="yes"/>
      <point x="238" y="568" type="curve" smooth="yes"/>
      <point x="238" y="647" smooth="yes"/>
      <point x="214" y="673" smooth="yes"/>
      <point x="169" y="673" type="curve" smooth="yes"/>
      <point x="150" y="673"/>
      <point x="117" y="664"/>
      <point x="103" y="650" type="curve"/>
      <point x="123" y="611" smooth="yes"/>
      <point x="124" y="564" smooth="yes"/>
      <point x="124" y="516" type="curve" smooth="yes"/>
      <point x="124" y="357" smooth="yes"/>
      <point x="86" y="199" smooth="yes"/>
      <point x="86" y="93" type="curve" smooth="yes"/>
      <point x="86" y="34" smooth="yes"/>
      <point x="97" y="-7" smooth="yes"/>
      <point x="150" y="-7" type="curve" smooth="yes"/>
      <point x="167" y="-7"/>
      <point x="187" y="-3"/>
      <point x="212" y="7" type="curve"/>
      <point x="204" y="19" smooth="yes"/>
      <point x="195" y="54" smooth="yes"/>
      <point x="195" y="95" type="curve" smooth="yes"/>
      <point x="195" y="229" smooth="yes"/>
      <point x="338" y="574" smooth="yes"/>
      <point x="432" y="574" type="curve" smooth="yes"/>
      <point x="461" y="574" smooth="yes"/>
      <point x="478" y="549" smooth="yes"/>
      <point x="478" y="507" type="curve" smooth="yes"/>
      <point x="477" y="180" smooth="yes"/>
      <point x="458" y="-192" smooth="yes"/>
      <point x="274" y="-192" type="curve" smooth="yes"/>
      <point x="228" y="-192"/>
      <point x="192" y="-170"/>
      <point x="170" y="-115" type="curve"/>
      <point x="154" y="-126" smooth="yes"/>
      <point x="134" y="-149" smooth="yes"/>
      <point x="134" y="-189" type="curve" smooth="yes"/>
      <point x="134" y="-241" smooth="yes"/>
      <point x="187" y="-275" smooth="yes"/>
      <point x="251" y="-275" type="curve" smooth="yes"/>
      <point x="348" y="-275" smooth="yes"/>
      <point x="459" y="-208" smooth="yes"/>
      <point x="515" y="-23" type="curve" smooth="yes"/>
      <point x="557" y="116" smooth="yes"/>
      <point x="577" y="327" smooth="yes"/>
    </contour>
  </outline>
</glyph>
